<svg width="149" height="19" viewBox="0 0 149 19" fill="none" xmlns="http://www.w3.org/2000/svg">
<path d="M9.08 18.144C7.416 18.144 5.904 17.776 4.544 17.04C3.2 16.288 2.144 15.264 1.376 13.968C0.624 12.672 0.248 11.216 0.248 9.6C0.248 7.984 0.624 6.528 1.376 5.232C2.144 3.936 3.2 2.92 4.544 2.184C5.904 1.432 7.416 1.056 9.08 1.056C10.744 1.056 12.24 1.424 13.568 2.16C14.912 2.896 15.968 3.92 16.736 5.232C17.504 6.528 17.888 7.984 17.888 9.6C17.888 11.216 17.504 12.68 16.736 13.992C15.968 15.288 14.912 16.304 13.568 17.04C12.24 17.776 10.744 18.144 9.08 18.144ZM9.08 16.56C10.408 16.56 11.608 16.264 12.68 15.672C13.752 15.064 14.592 14.232 15.2 13.176C15.808 12.104 16.112 10.912 16.112 9.6C16.112 8.288 15.808 7.104 15.2 6.048C14.592 4.976 13.752 4.144 12.68 3.552C11.608 2.944 10.408 2.64 9.08 2.64C7.752 2.64 6.544 2.944 5.456 3.552C4.384 4.144 3.536 4.976 2.912 6.048C2.304 7.104 2 8.288 2 9.6C2 10.912 2.304 12.104 2.912 13.176C3.536 14.232 4.384 15.064 5.456 15.672C6.544 16.264 7.752 16.56 9.08 16.56Z" fill="#3440A8"/>
<path d="M27.4128 2.736H21.5088V1.2H35.0928V2.736H29.1888V18H27.4128V2.736ZM47.3197 18.144C45.6557 18.144 44.1437 17.776 42.7837 17.04C41.4397 16.288 40.3837 15.264 39.6157 13.968C38.8637 12.672 38.4877 11.216 38.4877 9.6C38.4877 7.984 38.8637 6.528 39.6157 5.232C40.3837 3.936 41.4397 2.92 42.7837 2.184C44.1437 1.432 45.6557 1.056 47.3197 1.056C48.9837 1.056 50.4797 1.424 51.8077 2.16C53.1517 2.896 54.2077 3.92 54.9757 5.232C55.7437 6.528 56.1277 7.984 56.1277 9.6C56.1277 11.216 55.7437 12.68 54.9757 13.992C54.2077 15.288 53.1517 16.304 51.8077 17.04C50.4797 17.776 48.9837 18.144 47.3197 18.144ZM47.3197 16.56C48.6477 16.56 49.8477 16.264 50.9197 15.672C51.9917 15.064 52.8317 14.232 53.4397 13.176C54.0477 12.104 54.3517 10.912 54.3517 9.6C54.3517 8.288 54.0477 7.104 53.4397 6.048C52.8317 4.976 51.9917 4.144 50.9197 3.552C49.8477 2.944 48.6477 2.64 47.3197 2.64C45.9917 2.64 44.7837 2.944 43.6957 3.552C42.6237 4.144 41.7757 4.976 41.1517 6.048C40.5437 7.104 40.2397 8.288 40.2397 9.6C40.2397 10.912 40.5437 12.104 41.1517 13.176C41.7757 14.232 42.6237 15.064 43.6957 15.672C44.7837 16.264 45.9917 16.56 47.3197 16.56ZM62.3885 1.2H64.1645V18H62.3885V1.2ZM71.1667 1.2H78.7987C80.6227 1.2 82.2307 1.552 83.6227 2.256C85.0307 2.944 86.1187 3.92 86.8867 5.184C87.6707 6.448 88.0627 7.92 88.0627 9.6C88.0627 11.28 87.6707 12.752 86.8867 14.016C86.1187 15.28 85.0307 16.264 83.6227 16.968C82.2307 17.656 80.6227 18 78.7987 18H71.1667V1.2ZM78.6067 14.808C80.2867 14.808 81.6227 14.344 82.6147 13.416C83.6227 12.472 84.1267 11.2 84.1267 9.6C84.1267 8 83.6227 6.736 82.6147 5.808C81.6227 4.864 80.2867 4.392 78.6067 4.392H75.0547V14.808H78.6067ZM101.411 18.288C99.6668 18.288 98.0908 17.912 96.6828 17.16C95.2908 16.408 94.1948 15.376 93.3948 14.064C92.6108 12.736 92.2188 11.248 92.2188 9.6C92.2188 7.952 92.6108 6.472 93.3948 5.16C94.1948 3.832 95.2908 2.792 96.6828 2.04C98.0908 1.288 99.6668 0.912 101.411 0.912C103.155 0.912 104.723 1.288 106.115 2.04C107.507 2.792 108.603 3.832 109.403 5.16C110.203 6.472 110.603 7.952 110.603 9.6C110.603 11.248 110.203 12.736 109.403 14.064C108.603 15.376 107.507 16.408 106.115 17.16C104.723 17.912 103.155 18.288 101.411 18.288ZM101.411 14.976C102.403 14.976 103.299 14.752 104.099 14.304C104.899 13.84 105.523 13.2 105.971 12.384C106.435 11.568 106.667 10.64 106.667 9.6C106.667 8.56 106.435 7.632 105.971 6.816C105.523 6 104.899 5.368 104.099 4.92C103.299 4.456 102.403 4.224 101.411 4.224C100.419 4.224 99.5228 4.456 98.7228 4.92C97.9228 5.368 97.2908 6 96.8268 6.816C96.3788 7.632 96.1548 8.56 96.1548 9.6C96.1548 10.64 96.3788 11.568 96.8268 12.384C97.2908 13.2 97.9228 13.84 98.7228 14.304C99.5228 14.752 100.419 14.976 101.411 14.976ZM123.845 18.288C122.133 18.288 120.581 17.92 119.189 17.184C117.813 16.432 116.725 15.4 115.925 14.088C115.141 12.76 114.749 11.264 114.749 9.6C114.749 7.936 115.141 6.448 115.925 5.136C116.725 3.808 117.813 2.776 119.189 2.04C120.581 1.288 122.141 0.912 123.869 0.912C125.325 0.912 126.637 1.168 127.805 1.68C128.989 2.192 129.981 2.928 130.781 3.888L128.285 6.192C127.149 4.88 125.741 4.224 124.061 4.224C123.021 4.224 122.093 4.456 121.277 4.92C120.461 5.368 119.821 6 119.357 6.816C118.909 7.632 118.685 8.56 118.685 9.6C118.685 10.64 118.909 11.568 119.357 12.384C119.821 13.2 120.461 13.84 121.277 14.304C122.093 14.752 123.021 14.976 124.061 14.976C125.741 14.976 127.149 14.312 128.285 12.984L130.781 15.288C129.981 16.264 128.989 17.008 127.805 17.52C126.621 18.032 125.301 18.288 123.845 18.288ZM141.066 18.288C139.738 18.288 138.45 18.112 137.202 17.76C135.97 17.392 134.978 16.92 134.226 16.344L135.546 13.416C136.266 13.944 137.122 14.368 138.114 14.688C139.106 15.008 140.098 15.168 141.09 15.168C142.194 15.168 143.01 15.008 143.538 14.688C144.066 14.352 144.33 13.912 144.33 13.368C144.33 12.968 144.17 12.64 143.85 12.384C143.546 12.112 143.146 11.896 142.65 11.736C142.17 11.576 141.514 11.4 140.682 11.208C139.402 10.904 138.354 10.6 137.538 10.296C136.722 9.992 136.018 9.504 135.426 8.832C134.85 8.16 134.562 7.264 134.562 6.144C134.562 5.168 134.826 4.288 135.354 3.504C135.882 2.704 136.674 2.072 137.73 1.608C138.802 1.144 140.106 0.912 141.642 0.912C142.714 0.912 143.762 1.04 144.786 1.296C145.81 1.552 146.706 1.92 147.474 2.4L146.274 5.352C144.722 4.472 143.17 4.032 141.618 4.032C140.53 4.032 139.722 4.208 139.194 4.56C138.682 4.912 138.426 5.376 138.426 5.952C138.426 6.528 138.722 6.96 139.314 7.248C139.922 7.52 140.842 7.792 142.074 8.064C143.354 8.368 144.402 8.672 145.218 8.976C146.034 9.28 146.73 9.76 147.306 10.416C147.898 11.072 148.194 11.96 148.194 13.08C148.194 14.04 147.922 14.92 147.378 15.72C146.85 16.504 146.05 17.128 144.978 17.592C143.906 18.056 142.602 18.288 141.066 18.288Z" fill="black"/>
</svg>
