<svg width="226" height="24" viewBox="0 0 226 24" fill="none" xmlns="http://www.w3.org/2000/svg">
<path d="M43.4 19L43.38 10.6L39.26 17.52H37.8L33.7 10.78V19H30.66V5H33.34L38.58 13.7L43.74 5H46.4L46.44 19H43.4ZM56.5416 19.24C55.0882 19.24 53.7749 18.9267 52.6016 18.3C51.4416 17.6733 50.5282 16.8133 49.8616 15.72C49.2082 14.6133 48.8816 13.3733 48.8816 12C48.8816 10.6267 49.2082 9.39333 49.8616 8.3C50.5282 7.19333 51.4416 6.32667 52.6016 5.7C53.7749 5.07333 55.0882 4.76 56.5416 4.76C57.9949 4.76 59.3016 5.07333 60.4616 5.7C61.6216 6.32667 62.5349 7.19333 63.2016 8.3C63.8682 9.39333 64.2016 10.6267 64.2016 12C64.2016 13.3733 63.8682 14.6133 63.2016 15.72C62.5349 16.8133 61.6216 17.6733 60.4616 18.3C59.3016 18.9267 57.9949 19.24 56.5416 19.24ZM56.5416 16.48C57.3682 16.48 58.1149 16.2933 58.7816 15.92C59.4482 15.5333 59.9682 15 60.3416 14.32C60.7282 13.64 60.9216 12.8667 60.9216 12C60.9216 11.1333 60.7282 10.36 60.3416 9.68C59.9682 9 59.4482 8.47333 58.7816 8.1C58.1149 7.71333 57.3682 7.52 56.5416 7.52C55.7149 7.52 54.9682 7.71333 54.3016 8.1C53.6349 8.47333 53.1082 9 52.7216 9.68C52.3482 10.36 52.1616 11.1333 52.1616 12C52.1616 12.8667 52.3482 13.64 52.7216 14.32C53.1082 15 53.6349 15.5333 54.3016 15.92C54.9682 16.2933 55.7149 16.48 56.5416 16.48ZM79.4766 5V19H76.8166L69.8366 10.5V19H66.6366V5H69.3166L76.2766 13.5V5H79.4766ZM93.6289 16.4V19H82.7889V5H93.3689V7.6H86.0089V10.64H92.5089V13.16H86.0089V16.4H93.6289ZM102.79 14.04V19H99.5502V14L94.1302 5H97.5702L101.31 11.22L105.05 5H108.23L102.79 14.04ZM120.289 16.4V19H109.449V5H120.029V7.6H112.669V10.64H119.169V13.16H112.669V16.4H120.289ZM131.55 19L128.17 14.14L124.85 19H121.13L126.31 11.88L121.39 5H125.07L128.29 9.54L131.45 5H134.95L130.07 11.76L135.29 19H131.55ZM143.708 19.12C142.321 19.12 141.068 18.8133 139.948 18.2C138.841 17.5867 137.968 16.74 137.328 15.66C136.701 14.5667 136.388 13.3467 136.388 12C136.388 10.6533 136.701 9.44 137.328 8.36C137.968 7.26667 138.848 6.41333 139.968 5.8C141.088 5.18667 142.341 4.88 143.728 4.88C144.768 4.88 145.728 5.05333 146.608 5.4C147.488 5.74667 148.234 6.25333 148.848 6.92L147.908 7.86C146.814 6.75333 145.434 6.2 143.768 6.2C142.661 6.2 141.654 6.45333 140.748 6.96C139.841 7.46667 139.128 8.16 138.608 9.04C138.101 9.92 137.848 10.9067 137.848 12C137.848 13.0933 138.101 14.08 138.608 14.96C139.128 15.84 139.841 16.5333 140.748 17.04C141.654 17.5467 142.661 17.8 143.768 17.8C145.448 17.8 146.828 17.24 147.908 16.12L148.848 17.06C148.234 17.7267 147.481 18.24 146.588 18.6C145.708 18.9467 144.748 19.12 143.708 19.12ZM163.703 5V19H162.243V12.54H153.483V19H152.003V5H153.483V11.24H162.243V5H163.703ZM177.052 15.26H169.252L167.572 19H166.032L172.432 5H173.892L180.292 19H178.732L177.052 15.26ZM176.512 14.06L173.152 6.54L169.792 14.06H176.512ZM194.308 5V19H193.088L184.088 7.64V19H182.608V5H183.828L192.848 16.36V5H194.308ZM208.738 12H210.158V17.34C209.504 17.9133 208.731 18.3533 207.838 18.66C206.944 18.9667 206.004 19.12 205.018 19.12C203.618 19.12 202.358 18.8133 201.238 18.2C200.118 17.5867 199.238 16.74 198.598 15.66C197.958 14.5667 197.638 13.3467 197.638 12C197.638 10.6533 197.958 9.44 198.598 8.36C199.238 7.26667 200.118 6.41333 201.238 5.8C202.358 5.18667 203.624 4.88 205.038 4.88C206.104 4.88 207.084 5.05333 207.978 5.4C208.871 5.73333 209.624 6.23333 210.238 6.9L209.318 7.84C208.211 6.74667 206.804 6.2 205.098 6.2C203.964 6.2 202.938 6.45333 202.018 6.96C201.111 7.45333 200.398 8.14667 199.878 9.04C199.358 9.92 199.098 10.9067 199.098 12C199.098 13.0933 199.358 14.08 199.878 14.96C200.398 15.84 201.111 16.5333 202.018 17.04C202.924 17.5467 203.944 17.8 205.078 17.8C206.518 17.8 207.738 17.44 208.738 16.72V12ZM224.246 17.72V19H214.346V5H223.946V6.28H215.826V11.26H223.066V12.52H215.826V17.72H224.246Z" fill="#160647"/>
<path d="M15 4L9.5 14L0 19H15V4Z" fill="url(#paint0_linear)"/>
<defs>
<linearGradient id="paint0_linear" x1="11.1548" y1="8.92507" x2="5.25648" y2="16.1023" gradientUnits="userSpaceOnUse">
<stop stop-color="#562EC2"/>
<stop offset="1" stop-color="#A07EFE"/>
</linearGradient>
</defs>
</svg>
