<svg width="27" height="27" viewBox="0 0 27 27" fill="none" xmlns="http://www.w3.org/2000/svg">
<path d="M21.0005 12.4465L8.98511 0.431338C8.70721 0.153218 8.33624 0 7.94068 0C7.54512 0 7.17415 0.153218 6.89625 0.431338L6.0114 1.31596C5.43563 1.8924 5.43563 2.82927 6.0114 3.40483L16.101 13.4944L6.00021 23.5952C5.72231 23.8733 5.56887 24.244 5.56887 24.6394C5.56887 25.0352 5.72231 25.4059 6.00021 25.6843L6.88505 26.5687C7.16317 26.8468 7.53393 27 7.92949 27C8.32504 27 8.69602 26.8468 8.97392 26.5687L21.0005 14.5426C21.279 14.2636 21.432 13.8911 21.4311 13.4951C21.432 13.0975 21.279 12.7252 21.0005 12.4465Z" fill="white"/>
</svg>
