<svg width="51" height="51" viewBox="0 0 51 51" fill="none" xmlns="http://www.w3.org/2000/svg">
<rect width="51" height="51" rx="25.5" fill="white"/>
<rect x="13" y="13" width="8.53788" height="8.40653" rx="4.20326" fill="#F1C40F"/>
<rect x="15.7879" y="15.4019" width="5.75" height="5.66154" rx="2.83077" fill="white"/>
<path d="M25.0227 17.2891H21.7119C20.002 17.2891 19.0806 19.2958 20.195 20.5926L25.0227 26.2103" stroke="#353C58" stroke-width="2"/>
<path d="M25.5455 23.0363L28.1835 20.0452C30.162 17.802 33.0089 16.517 36 16.517V16.517" stroke="#FF574E" stroke-width="2"/>
<path d="M30.6856 22.6932L25.923 28.3986C25.6228 28.7583 25.4583 29.2118 25.4583 29.6803V34.1021" stroke="#353C58" stroke-width="2"/>
<path d="M28.3923 36.7077H22.3769C22.2792 36.7077 22.2 36.7869 22.2 36.8846C22.2 36.9823 22.2792 37.0615 22.3769 37.0615H28.3923C28.49 37.0615 28.5692 36.9823 28.5692 36.8846C28.5692 36.7869 28.49 36.7077 28.3923 36.7077Z" fill="#353C58" stroke="#353C58" stroke-width="2"/>
</svg>
