<svg width="70" height="70" viewBox="0 0 70 70" fill="none" xmlns="http://www.w3.org/2000/svg">
<g clip-path="url(#clip0)">
<path d="M15.6677 68.5845C14.9008 68.5845 14.1392 68.3452 13.4892 67.8753C12.2785 66.9978 11.7129 65.4896 12.0424 64.0342L16.5457 44.1972L1.27343 30.8038C0.150808 29.8238 -0.278051 28.2717 0.182853 26.8516C0.643756 25.4342 1.89775 24.4307 3.38247 24.2934L23.5896 22.4589L31.5788 3.76268C32.1678 2.38905 33.5094 1.50195 35 1.50195C36.4906 1.50195 37.8322 2.38905 38.4213 3.75947L46.4104 22.4589L66.6144 24.2934C68.1023 24.4275 69.3563 25.4342 69.8172 26.8516C70.2781 28.2691 69.8519 29.8238 68.7293 30.8038L53.457 44.1945L57.9603 64.031C58.2903 65.4896 57.7242 66.9978 56.514 67.8726C55.3065 68.7474 53.6962 68.8147 52.4246 68.0504L35 57.6377L17.5754 68.0563C16.9863 68.4061 16.33 68.5845 15.6677 68.5845V68.5845ZM35 53.152C35.6623 53.152 36.3181 53.3298 36.9077 53.6797L53.3523 63.5151L49.1022 44.7922C48.7988 43.4597 49.2512 42.0684 50.2809 41.1669L64.7013 28.5201L45.6227 26.7876C44.2491 26.6621 43.0677 25.7985 42.531 24.5327L35 6.88913L27.46 24.5354C26.9291 25.7926 25.7478 26.6562 24.3773 26.7817L5.29605 28.5142L19.716 41.161C20.7489 42.0652 21.2007 43.4538 20.8947 44.7895L16.6477 63.5119L33.0923 53.6797C33.6814 53.3298 34.3378 53.152 35 53.152V53.152ZM23.4352 22.8205C23.4352 22.8205 23.4352 22.8237 23.432 22.8264L23.4352 22.8205ZM46.5589 22.8119L46.5621 22.8178C46.5621 22.8146 46.5621 22.8146 46.5589 22.8119Z" fill="#486CA3"/>
</g>
<defs>
<clipPath id="clip0">
<rect width="70" height="70" fill="white"/>
</clipPath>
</defs>
</svg>
