<svg width="70" height="70" viewBox="0 0 70 70" fill="none" xmlns="http://www.w3.org/2000/svg">
<g clip-path="url(#clip0)">
<path d="M30.9424 0.00256348H9.0685C7.86037 0.00256348 6.8811 0.981832 6.8811 2.18996V67.8118C6.8811 69.0199 7.86037 69.9991 9.0685 69.9991H30.9424C32.1506 69.9991 33.1298 69.0199 33.1298 67.8118V2.18996C33.1298 0.981832 32.1504 0.00256348 30.9424 0.00256348ZM28.755 65.6244H11.2559V59.0622H22.1929V54.6874H11.2559V48.1252H17.8181V43.7504H11.2559V37.1882H22.1929V32.8135H11.2559V26.2513H17.8181V21.8765H11.2559V15.3143H22.1929V10.9395H11.2559V4.37735H28.755V65.6244Z" fill="#486CA3"/>
<path d="M60.0347 55.3428L52.8163 62.5393V7.46079L60.0129 14.6573L63.0971 11.5731L52.1601 0.636121C51.3069 -0.21204 49.9291 -0.21204 49.0759 0.636121L38.1389 11.5731L41.2231 14.6573L48.4415 7.46079V62.5393L41.245 55.3428L38.1608 58.427L49.0978 69.364C49.951 70.2122 51.3288 70.2122 52.182 69.364L63.119 58.427L60.0347 55.3428Z" fill="#486CA3"/>
</g>
<defs>
<clipPath id="clip0">
<rect width="70" height="70" fill="white"/>
</clipPath>
</defs>
</svg>
