<svg width="253" height="80" viewBox="0 0 253 80" fill="none" xmlns="http://www.w3.org/2000/svg">
<path d="M0 40C0 17.9086 17.9086 0 40 0C62.0914 0 80 17.9086 80 40C80 62.0914 62.0914 80 40 80C17.9086 80 0 62.0914 0 40Z" fill="#486CA3"/>
<path d="M31.084 47.1553H24.0894V52.4775H27.6782C29.2733 52.4857 30.5225 52.9536 31.4258 53.8813C32.3291 54.8009 32.7808 56.0705 32.7808 57.6899C32.7808 59.3175 32.321 60.6115 31.4014 61.5718C30.4899 62.5239 29.2244 63 27.605 63H21.8433V45.2266H31.084V47.1553ZM24.0894 54.4062V61.0835H27.6538C28.5653 61.0835 29.2733 60.7702 29.7778 60.1436C30.2824 59.5169 30.5347 58.6909 30.5347 57.6655C30.5347 56.6564 30.2824 55.863 29.7778 55.2852C29.2814 54.6992 28.5775 54.4062 27.666 54.4062H24.0894ZM42.1558 63C42.0256 62.7152 41.932 62.235 41.875 61.5596C41.11 62.6826 40.1335 63.2441 38.9453 63.2441C37.749 63.2441 36.8132 62.9105 36.1377 62.2432C35.4704 61.5677 35.1367 60.6196 35.1367 59.3989C35.1367 58.0562 35.5924 56.9901 36.5039 56.2007C37.4154 55.4113 38.6646 55.0085 40.2515 54.9922H41.8384V53.5884C41.8384 52.799 41.6634 52.2375 41.3135 51.9038C40.9635 51.5701 40.4305 51.4033 39.7144 51.4033C39.0633 51.4033 38.5343 51.5986 38.1274 51.9893C37.7205 52.3717 37.5171 52.86 37.5171 53.4541H35.3564C35.3564 52.7786 35.5558 52.1357 35.9546 51.5254C36.3534 50.9069 36.8905 50.4227 37.5659 50.0728C38.2414 49.7228 38.9941 49.5479 39.8242 49.5479C41.1751 49.5479 42.2005 49.8856 42.9004 50.561C43.6084 51.2284 43.9705 52.2049 43.9868 53.4907V60.1558C43.995 61.173 44.1333 62.056 44.4019 62.8047V63H42.1558ZM39.2749 61.2788C39.8039 61.2788 40.3084 61.1323 40.7886 60.8394C41.2687 60.5464 41.6187 60.1802 41.8384 59.7407V56.5913H40.6177C39.5923 56.6076 38.7826 56.8395 38.1885 57.2871C37.5944 57.7266 37.2974 58.3451 37.2974 59.1426C37.2974 59.8913 37.4479 60.4365 37.749 60.7783C38.0501 61.112 38.5588 61.2788 39.2749 61.2788ZM51.9336 61.4009C52.6497 61.4009 53.2235 61.1812 53.6548 60.7417C54.0861 60.2941 54.3221 59.6593 54.3628 58.8374H56.4014C56.3525 60.1069 55.9009 61.1608 55.0464 61.999C54.2 62.8291 53.1624 63.2441 51.9336 63.2441C50.2979 63.2441 49.0487 62.7314 48.186 61.7061C47.3315 60.6725 46.9043 59.1385 46.9043 57.104V55.6514C46.9043 53.6576 47.3315 52.1439 48.186 51.1104C49.0405 50.0687 50.2856 49.5479 51.9214 49.5479C53.2723 49.5479 54.3424 49.9751 55.1318 50.8296C55.9294 51.6841 56.3525 52.8519 56.4014 54.333H54.3628C54.314 53.3564 54.078 52.624 53.6548 52.1357C53.2397 51.6475 52.6619 51.4033 51.9214 51.4033C50.9611 51.4033 50.249 51.7207 49.7852 52.3555C49.3213 52.9821 49.0812 54.0156 49.0649 55.4561V57.1406C49.0649 58.695 49.2928 59.7936 49.7485 60.4365C50.2124 61.0794 50.9408 61.4009 51.9336 61.4009ZM63.4814 61.4009C64.1976 61.4009 64.7713 61.1812 65.2026 60.7417C65.634 60.2941 65.87 59.6593 65.9106 58.8374H67.9492C67.9004 60.1069 67.4487 61.1608 66.5942 61.999C65.7479 62.8291 64.7103 63.2441 63.4814 63.2441C61.8457 63.2441 60.5965 62.7314 59.7339 61.7061C58.8794 60.6725 58.4521 59.1385 58.4521 57.104V55.6514C58.4521 53.6576 58.8794 52.1439 59.7339 51.1104C60.5884 50.0687 61.8335 49.5479 63.4692 49.5479C64.8201 49.5479 65.8903 49.9751 66.6797 50.8296C67.4772 51.6841 67.9004 52.8519 67.9492 54.333H65.9106C65.8618 53.3564 65.6258 52.624 65.2026 52.1357C64.7876 51.6475 64.2098 51.4033 63.4692 51.4033C62.509 51.4033 61.7969 51.7207 61.333 52.3555C60.8691 52.9821 60.6291 54.0156 60.6128 55.4561V57.1406C60.6128 58.695 60.8407 59.7936 61.2964 60.4365C61.7603 61.0794 62.4886 61.4009 63.4814 61.4009ZM75.1636 63.2441C73.5197 63.2441 72.2583 62.7559 71.3794 61.7793C70.5005 60.7946 70.0529 59.3542 70.0366 57.458V55.8589C70.0366 53.8895 70.4639 52.3473 71.3184 51.2324C72.181 50.1094 73.3813 49.5479 74.9194 49.5479C76.4657 49.5479 77.6213 50.0402 78.3862 51.0249C79.1512 52.0096 79.5418 53.5436 79.5581 55.627V57.043H72.1851V57.3481C72.1851 58.7642 72.4495 59.7936 72.9785 60.4365C73.5156 61.0794 74.2847 61.4009 75.2856 61.4009C75.9204 61.4009 76.4779 61.2829 76.958 61.0469C77.4463 60.8027 77.902 60.4202 78.3252 59.8994L79.4482 61.2666C78.5124 62.585 77.0841 63.2441 75.1636 63.2441ZM74.9194 51.4033C74.0243 51.4033 73.361 51.7126 72.9297 52.3311C72.4984 52.9414 72.2542 53.8936 72.1973 55.1875H77.3975V54.8945C77.3405 53.6413 77.1126 52.7461 76.7139 52.209C76.3232 51.6719 75.7251 51.4033 74.9194 51.4033ZM89.2993 49.792H91.4478V63H89.2993V53.3687L84.5142 63H82.3535V49.792H84.5142V59.4355L89.2993 49.792ZM90.5688 44.9824C90.5688 45.9671 90.2311 46.7606 89.5557 47.3628C88.8883 47.9569 88.0094 48.2539 86.9189 48.2539C85.8285 48.2539 84.9455 47.9528 84.27 47.3506C83.5946 46.7484 83.2568 45.959 83.2568 44.9824H85.1001C85.1001 45.5521 85.2547 45.9997 85.564 46.3252C85.8732 46.6426 86.3249 46.8013 86.9189 46.8013C87.4886 46.8013 87.9321 46.6426 88.2495 46.3252C88.575 46.0078 88.7378 45.5602 88.7378 44.9824H90.5688ZM104.18 63H102.031V57.3604H97.2705V63H95.0977V49.792H97.2705V55.5171H102.031V49.792H104.18V63ZM109.966 54.3452H112.688C113.949 54.3534 114.954 54.7399 115.703 55.5049C116.452 56.2699 116.826 57.3115 116.826 58.6299C116.826 59.9482 116.448 61.0062 115.691 61.8037C114.934 62.5931 113.933 62.9919 112.688 63H107.817V49.792H109.966V54.3452ZM120.854 63H118.694V49.792H120.854V63ZM109.966 56.1885V61.1567H112.651C113.286 61.1567 113.778 60.9411 114.128 60.5098C114.486 60.0785 114.666 59.4803 114.666 58.7153C114.666 57.9666 114.491 57.3604 114.141 56.8965C113.791 56.4326 113.311 56.1966 112.7 56.1885H109.966ZM134.685 55.0166H133V63H130.767V45.2266H133V53.0635H134.368L139.373 45.2266H142.156L136.516 53.8203L142.571 63H139.836L134.685 55.0166ZM153.618 57.0308C153.618 59.1222 153.24 60.6807 152.483 61.7061C151.734 62.7314 150.672 63.2441 149.297 63.2441C147.97 63.2441 146.949 62.7437 146.233 61.7427V68.0781H144.084V49.792H146.038L146.147 51.2568C146.872 50.1175 147.909 49.5479 149.26 49.5479C150.709 49.5479 151.791 50.0524 152.507 51.0615C153.223 52.0706 153.594 53.5802 153.618 55.5903V57.0308ZM151.47 55.7979C151.47 54.3167 151.242 53.2262 150.786 52.5264C150.33 51.8184 149.598 51.4644 148.589 51.4644C147.555 51.4644 146.77 51.9811 146.233 53.0146V59.8872C146.762 60.8963 147.555 61.4009 148.613 61.4009C149.59 61.4009 150.306 61.0509 150.762 60.3511C151.226 59.6431 151.462 58.5648 151.47 57.1162V55.7979ZM163.201 63C163.07 62.7152 162.977 62.235 162.92 61.5596C162.155 62.6826 161.178 63.2441 159.99 63.2441C158.794 63.2441 157.858 62.9105 157.183 62.2432C156.515 61.5677 156.182 60.6196 156.182 59.3989C156.182 58.0562 156.637 56.9901 157.549 56.2007C158.46 55.4113 159.709 55.0085 161.296 54.9922H162.883V53.5884C162.883 52.799 162.708 52.2375 162.358 51.9038C162.008 51.5701 161.475 51.4033 160.759 51.4033C160.108 51.4033 159.579 51.5986 159.172 51.9893C158.765 52.3717 158.562 52.86 158.562 53.4541H156.401C156.401 52.7786 156.601 52.1357 157 51.5254C157.398 50.9069 157.935 50.4227 158.611 50.0728C159.286 49.7228 160.039 49.5479 160.869 49.5479C162.22 49.5479 163.245 49.8856 163.945 50.561C164.653 51.2284 165.015 52.2049 165.032 53.4907V60.1558C165.04 61.173 165.178 62.056 165.447 62.8047V63H163.201ZM160.32 61.2788C160.849 61.2788 161.353 61.1323 161.833 60.8394C162.314 60.5464 162.664 60.1802 162.883 59.7407V56.5913H161.663C160.637 56.6076 159.827 56.8395 159.233 57.2871C158.639 57.7266 158.342 58.3451 158.342 59.1426C158.342 59.8913 158.493 60.4365 158.794 60.7783C159.095 61.112 159.604 61.2788 160.32 61.2788ZM172.979 61.4009C173.695 61.4009 174.268 61.1812 174.7 60.7417C175.131 60.2941 175.367 59.6593 175.408 58.8374H177.446C177.397 60.1069 176.946 61.1608 176.091 61.999C175.245 62.8291 174.207 63.2441 172.979 63.2441C171.343 63.2441 170.094 62.7314 169.231 61.7061C168.376 60.6725 167.949 59.1385 167.949 57.104V55.6514C167.949 53.6576 168.376 52.1439 169.231 51.1104C170.085 50.0687 171.331 49.5479 172.966 49.5479C174.317 49.5479 175.387 49.9751 176.177 50.8296C176.974 51.6841 177.397 52.8519 177.446 54.333H175.408C175.359 53.3564 175.123 52.624 174.7 52.1357C174.285 51.6475 173.707 51.4033 172.966 51.4033C172.006 51.4033 171.294 51.7207 170.83 52.3555C170.366 52.9821 170.126 54.0156 170.11 55.4561V57.1406C170.11 58.695 170.338 59.7936 170.793 60.4365C171.257 61.0794 171.986 61.4009 172.979 61.4009ZM189.214 63H187.065V57.3604H182.305V63H180.132V49.792H182.305V55.5171H187.065V49.792H189.214V63ZM192.205 55.7856C192.205 53.8651 192.668 52.3473 193.596 51.2324C194.532 50.1094 195.765 49.5479 197.295 49.5479C198.825 49.5479 200.054 50.0931 200.981 51.1836C201.917 52.2741 202.397 53.7593 202.422 55.6392V57.0308C202.422 58.9432 201.958 60.4569 201.03 61.5718C200.103 62.6867 198.866 63.2441 197.319 63.2441C195.789 63.2441 194.561 62.703 193.633 61.6206C192.713 60.5382 192.237 59.0734 192.205 57.2261V55.7856ZM194.365 57.0308C194.365 58.3898 194.63 59.46 195.159 60.2412C195.696 61.0143 196.416 61.4009 197.319 61.4009C199.224 61.4009 200.204 60.0256 200.261 57.2749V55.7856C200.261 54.4347 199.993 53.3687 199.456 52.5874C198.918 51.798 198.198 51.4033 197.295 51.4033C196.408 51.4033 195.696 51.798 195.159 52.5874C194.63 53.3687 194.365 54.4307 194.365 55.7734V57.0308ZM204.302 61.1567L204.949 60.229C205.649 59.1548 206.051 57.5719 206.157 55.4805L206.34 49.792H213.713V61.1567H215.251V66.8818H213.091V63H205.583V66.8818H203.411L203.423 61.1567H204.302ZM206.707 61.1567H211.565V51.8794H208.44L208.33 55.1021C208.216 57.6737 207.675 59.6919 206.707 61.1567ZM224.529 63C224.399 62.7152 224.305 62.235 224.248 61.5596C223.483 62.6826 222.507 63.2441 221.318 63.2441C220.122 63.2441 219.186 62.9105 218.511 62.2432C217.843 61.5677 217.51 60.6196 217.51 59.3989C217.51 58.0562 217.965 56.9901 218.877 56.2007C219.788 55.4113 221.038 55.0085 222.625 54.9922H224.211V53.5884C224.211 52.799 224.036 52.2375 223.687 51.9038C223.337 51.5701 222.804 51.4033 222.087 51.4033C221.436 51.4033 220.907 51.5986 220.5 51.9893C220.094 52.3717 219.89 52.86 219.89 53.4541H217.729C217.729 52.7786 217.929 52.1357 218.328 51.5254C218.726 50.9069 219.264 50.4227 219.939 50.0728C220.614 49.7228 221.367 49.5479 222.197 49.5479C223.548 49.5479 224.574 49.8856 225.273 50.561C225.981 51.2284 226.344 52.2049 226.36 53.4907V60.1558C226.368 61.173 226.506 62.056 226.775 62.8047V63H224.529ZM221.648 61.2788C222.177 61.2788 222.681 61.1323 223.162 60.8394C223.642 60.5464 223.992 60.1802 224.211 59.7407V56.5913H222.991C221.965 56.6076 221.156 56.8395 220.562 57.2871C219.967 57.7266 219.67 58.3451 219.67 59.1426C219.67 59.8913 219.821 60.4365 220.122 60.7783C220.423 61.112 220.932 61.2788 221.648 61.2788ZM239.263 57.0308C239.263 59.1222 238.884 60.6807 238.127 61.7061C237.379 62.7314 236.317 63.2441 234.941 63.2441C233.615 63.2441 232.594 62.7437 231.877 61.7427V68.0781H229.729V49.792H231.682L231.792 51.2568C232.516 50.1175 233.554 49.5479 234.905 49.5479C236.353 49.5479 237.436 50.0524 238.152 51.0615C238.868 52.0706 239.238 53.5802 239.263 55.5903V57.0308ZM237.114 55.7979C237.114 54.3167 236.886 53.2262 236.431 52.5264C235.975 51.8184 235.243 51.4644 234.233 51.4644C233.2 51.4644 232.415 51.9811 231.877 53.0146V59.8872C232.406 60.8963 233.2 61.4009 234.258 61.4009C235.234 61.4009 235.951 61.0509 236.406 60.3511C236.87 59.6431 237.106 58.5648 237.114 57.1162V55.7979ZM248.845 63C248.715 62.7152 248.621 62.235 248.564 61.5596C247.799 62.6826 246.823 63.2441 245.635 63.2441C244.438 63.2441 243.503 62.9105 242.827 62.2432C242.16 61.5677 241.826 60.6196 241.826 59.3989C241.826 58.0562 242.282 56.9901 243.193 56.2007C244.105 55.4113 245.354 55.0085 246.941 54.9922H248.528V53.5884C248.528 52.799 248.353 52.2375 248.003 51.9038C247.653 51.5701 247.12 51.4033 246.404 51.4033C245.753 51.4033 245.224 51.5986 244.817 51.9893C244.41 52.3717 244.207 52.86 244.207 53.4541H242.046C242.046 52.7786 242.245 52.1357 242.644 51.5254C243.043 50.9069 243.58 50.4227 244.255 50.0728C244.931 49.7228 245.684 49.5479 246.514 49.5479C247.865 49.5479 248.89 49.8856 249.59 50.561C250.298 51.2284 250.66 52.2049 250.676 53.4907V60.1558C250.684 61.173 250.823 62.056 251.091 62.8047V63H248.845ZM245.964 61.2788C246.493 61.2788 246.998 61.1323 247.478 60.8394C247.958 60.5464 248.308 60.1802 248.528 59.7407V56.5913H247.307C246.282 56.6076 245.472 56.8395 244.878 57.2871C244.284 57.7266 243.987 58.3451 243.987 59.1426C243.987 59.8913 244.137 60.4365 244.438 60.7783C244.74 61.112 245.248 61.2788 245.964 61.2788Z" fill="white"/>
</svg>
