<svg width="250" height="80" viewBox="0 0 250 80" fill="none" xmlns="http://www.w3.org/2000/svg">
<rect width="80" height="80" rx="40" fill="#486CA3"/>
<path d="M28.084 47.1553H21.0894V52.4775H24.6782C26.2733 52.4857 27.5225 52.9536 28.4258 53.8813C29.3291 54.8009 29.7808 56.0705 29.7808 57.6899C29.7808 59.3175 29.321 60.6115 28.4014 61.5718C27.4899 62.5239 26.2244 63 24.605 63H18.8433V45.2266H28.084V47.1553ZM21.0894 54.4062V61.0835H24.6538C25.5653 61.0835 26.2733 60.7702 26.7778 60.1436C27.2824 59.5169 27.5347 58.6909 27.5347 57.6655C27.5347 56.6564 27.2824 55.863 26.7778 55.2852C26.2814 54.6992 25.5775 54.4062 24.666 54.4062H21.0894ZM39.1558 63C39.0256 62.7152 38.932 62.235 38.875 61.5596C38.11 62.6826 37.1335 63.2441 35.9453 63.2441C34.749 63.2441 33.8132 62.9105 33.1377 62.2432C32.4704 61.5677 32.1367 60.6196 32.1367 59.3989C32.1367 58.0562 32.5924 56.9901 33.5039 56.2007C34.4154 55.4113 35.6646 55.0085 37.2515 54.9922H38.8384V53.5884C38.8384 52.799 38.6634 52.2375 38.3135 51.9038C37.9635 51.5701 37.4305 51.4033 36.7144 51.4033C36.0633 51.4033 35.5343 51.5986 35.1274 51.9893C34.7205 52.3717 34.5171 52.86 34.5171 53.4541H32.3564C32.3564 52.7786 32.5558 52.1357 32.9546 51.5254C33.3534 50.9069 33.8905 50.4227 34.5659 50.0728C35.2414 49.7228 35.9941 49.5479 36.8242 49.5479C38.1751 49.5479 39.2005 49.8856 39.9004 50.561C40.6084 51.2284 40.9705 52.2049 40.9868 53.4907V60.1558C40.995 61.173 41.1333 62.056 41.4019 62.8047V63H39.1558ZM36.2749 61.2788C36.8039 61.2788 37.3084 61.1323 37.7886 60.8394C38.2687 60.5464 38.6187 60.1802 38.8384 59.7407V56.5913H37.6177C36.5923 56.6076 35.7826 56.8395 35.1885 57.2871C34.5944 57.7266 34.2974 58.3451 34.2974 59.1426C34.2974 59.8913 34.4479 60.4365 34.749 60.7783C35.0501 61.112 35.5588 61.2788 36.2749 61.2788ZM48.9336 61.4009C49.6497 61.4009 50.2235 61.1812 50.6548 60.7417C51.0861 60.2941 51.3221 59.6593 51.3628 58.8374H53.4014C53.3525 60.1069 52.9009 61.1608 52.0464 61.999C51.2 62.8291 50.1624 63.2441 48.9336 63.2441C47.2979 63.2441 46.0487 62.7314 45.186 61.7061C44.3315 60.6725 43.9043 59.1385 43.9043 57.104V55.6514C43.9043 53.6576 44.3315 52.1439 45.186 51.1104C46.0405 50.0687 47.2856 49.5479 48.9214 49.5479C50.2723 49.5479 51.3424 49.9751 52.1318 50.8296C52.9294 51.6841 53.3525 52.8519 53.4014 54.333H51.3628C51.314 53.3564 51.078 52.624 50.6548 52.1357C50.2397 51.6475 49.6619 51.4033 48.9214 51.4033C47.9611 51.4033 47.249 51.7207 46.7852 52.3555C46.3213 52.9821 46.0812 54.0156 46.0649 55.4561V57.1406C46.0649 58.695 46.2928 59.7936 46.7485 60.4365C47.2124 61.0794 47.9408 61.4009 48.9336 61.4009ZM60.4814 61.4009C61.1976 61.4009 61.7713 61.1812 62.2026 60.7417C62.634 60.2941 62.87 59.6593 62.9106 58.8374H64.9492C64.9004 60.1069 64.4487 61.1608 63.5942 61.999C62.7479 62.8291 61.7103 63.2441 60.4814 63.2441C58.8457 63.2441 57.5965 62.7314 56.7339 61.7061C55.8794 60.6725 55.4521 59.1385 55.4521 57.104V55.6514C55.4521 53.6576 55.8794 52.1439 56.7339 51.1104C57.5884 50.0687 58.8335 49.5479 60.4692 49.5479C61.8201 49.5479 62.8903 49.9751 63.6797 50.8296C64.4772 51.6841 64.9004 52.8519 64.9492 54.333H62.9106C62.8618 53.3564 62.6258 52.624 62.2026 52.1357C61.7876 51.6475 61.2098 51.4033 60.4692 51.4033C59.509 51.4033 58.7969 51.7207 58.333 52.3555C57.8691 52.9821 57.6291 54.0156 57.6128 55.4561V57.1406C57.6128 58.695 57.8407 59.7936 58.2964 60.4365C58.7603 61.0794 59.4886 61.4009 60.4814 61.4009ZM72.1636 63.2441C70.5197 63.2441 69.2583 62.7559 68.3794 61.7793C67.5005 60.7946 67.0529 59.3542 67.0366 57.458V55.8589C67.0366 53.8895 67.4639 52.3473 68.3184 51.2324C69.181 50.1094 70.3813 49.5479 71.9194 49.5479C73.4657 49.5479 74.6213 50.0402 75.3862 51.0249C76.1512 52.0096 76.5418 53.5436 76.5581 55.627V57.043H69.1851V57.3481C69.1851 58.7642 69.4495 59.7936 69.9785 60.4365C70.5156 61.0794 71.2847 61.4009 72.2856 61.4009C72.9204 61.4009 73.4779 61.2829 73.958 61.0469C74.4463 60.8027 74.902 60.4202 75.3252 59.8994L76.4482 61.2666C75.5124 62.585 74.0841 63.2441 72.1636 63.2441ZM71.9194 51.4033C71.0243 51.4033 70.361 51.7126 69.9297 52.3311C69.4984 52.9414 69.2542 53.8936 69.1973 55.1875H74.3975V54.8945C74.3405 53.6413 74.1126 52.7461 73.7139 52.209C73.3232 51.6719 72.7251 51.4033 71.9194 51.4033ZM86.2993 49.792H88.4478V63H86.2993V53.3687L81.5142 63H79.3535V49.792H81.5142V59.4355L86.2993 49.792ZM87.5688 44.9824C87.5688 45.9671 87.2311 46.7606 86.5557 47.3628C85.8883 47.9569 85.0094 48.2539 83.9189 48.2539C82.8285 48.2539 81.9455 47.9528 81.27 47.3506C80.5946 46.7484 80.2568 45.959 80.2568 44.9824H82.1001C82.1001 45.5521 82.2547 45.9997 82.564 46.3252C82.8732 46.6426 83.3249 46.8013 83.9189 46.8013C84.4886 46.8013 84.9321 46.6426 85.2495 46.3252C85.575 46.0078 85.7378 45.5602 85.7378 44.9824H87.5688ZM101.18 63H99.0312V57.3604H94.2705V63H92.0977V49.792H94.2705V55.5171H99.0312V49.792H101.18V63ZM106.966 54.3452H109.688C110.949 54.3534 111.954 54.7399 112.703 55.5049C113.452 56.2699 113.826 57.3115 113.826 58.6299C113.826 59.9482 113.448 61.0062 112.691 61.8037C111.934 62.5931 110.933 62.9919 109.688 63H104.817V49.792H106.966V54.3452ZM117.854 63H115.694V49.792H117.854V63ZM106.966 56.1885V61.1567H109.651C110.286 61.1567 110.778 60.9411 111.128 60.5098C111.486 60.0785 111.666 59.4803 111.666 58.7153C111.666 57.9666 111.491 57.3604 111.141 56.8965C110.791 56.4326 110.311 56.1966 109.7 56.1885H106.966ZM131.685 55.0166H130V63H127.767V45.2266H130V53.0635H131.368L136.373 45.2266H139.156L133.516 53.8203L139.571 63H136.836L131.685 55.0166ZM150.618 57.0308C150.618 59.1222 150.24 60.6807 149.483 61.7061C148.734 62.7314 147.672 63.2441 146.297 63.2441C144.97 63.2441 143.949 62.7437 143.233 61.7427V68.0781H141.084V49.792H143.038L143.147 51.2568C143.872 50.1175 144.909 49.5479 146.26 49.5479C147.709 49.5479 148.791 50.0524 149.507 51.0615C150.223 52.0706 150.594 53.5802 150.618 55.5903V57.0308ZM148.47 55.7979C148.47 54.3167 148.242 53.2262 147.786 52.5264C147.33 51.8184 146.598 51.4644 145.589 51.4644C144.555 51.4644 143.77 51.9811 143.233 53.0146V59.8872C143.762 60.8963 144.555 61.4009 145.613 61.4009C146.59 61.4009 147.306 61.0509 147.762 60.3511C148.226 59.6431 148.462 58.5648 148.47 57.1162V55.7979ZM160.201 63C160.07 62.7152 159.977 62.235 159.92 61.5596C159.155 62.6826 158.178 63.2441 156.99 63.2441C155.794 63.2441 154.858 62.9105 154.183 62.2432C153.515 61.5677 153.182 60.6196 153.182 59.3989C153.182 58.0562 153.637 56.9901 154.549 56.2007C155.46 55.4113 156.709 55.0085 158.296 54.9922H159.883V53.5884C159.883 52.799 159.708 52.2375 159.358 51.9038C159.008 51.5701 158.475 51.4033 157.759 51.4033C157.108 51.4033 156.579 51.5986 156.172 51.9893C155.765 52.3717 155.562 52.86 155.562 53.4541H153.401C153.401 52.7786 153.601 52.1357 154 51.5254C154.398 50.9069 154.935 50.4227 155.611 50.0728C156.286 49.7228 157.039 49.5479 157.869 49.5479C159.22 49.5479 160.245 49.8856 160.945 50.561C161.653 51.2284 162.015 52.2049 162.032 53.4907V60.1558C162.04 61.173 162.178 62.056 162.447 62.8047V63H160.201ZM157.32 61.2788C157.849 61.2788 158.353 61.1323 158.833 60.8394C159.314 60.5464 159.664 60.1802 159.883 59.7407V56.5913H158.663C157.637 56.6076 156.827 56.8395 156.233 57.2871C155.639 57.7266 155.342 58.3451 155.342 59.1426C155.342 59.8913 155.493 60.4365 155.794 60.7783C156.095 61.112 156.604 61.2788 157.32 61.2788ZM169.979 61.4009C170.695 61.4009 171.268 61.1812 171.7 60.7417C172.131 60.2941 172.367 59.6593 172.408 58.8374H174.446C174.397 60.1069 173.946 61.1608 173.091 61.999C172.245 62.8291 171.207 63.2441 169.979 63.2441C168.343 63.2441 167.094 62.7314 166.231 61.7061C165.376 60.6725 164.949 59.1385 164.949 57.104V55.6514C164.949 53.6576 165.376 52.1439 166.231 51.1104C167.085 50.0687 168.331 49.5479 169.966 49.5479C171.317 49.5479 172.387 49.9751 173.177 50.8296C173.974 51.6841 174.397 52.8519 174.446 54.333H172.408C172.359 53.3564 172.123 52.624 171.7 52.1357C171.285 51.6475 170.707 51.4033 169.966 51.4033C169.006 51.4033 168.294 51.7207 167.83 52.3555C167.366 52.9821 167.126 54.0156 167.11 55.4561V57.1406C167.11 58.695 167.338 59.7936 167.793 60.4365C168.257 61.0794 168.986 61.4009 169.979 61.4009ZM186.214 63H184.065V57.3604H179.305V63H177.132V49.792H179.305V55.5171H184.065V49.792H186.214V63ZM189.205 55.7856C189.205 53.8651 189.668 52.3473 190.596 51.2324C191.532 50.1094 192.765 49.5479 194.295 49.5479C195.825 49.5479 197.054 50.0931 197.981 51.1836C198.917 52.2741 199.397 53.7593 199.422 55.6392V57.0308C199.422 58.9432 198.958 60.4569 198.03 61.5718C197.103 62.6867 195.866 63.2441 194.319 63.2441C192.789 63.2441 191.561 62.703 190.633 61.6206C189.713 60.5382 189.237 59.0734 189.205 57.2261V55.7856ZM191.365 57.0308C191.365 58.3898 191.63 59.46 192.159 60.2412C192.696 61.0143 193.416 61.4009 194.319 61.4009C196.224 61.4009 197.204 60.0256 197.261 57.2749V55.7856C197.261 54.4347 196.993 53.3687 196.456 52.5874C195.918 51.798 195.198 51.4033 194.295 51.4033C193.408 51.4033 192.696 51.798 192.159 52.5874C191.63 53.3687 191.365 54.4307 191.365 55.7734V57.0308ZM201.302 61.1567L201.949 60.229C202.649 59.1548 203.051 57.5719 203.157 55.4805L203.34 49.792H210.713V61.1567H212.251V66.8818H210.091V63H202.583V66.8818H200.411L200.423 61.1567H201.302ZM203.707 61.1567H208.565V51.8794H205.44L205.33 55.1021C205.216 57.6737 204.675 59.6919 203.707 61.1567ZM221.529 63C221.399 62.7152 221.305 62.235 221.248 61.5596C220.483 62.6826 219.507 63.2441 218.318 63.2441C217.122 63.2441 216.186 62.9105 215.511 62.2432C214.843 61.5677 214.51 60.6196 214.51 59.3989C214.51 58.0562 214.965 56.9901 215.877 56.2007C216.788 55.4113 218.038 55.0085 219.625 54.9922H221.211V53.5884C221.211 52.799 221.036 52.2375 220.687 51.9038C220.337 51.5701 219.804 51.4033 219.087 51.4033C218.436 51.4033 217.907 51.5986 217.5 51.9893C217.094 52.3717 216.89 52.86 216.89 53.4541H214.729C214.729 52.7786 214.929 52.1357 215.328 51.5254C215.726 50.9069 216.264 50.4227 216.939 50.0728C217.614 49.7228 218.367 49.5479 219.197 49.5479C220.548 49.5479 221.574 49.8856 222.273 50.561C222.981 51.2284 223.344 52.2049 223.36 53.4907V60.1558C223.368 61.173 223.506 62.056 223.775 62.8047V63H221.529ZM218.648 61.2788C219.177 61.2788 219.681 61.1323 220.162 60.8394C220.642 60.5464 220.992 60.1802 221.211 59.7407V56.5913H219.991C218.965 56.6076 218.156 56.8395 217.562 57.2871C216.967 57.7266 216.67 58.3451 216.67 59.1426C216.67 59.8913 216.821 60.4365 217.122 60.7783C217.423 61.112 217.932 61.2788 218.648 61.2788ZM236.263 57.0308C236.263 59.1222 235.884 60.6807 235.127 61.7061C234.379 62.7314 233.317 63.2441 231.941 63.2441C230.615 63.2441 229.594 62.7437 228.877 61.7427V68.0781H226.729V49.792H228.682L228.792 51.2568C229.516 50.1175 230.554 49.5479 231.905 49.5479C233.353 49.5479 234.436 50.0524 235.152 51.0615C235.868 52.0706 236.238 53.5802 236.263 55.5903V57.0308ZM234.114 55.7979C234.114 54.3167 233.886 53.2262 233.431 52.5264C232.975 51.8184 232.243 51.4644 231.233 51.4644C230.2 51.4644 229.415 51.9811 228.877 53.0146V59.8872C229.406 60.8963 230.2 61.4009 231.258 61.4009C232.234 61.4009 232.951 61.0509 233.406 60.3511C233.87 59.6431 234.106 58.5648 234.114 57.1162V55.7979ZM245.845 63C245.715 62.7152 245.621 62.235 245.564 61.5596C244.799 62.6826 243.823 63.2441 242.635 63.2441C241.438 63.2441 240.503 62.9105 239.827 62.2432C239.16 61.5677 238.826 60.6196 238.826 59.3989C238.826 58.0562 239.282 56.9901 240.193 56.2007C241.105 55.4113 242.354 55.0085 243.941 54.9922H245.528V53.5884C245.528 52.799 245.353 52.2375 245.003 51.9038C244.653 51.5701 244.12 51.4033 243.404 51.4033C242.753 51.4033 242.224 51.5986 241.817 51.9893C241.41 52.3717 241.207 52.86 241.207 53.4541H239.046C239.046 52.7786 239.245 52.1357 239.644 51.5254C240.043 50.9069 240.58 50.4227 241.255 50.0728C241.931 49.7228 242.684 49.5479 243.514 49.5479C244.865 49.5479 245.89 49.8856 246.59 50.561C247.298 51.2284 247.66 52.2049 247.676 53.4907V60.1558C247.684 61.173 247.823 62.056 248.091 62.8047V63H245.845ZM242.964 61.2788C243.493 61.2788 243.998 61.1323 244.478 60.8394C244.958 60.5464 245.308 60.1802 245.528 59.7407V56.5913H244.307C243.282 56.6076 242.472 56.8395 241.878 57.2871C241.284 57.7266 240.987 58.3451 240.987 59.1426C240.987 59.8913 241.137 60.4365 241.438 60.7783C241.74 61.112 242.248 61.2788 242.964 61.2788Z" fill="black"/>
</svg>
