<svg width="287" height="98" viewBox="0 0 287 98" fill="none" xmlns="http://www.w3.org/2000/svg">
<rect width="287" height="98" fill="white"/>
<path d="M17.2852 82V56.4062H26.25C29.3555 56.4062 31.7109 57.0039 33.3164 58.1992C34.9219 59.3828 35.7246 61.123 35.7246 63.4199C35.7246 64.6738 35.4023 65.7812 34.7578 66.7422C34.1133 67.6914 33.2168 68.3887 32.0684 68.834C33.3809 69.1621 34.4121 69.8242 35.1621 70.8203C35.9238 71.8164 36.3047 73.0352 36.3047 74.4766C36.3047 76.9375 35.5195 78.8008 33.9492 80.0664C32.3789 81.332 30.1406 81.9766 27.2344 82H17.2852ZM22.5586 70.8555V77.7637H27.0762C28.3184 77.7637 29.2852 77.4707 29.9766 76.8848C30.6797 76.2871 31.0312 75.4668 31.0312 74.4238C31.0312 72.0801 29.8184 70.8906 27.3926 70.8555H22.5586ZM22.5586 67.1289H26.4609C29.1211 67.082 30.4512 66.0215 30.4512 63.9473C30.4512 62.7871 30.1113 61.9551 29.4316 61.4512C28.7637 60.9355 27.7031 60.6777 26.25 60.6777H22.5586V67.1289ZM48.6973 82.3516C45.9082 82.3516 43.6348 81.4961 41.877 79.7852C40.1309 78.0742 39.2578 75.7949 39.2578 72.9473V72.4551C39.2578 70.5449 39.627 68.8398 40.3652 67.3398C41.1035 65.8281 42.1465 64.668 43.4941 63.8594C44.8535 63.0391 46.4004 62.6289 48.1348 62.6289C50.7363 62.6289 52.7812 63.4492 54.2695 65.0898C55.7695 66.7305 56.5195 69.0566 56.5195 72.0684V74.1426H44.4082C44.5723 75.3848 45.0645 76.3809 45.8848 77.1309C46.7168 77.8809 47.7656 78.2559 49.0312 78.2559C50.9883 78.2559 52.5176 77.5469 53.6191 76.1289L56.1152 78.9238C55.3535 80.002 54.3223 80.8457 53.0215 81.4551C51.7207 82.0527 50.2793 82.3516 48.6973 82.3516ZM48.1172 66.7422C47.1094 66.7422 46.2891 67.082 45.6562 67.7617C45.0352 68.4414 44.6367 69.4141 44.4609 70.6797H51.5273V70.2754C51.5039 69.1504 51.1992 68.2832 50.6133 67.6738C50.0273 67.0527 49.1953 66.7422 48.1172 66.7422ZM70.4414 82C70.207 81.543 70.0371 80.9746 69.9316 80.2949C68.7012 81.666 67.1016 82.3516 65.1328 82.3516C63.2695 82.3516 61.7227 81.8125 60.4922 80.7344C59.2734 79.6562 58.6641 78.2969 58.6641 76.6562C58.6641 74.6406 59.4082 73.0938 60.8965 72.0156C62.3965 70.9375 64.5586 70.3926 67.3828 70.3809H69.7207V69.291C69.7207 68.4121 69.4922 67.709 69.0352 67.1816C68.5898 66.6543 67.8809 66.3906 66.9082 66.3906C66.0527 66.3906 65.3789 66.5957 64.8867 67.0059C64.4062 67.416 64.166 67.9785 64.166 68.6934H59.0859C59.0859 67.5918 59.4258 66.5723 60.1055 65.6348C60.7852 64.6973 61.7461 63.9648 62.9883 63.4375C64.2305 62.8984 65.625 62.6289 67.1719 62.6289C69.5156 62.6289 71.373 63.2207 72.7441 64.4043C74.127 65.5762 74.8184 67.2285 74.8184 69.3613V77.6055C74.8301 79.4102 75.082 80.7754 75.5742 81.7012V82H70.4414ZM66.2402 78.4668C66.9902 78.4668 67.6816 78.3027 68.3145 77.9746C68.9473 77.6348 69.416 77.1836 69.7207 76.6211V73.3516H67.8223C65.2793 73.3516 63.9258 74.2305 63.7617 75.9883L63.7441 76.2871C63.7441 76.9199 63.9668 77.4414 64.4121 77.8516C64.8574 78.2617 65.4668 78.4668 66.2402 78.4668ZM90.1113 80.0664C88.8574 81.5898 87.123 82.3516 84.9082 82.3516C82.8691 82.3516 81.3105 81.7656 80.2324 80.5938C79.166 79.4219 78.6211 77.7051 78.5977 75.4434V62.9805H83.6777V75.2676C83.6777 77.248 84.5801 78.2383 86.3848 78.2383C88.1074 78.2383 89.291 77.6406 89.9355 76.4453V62.9805H95.0332V82H90.252L90.1113 80.0664ZM104.947 58.3047V62.9805H108.199V66.707H104.947V76.1992C104.947 76.9023 105.082 77.4062 105.352 77.7109C105.621 78.0156 106.137 78.168 106.898 78.168C107.461 78.168 107.959 78.127 108.393 78.0449V81.8945C107.396 82.1992 106.371 82.3516 105.316 82.3516C101.754 82.3516 99.9375 80.5527 99.8672 76.9551V66.707H97.0898V62.9805H99.8672V58.3047H104.947ZM122.42 80.0664C121.166 81.5898 119.432 82.3516 117.217 82.3516C115.178 82.3516 113.619 81.7656 112.541 80.5938C111.475 79.4219 110.93 77.7051 110.906 75.4434V62.9805H115.986V75.2676C115.986 77.248 116.889 78.2383 118.693 78.2383C120.416 78.2383 121.6 77.6406 122.244 76.4453V62.9805H127.342V82H122.561L122.42 80.0664ZM146.906 71.541H136.781V82H131.508V56.4062H148.172V60.6777H136.781V67.2871H146.906V71.541ZM156.258 82H151.16V55H156.258V82ZM159.668 72.3145C159.668 70.4277 160.031 68.7461 160.758 67.2695C161.484 65.793 162.527 64.6504 163.887 63.8418C165.258 63.0332 166.846 62.6289 168.65 62.6289C171.217 62.6289 173.309 63.4141 174.926 64.9844C176.555 66.5547 177.463 68.6875 177.65 71.3828L177.686 72.6836C177.686 75.6016 176.871 77.9453 175.242 79.7148C173.613 81.4727 171.428 82.3516 168.686 82.3516C165.943 82.3516 163.752 81.4727 162.111 79.7148C160.482 77.957 159.668 75.5664 159.668 72.543V72.3145ZM164.748 72.6836C164.748 74.4883 165.088 75.8711 165.768 76.832C166.447 77.7812 167.42 78.2559 168.686 78.2559C169.916 78.2559 170.877 77.7871 171.568 76.8496C172.26 75.9004 172.605 74.3887 172.605 72.3145C172.605 70.5449 172.26 69.1738 171.568 68.2012C170.877 67.2285 169.904 66.7422 168.65 66.7422C167.408 66.7422 166.447 67.2285 165.768 68.2012C165.088 69.1621 164.748 70.6562 164.748 72.6836ZM197.355 75.0918L199.852 62.9805H204.756L199.904 82H195.65L192.047 70.0293L188.443 82H184.207L179.355 62.9805H184.26L186.738 75.0742L190.219 62.9805H193.893L197.355 75.0918ZM216.041 82.3516C213.252 82.3516 210.979 81.4961 209.221 79.7852C207.475 78.0742 206.602 75.7949 206.602 72.9473V72.4551C206.602 70.5449 206.971 68.8398 207.709 67.3398C208.447 65.8281 209.49 64.668 210.838 63.8594C212.197 63.0391 213.744 62.6289 215.479 62.6289C218.08 62.6289 220.125 63.4492 221.613 65.0898C223.113 66.7305 223.863 69.0566 223.863 72.0684V74.1426H211.752C211.916 75.3848 212.408 76.3809 213.229 77.1309C214.061 77.8809 215.109 78.2559 216.375 78.2559C218.332 78.2559 219.861 77.5469 220.963 76.1289L223.459 78.9238C222.697 80.002 221.666 80.8457 220.365 81.4551C219.064 82.0527 217.623 82.3516 216.041 82.3516ZM215.461 66.7422C214.453 66.7422 213.633 67.082 213 67.7617C212.379 68.4414 211.98 69.4141 211.805 70.6797H218.871V70.2754C218.848 69.1504 218.543 68.2832 217.957 67.6738C217.371 67.0527 216.539 66.7422 215.461 66.7422ZM237.451 67.7441C236.76 67.6504 236.15 67.6035 235.623 67.6035C233.701 67.6035 232.441 68.2539 231.844 69.5547V82H226.764V62.9805H231.562L231.703 65.248C232.723 63.502 234.135 62.6289 235.939 62.6289C236.502 62.6289 237.029 62.7051 237.521 62.8574L237.451 67.7441ZM250.213 76.7441C250.213 76.123 249.902 75.6367 249.281 75.2852C248.672 74.9219 247.688 74.5996 246.328 74.3184C241.805 73.3691 239.543 71.4473 239.543 68.5527C239.543 66.8652 240.24 65.459 241.635 64.334C243.041 63.1973 244.875 62.6289 247.137 62.6289C249.551 62.6289 251.479 63.1973 252.92 64.334C254.373 65.4707 255.1 66.9473 255.1 68.7637H250.02C250.02 68.0371 249.785 67.4395 249.316 66.9707C248.848 66.4902 248.115 66.25 247.119 66.25C246.264 66.25 245.602 66.4434 245.133 66.8301C244.664 67.2168 244.43 67.709 244.43 68.3066C244.43 68.8691 244.693 69.3262 245.221 69.6777C245.76 70.0176 246.662 70.3164 247.928 70.5742C249.193 70.8203 250.26 71.1016 251.127 71.418C253.811 72.4023 255.152 74.1074 255.152 76.5332C255.152 78.2676 254.408 79.6738 252.92 80.752C251.432 81.8184 249.51 82.3516 247.154 82.3516C245.561 82.3516 244.143 82.0703 242.9 81.5078C241.67 80.9336 240.703 80.1543 240 79.1699C239.297 78.1738 238.945 77.1016 238.945 75.9531H243.762C243.809 76.8555 244.143 77.5469 244.764 78.0273C245.385 78.5078 246.217 78.748 247.26 78.748C248.232 78.748 248.965 78.5664 249.457 78.2031C249.961 77.8281 250.213 77.3418 250.213 76.7441Z" fill="#B9989C"/>
</svg>
