<svg width="387" height="38" viewBox="0 0 387 38" fill="none" xmlns="http://www.w3.org/2000/svg">
<path d="M20.592 17.86C22.128 18.316 23.304 19.06 24.12 20.092C24.936 21.124 25.344 22.396 25.344 23.908C25.344 26.14 24.492 27.88 22.788 29.128C21.108 30.376 18.696 31 15.552 31H3.132V5.8H14.868C17.796 5.8 20.076 6.364 21.708 7.492C23.34 8.62 24.156 10.228 24.156 12.316C24.156 13.564 23.844 14.668 23.22 15.628C22.596 16.564 21.72 17.308 20.592 17.86ZM8.928 16.24H14.364C15.636 16.24 16.596 15.988 17.244 15.484C17.892 14.956 18.216 14.188 18.216 13.18C18.216 12.196 17.88 11.44 17.208 10.912C16.56 10.384 15.612 10.12 14.364 10.12H8.928V16.24ZM15.336 26.68C18.072 26.68 19.44 25.6 19.44 23.44C19.44 21.352 18.072 20.308 15.336 20.308H8.928V26.68H15.336ZM48.1002 11.632V31H42.4842V16.24H36.3642L36.1842 19.66C36.0882 22.204 35.8482 24.316 35.4642 25.996C35.0802 27.676 34.4562 28.996 33.5922 29.956C32.7282 30.916 31.5282 31.396 29.9922 31.396C29.1762 31.396 28.2042 31.252 27.0762 30.964L27.3642 26.356C27.7482 26.404 28.0242 26.428 28.1922 26.428C29.0322 26.428 29.6562 26.128 30.0642 25.528C30.4962 24.904 30.7842 24.124 30.9282 23.188C31.0722 22.228 31.1802 20.968 31.2522 19.408L31.5402 11.632H48.1002ZM61.0248 11.344C64.0248 11.344 66.3288 12.064 67.9368 13.504C69.5448 14.92 70.3488 17.068 70.3488 19.948V31H65.0928V28.588C64.0368 30.388 62.0688 31.288 59.1888 31.288C57.7008 31.288 56.4048 31.036 55.3008 30.532C54.2208 30.028 53.3928 29.332 52.8168 28.444C52.2408 27.556 51.9528 26.548 51.9528 25.42C51.9528 23.62 52.6248 22.204 53.9688 21.172C55.3368 20.14 57.4368 19.624 60.2688 19.624H64.7328C64.7328 18.4 64.3608 17.464 63.6168 16.816C62.8728 16.144 61.7568 15.808 60.2688 15.808C59.2368 15.808 58.2168 15.976 57.2088 16.312C56.2248 16.624 55.3848 17.056 54.6888 17.608L52.6728 13.684C53.7288 12.94 54.9888 12.364 56.4528 11.956C57.9408 11.548 59.4648 11.344 61.0248 11.344ZM60.5928 27.508C61.5528 27.508 62.4048 27.292 63.1488 26.86C63.8928 26.404 64.4208 25.744 64.7328 24.88V22.9H60.8808C58.5768 22.9 57.4248 23.656 57.4248 25.168C57.4248 25.888 57.7008 26.464 58.2528 26.896C58.8288 27.304 59.6088 27.508 60.5928 27.508ZM96.9353 26.392V35.176H91.7153V31H78.1073V35.176H72.8873V26.392H73.6793C74.8793 26.368 75.7073 25.66 76.1633 24.268C76.6193 22.876 76.9073 20.896 77.0273 18.328L77.2793 11.632H94.1633V26.392H96.9353ZM82.1033 18.724C82.0313 20.692 81.8753 22.3 81.6353 23.548C81.4193 24.796 80.9993 25.744 80.3753 26.392H88.5473V16.24H82.2113L82.1033 18.724ZM100.47 11.632H106.05V23.152L115.482 11.632H120.63V31H115.05V19.48L105.654 31H100.47V11.632ZM144.928 31V19.408L139.132 29.128H136.756L131.104 19.372V31H126.028V11.632H131.896L138.088 22.828L144.676 11.632H149.932L150.004 31H144.928ZM155.384 11.632H160.964V23.152L170.396 11.632H175.544V31H169.964V19.48L160.568 31H155.384V11.632ZM192.354 11.344C194.154 11.344 195.786 11.764 197.25 12.604C198.738 13.42 199.902 14.584 200.742 16.096C201.582 17.584 202.002 19.324 202.002 21.316C202.002 23.308 201.582 25.06 200.742 26.572C199.902 28.06 198.738 29.224 197.25 30.064C195.786 30.88 194.154 31.288 192.354 31.288C189.882 31.288 187.938 30.508 186.522 28.948V37.984H180.906V11.632H186.27V13.864C187.662 12.184 189.69 11.344 192.354 11.344ZM191.382 26.68C192.822 26.68 193.998 26.2 194.91 25.24C195.846 24.256 196.314 22.948 196.314 21.316C196.314 19.684 195.846 18.388 194.91 17.428C193.998 16.444 192.822 15.952 191.382 15.952C189.942 15.952 188.754 16.444 187.818 17.428C186.906 18.388 186.45 19.684 186.45 21.316C186.45 22.948 186.906 24.256 187.818 25.24C188.754 26.2 189.942 26.68 191.382 26.68ZM227.474 5.8C229.706 5.8 231.638 6.172 233.27 6.916C234.926 7.66 236.198 8.716 237.086 10.084C237.974 11.452 238.418 13.072 238.418 14.944C238.418 16.792 237.974 18.412 237.086 19.804C236.198 21.172 234.926 22.228 233.27 22.972C231.638 23.692 229.706 24.052 227.474 24.052H222.398V31H216.566V5.8H227.474ZM227.15 19.3C228.902 19.3 230.234 18.928 231.146 18.184C232.058 17.416 232.514 16.336 232.514 14.944C232.514 13.528 232.058 12.448 231.146 11.704C230.234 10.936 228.902 10.552 227.15 10.552H222.398V19.3H227.15ZM250.87 31.288C248.83 31.288 246.994 30.868 245.362 30.028C243.754 29.164 242.494 27.976 241.582 26.464C240.67 24.952 240.214 23.236 240.214 21.316C240.214 19.396 240.67 17.68 241.582 16.168C242.494 14.656 243.754 13.48 245.362 12.64C246.994 11.776 248.83 11.344 250.87 11.344C252.91 11.344 254.734 11.776 256.342 12.64C257.95 13.48 259.21 14.656 260.122 16.168C261.034 17.68 261.49 19.396 261.49 21.316C261.49 23.236 261.034 24.952 260.122 26.464C259.21 27.976 257.95 29.164 256.342 30.028C254.734 30.868 252.91 31.288 250.87 31.288ZM250.87 26.68C252.31 26.68 253.486 26.2 254.398 25.24C255.334 24.256 255.802 22.948 255.802 21.316C255.802 19.684 255.334 18.388 254.398 17.428C253.486 16.444 252.31 15.952 250.87 15.952C249.43 15.952 248.242 16.444 247.306 17.428C246.37 18.388 245.902 19.684 245.902 21.316C245.902 22.948 246.37 24.256 247.306 25.24C248.242 26.2 249.43 26.68 250.87 26.68ZM280.868 16.24H270.932V31H265.352V11.632H280.868V16.24ZM292.108 31.288C290.068 31.288 288.232 30.868 286.6 30.028C284.992 29.164 283.732 27.976 282.82 26.464C281.908 24.952 281.452 23.236 281.452 21.316C281.452 19.396 281.908 17.68 282.82 16.168C283.732 14.656 284.992 13.48 286.6 12.64C288.232 11.776 290.068 11.344 292.108 11.344C294.148 11.344 295.972 11.776 297.58 12.64C299.188 13.48 300.448 14.656 301.36 16.168C302.272 17.68 302.728 19.396 302.728 21.316C302.728 23.236 302.272 24.952 301.36 26.464C300.448 27.976 299.188 29.164 297.58 30.028C295.972 30.868 294.148 31.288 292.108 31.288ZM292.108 26.68C293.548 26.68 294.724 26.2 295.636 25.24C296.572 24.256 297.04 22.948 297.04 21.316C297.04 19.684 296.572 18.388 295.636 17.428C294.724 16.444 293.548 15.952 292.108 15.952C290.668 15.952 289.48 16.444 288.544 17.428C287.608 18.388 287.14 19.684 287.14 21.316C287.14 22.948 287.608 24.256 288.544 25.24C289.48 26.2 290.668 26.68 292.108 26.68ZM325.181 23.656H322.481V31H316.937V23.656H314.237L310.133 31H303.509L309.593 20.992L303.941 11.632H309.881L314.165 19.156H316.937V11.632H322.481V19.156H325.217L329.537 11.632H335.477L329.825 20.992L335.945 31H329.285L325.181 23.656ZM338.864 11.632H344.444V23.152L353.876 11.632H359.024V31H353.444V19.48L344.048 31H338.864V11.632ZM364.423 11.632H370.003V19.192H378.427V11.632H384.043V31H378.427V23.764H370.003V31H364.423V11.632Z" fill="black"/>
<rect x="8" y="10" width="12" height="18" fill="black"/>
<rect x="221" y="10" width="12" height="10" fill="black"/>
</svg>
