<svg width="100" height="98" viewBox="0 0 100 98" fill="none" xmlns="http://www.w3.org/2000/svg">
<rect y="0.753418" width="100" height="97.0447" rx="48.5223" fill="#1DE9B6"/>
<path d="M65.75 37.25H34.25C32.8003 37.25 31.625 38.4253 31.625 39.875V60.875C31.625 62.3247 32.8003 63.5 34.25 63.5H65.75C67.1997 63.5 68.375 62.3247 68.375 60.875V39.875C68.375 38.4253 67.1997 37.25 65.75 37.25Z" stroke="white" stroke-width="2" stroke-linejoin="round"/>
<path d="M53.9375 68.75L53.2812 63.5H46.7188L46.0625 68.75H53.9375Z" fill="white" stroke="white" stroke-width="2" stroke-linecap="round" stroke-linejoin="round"/>
<path d="M59.1875 68.75H40.8125" stroke="white" stroke-width="2" stroke-linecap="round" stroke-linejoin="round"/>
<path d="M31.625 56.9375V60.875C31.6269 61.5706 31.9041 62.2371 32.396 62.729C32.8879 63.2209 33.5544 63.4981 34.25 63.5H65.75C66.4456 63.4981 67.1121 63.2209 67.604 62.729C68.0959 62.2371 68.3731 61.5706 68.375 60.875V56.9375H31.625ZM50 62.1875C49.7404 62.1875 49.4867 62.1105 49.2708 61.9663C49.055 61.8221 48.8867 61.6171 48.7874 61.3773C48.6881 61.1374 48.6621 60.8735 48.7127 60.6189C48.7634 60.3643 48.8884 60.1305 49.0719 59.9469C49.2555 59.7634 49.4893 59.6384 49.7439 59.5877C49.9985 59.5371 50.2624 59.5631 50.5023 59.6624C50.7421 59.7617 50.9471 59.93 51.0913 60.1458C51.2355 60.3617 51.3125 60.6154 51.3125 60.875C51.3125 61.2231 51.1742 61.5569 50.9281 61.8031C50.6819 62.0492 50.3481 62.1875 50 62.1875Z" fill="white"/>
</svg>
