<svg width="100" height="98" viewBox="0 0 100 98" fill="none" xmlns="http://www.w3.org/2000/svg">
<rect y="0.753418" width="100" height="97.0447" rx="48.5223" fill="#1DE9B6"/>
<path d="M49.1257 58.5402C48.9887 58.5408 48.8524 58.5195 48.7221 58.4771C48.4878 58.4013 48.2795 58.2611 48.1211 58.0725C47.9627 57.8839 47.8605 57.6546 47.8263 57.4107C47.6499 56.1802 46.1898 54.7479 44.8223 54.4699C44.5965 54.4232 44.387 54.3178 44.2149 54.1644C44.0427 54.0109 43.914 53.8149 43.8418 53.5959C43.7695 53.3769 43.7562 53.1428 43.8032 52.917C43.8502 52.6913 43.9558 52.4819 44.1095 52.31L61.4255 33.0244C61.441 33.0064 61.4574 32.9892 61.4739 32.9727C62.3437 32.1053 63.5221 31.6182 64.7506 31.6182C65.9791 31.6182 67.1574 32.1053 68.0273 32.9727V32.9727C68.8944 33.8404 69.3823 35.0164 69.384 36.2431C69.3856 37.4698 68.9011 38.6471 68.0364 39.5172L50.0715 58.1383C49.949 58.2655 49.8021 58.3666 49.6396 58.4357C49.4771 58.5048 49.3023 58.5403 49.1257 58.5402V58.5402Z" fill="white"/>
<path d="M39.8347 68.384C37.1982 68.384 34.4657 66.9985 32.8743 64.8567C32.7293 64.6614 32.6413 64.4296 32.6204 64.1873C32.5994 63.9449 32.6462 63.7015 32.7555 63.4842C32.8649 63.2669 33.0324 63.0842 33.2395 62.9566C33.4466 62.829 33.6851 62.7615 33.9284 62.7616C34.3665 62.7616 35.569 62.3621 35.569 61.0742C35.569 57.8692 38.1448 55.2615 41.3112 55.2615C44.4776 55.2615 47.0534 57.8692 47.0534 61.0742C47.0534 65.1036 43.8148 68.384 39.8347 68.384Z" fill="white"/>
</svg>
