<svg width="100" height="98" viewBox="0 0 100 98" fill="none" xmlns="http://www.w3.org/2000/svg">
<rect y="0.753418" width="100" height="97.0447" rx="48.5223" fill="#1DE9B6"/>
<path d="M64.4638 37.2838C64.4638 37.2838 57.3566 46.1251 50.6875 46.1251H37.5625C37.2144 46.1251 36.8806 46.2634 36.6344 46.5095C36.3883 46.7557 36.25 47.0895 36.25 47.4376V55.3126C36.25 55.6607 36.3883 55.9945 36.6344 56.2407C36.8806 56.4868 37.2144 56.6251 37.5625 56.6251H50.6875C57.3566 56.6251 64.4638 65.5034 64.4638 65.5034C64.9609 66.1596 66.4375 65.7101 66.4375 64.697V38.0861C66.4375 37.0762 65.043 36.5422 64.4638 37.2838Z" stroke="white" stroke-width="3" stroke-linecap="round" stroke-linejoin="round"/>
<path d="M36.25 54C36.25 54 34.9375 53.5078 34.9375 51.375C34.9375 49.2422 36.25 48.75 36.25 48.75" stroke="white" stroke-width="3" stroke-linecap="round" stroke-linejoin="round"/>
<path d="M67.75 53.1797C67.75 53.1797 69.0625 52.8245 69.0625 51.375C69.0625 49.9255 67.75 49.5703 67.75 49.5703" stroke="white" stroke-width="3" stroke-linecap="round" stroke-linejoin="round"/>
<path d="M52 46.125V56.625" stroke="white" stroke-width="3" stroke-linecap="round" stroke-linejoin="round"/>
<path d="M40.1875 46.125V56.625" stroke="white" stroke-width="3" stroke-linecap="round" stroke-linejoin="round"/>
<path d="M42.8125 56.625V70.4062C42.8125 70.5803 42.8816 70.7472 43.0047 70.8703C43.1278 70.9934 43.2947 71.0625 43.4688 71.0625H47.8164C48.022 71.0626 48.2248 71.0143 48.4083 70.9217C48.5918 70.829 48.751 70.6945 48.8731 70.5291C48.9951 70.3636 49.0766 70.1718 49.1109 69.9691C49.1452 69.7664 49.1314 69.5584 49.0707 69.362C48.3832 67.157 46.75 64.6706 46.75 60.5625H48.0625C48.4106 60.5625 48.7444 60.4242 48.9906 60.1781C49.2367 59.9319 49.375 59.5981 49.375 59.25V57.9375C49.375 57.5894 49.2367 57.2556 48.9906 57.0094C48.7444 56.7633 48.4106 56.625 48.0625 56.625H46.75" stroke="white" stroke-width="3" stroke-linecap="round" stroke-linejoin="round"/>
</svg>
