<svg width="223" height="486" viewBox="0 0 223 486" fill="none" xmlns="http://www.w3.org/2000/svg">
<path fill-rule="evenodd" clip-rule="evenodd" d="M220.044 2.74097C226.172 8.86903 221.679 23.2973 210.009 34.9673C198.339 46.6374 183.911 51.13 177.783 45.002C171.654 38.8739 176.147 24.4457 187.817 12.7756C199.487 1.10557 213.915 -3.3871 220.044 2.74097ZM158.499 88.9969C170.169 77.3269 174.661 62.8986 168.533 56.7706C162.405 50.6425 147.977 55.1352 136.307 66.8052C124.637 78.4753 120.144 92.9035 126.272 99.0316C132.4 105.16 146.828 100.667 158.499 88.9969ZM117.023 110.799C123.151 116.927 118.658 131.356 106.988 143.026C95.318 154.696 80.8898 159.188 74.7617 153.06C68.6336 146.932 73.1263 132.504 84.7963 120.834C96.4664 109.164 110.895 104.671 117.023 110.799ZM55.4778 197.056C67.1479 185.385 71.6405 170.957 65.5125 164.829C59.3844 158.701 44.9562 163.194 33.2861 174.864C21.6161 186.534 17.1234 200.962 23.2515 207.09C29.3795 213.218 43.8077 208.726 55.4778 197.056ZM3.96732 251.085C15.6374 239.415 20.13 224.987 14.002 218.859C7.8739 212.731 -6.55433 217.223 -18.2244 228.893C-29.8944 240.563 -34.3871 254.992 -28.259 261.12C-22.131 267.248 -7.70274 262.755 3.96732 251.085ZM220.044 76.475C226.172 82.6031 221.679 97.0313 210.009 108.701C198.339 120.371 183.911 124.864 177.783 118.736C171.655 112.608 176.147 98.1797 187.817 86.5097C199.487 74.8396 213.916 70.347 220.044 76.475ZM158.499 162.731C170.169 151.061 174.661 136.633 168.533 130.505C162.405 124.377 147.977 128.87 136.307 140.54C124.637 152.21 120.144 166.638 126.272 172.766C132.4 178.894 146.829 174.401 158.499 162.731ZM117.023 184.534C123.151 190.662 118.658 205.09 106.988 216.76C95.3182 228.43 80.8899 232.923 74.7619 226.795C68.6338 220.667 73.1265 206.238 84.7965 194.568C96.4666 182.898 110.895 178.406 117.023 184.534ZM55.4779 270.79C67.148 259.12 71.6406 244.692 65.5126 238.564C59.3845 232.436 44.9563 236.929 33.2862 248.599C21.6162 260.269 17.1235 274.697 23.2516 280.825C29.3797 286.953 43.8079 282.46 55.4779 270.79ZM3.96751 324.82C15.6376 313.15 20.1302 298.721 14.0022 292.593C7.8741 286.465 -6.55413 290.958 -18.2242 302.628C-29.8942 314.298 -34.3869 328.726 -28.2588 334.854C-22.1308 340.982 -7.70254 336.49 3.96751 324.82ZM210.009 182.436C221.679 170.766 226.172 156.338 220.044 150.21C213.916 144.082 199.487 148.574 187.817 160.244C176.147 171.914 171.655 186.343 177.783 192.471C183.911 198.599 198.339 194.106 210.009 182.436ZM168.533 204.24C174.661 210.368 170.169 224.796 158.499 236.466C146.828 248.136 132.4 252.629 126.272 246.501C120.144 240.373 124.637 225.944 136.307 214.274C147.977 202.604 162.405 198.112 168.533 204.24ZM106.988 290.495C118.658 278.825 123.151 264.397 117.023 258.269C110.895 252.141 96.4666 256.633 84.7965 268.303C73.1265 279.973 68.6338 294.402 74.7619 300.53C80.8899 306.658 95.3182 302.165 106.988 290.495ZM65.5126 312.299C71.6406 318.427 67.148 332.855 55.4779 344.525C43.8079 356.195 29.3796 360.688 23.2516 354.56C17.1235 348.432 21.6162 334.003 33.2862 322.333C44.9563 310.663 59.3845 306.171 65.5126 312.299ZM14.0021 366.328C20.1302 372.456 15.6376 386.884 3.9675 398.554C-7.70255 410.224 -22.1308 414.717 -28.2588 408.589C-34.3869 402.461 -29.8942 388.033 -18.2242 376.362C-6.55414 364.692 7.87408 360.2 14.0021 366.328ZM220.044 223.944C226.172 230.072 221.679 244.5 210.009 256.17C198.339 267.84 183.911 272.333 177.783 266.205C171.655 260.077 176.147 245.648 187.817 233.978C199.487 222.308 213.916 217.816 220.044 223.944ZM158.499 310.199C170.169 298.529 174.661 284.101 168.533 277.973C162.405 271.845 147.977 276.337 136.307 288.008C124.637 299.678 120.144 314.106 126.272 320.234C132.4 326.362 146.829 321.869 158.499 310.199ZM117.023 332.003C123.151 338.131 118.658 352.559 106.988 364.229C95.3183 375.899 80.8901 380.392 74.762 374.264C68.6339 368.136 73.1266 353.708 84.7966 342.037C96.4667 330.367 110.895 325.875 117.023 332.003ZM55.4779 418.258C67.148 406.588 71.6406 392.16 65.5126 386.032C59.3845 379.904 44.9563 384.397 33.2862 396.067C21.6162 407.737 17.1235 422.165 23.2516 428.293C29.3796 434.421 43.8079 429.928 55.4779 418.258ZM3.9675 472.288C15.6376 460.618 20.1302 446.19 14.0021 440.062C7.87408 433.934 -6.55414 438.426 -18.2242 450.097C-29.8942 461.767 -34.3869 476.195 -28.2588 482.323C-22.1308 488.451 -7.70255 483.958 3.9675 472.288Z" fill="#1853BF"/>
</svg>
