<svg width="70" height="70" viewBox="0 0 70 70" fill="none" xmlns="http://www.w3.org/2000/svg">
<rect width="70" height="70" rx="35" fill="#0545BA"/>
<path d="M44.4062 48H26.4414V44.2207L32.8926 37.6992C34.8027 35.7422 36.0508 34.3887 36.6367 33.6387C37.2227 32.877 37.6445 32.1738 37.9023 31.5293C38.1602 30.8848 38.2891 30.2168 38.2891 29.5254C38.2891 28.4941 38.002 27.7266 37.4277 27.2227C36.8652 26.7188 36.1094 26.4668 35.1602 26.4668C34.1641 26.4668 33.1973 26.6953 32.2598 27.1523C31.3223 27.6094 30.3438 28.2598 29.3242 29.1035L26.3711 25.6055C27.6367 24.5273 28.6855 23.7656 29.5176 23.3203C30.3496 22.875 31.2578 22.5352 32.2422 22.3008C33.2266 22.0547 34.3281 21.9316 35.5469 21.9316C37.1523 21.9316 38.5703 22.2246 39.8008 22.8105C41.0312 23.3965 41.9863 24.2168 42.666 25.2715C43.3457 26.3262 43.6855 27.5332 43.6855 28.8926C43.6855 30.0762 43.4746 31.1895 43.0527 32.2324C42.6426 33.2637 41.998 34.3242 41.1191 35.4141C40.252 36.5039 38.7168 38.0566 36.5137 40.0723L33.209 43.1836V43.4297H44.4062V48Z" fill="white"/>
</svg>
