<svg width="70" height="70" viewBox="0 0 70 70" fill="none" xmlns="http://www.w3.org/2000/svg">
<rect width="70" height="70" rx="35" fill="#0545BA"/>
<path d="M43.4043 28.0488C43.4043 29.6543 42.918 31.0195 41.9453 32.1445C40.9727 33.2695 39.6074 34.043 37.8496 34.4648V34.5703C39.9238 34.8281 41.4941 35.4609 42.5605 36.4688C43.627 37.4648 44.1602 38.8125 44.1602 40.5117C44.1602 42.9844 43.2637 44.9121 41.4707 46.2949C39.6777 47.666 37.1172 48.3516 33.7891 48.3516C31 48.3516 28.5273 47.8887 26.3711 46.9629V42.3398C27.3672 42.8438 28.4629 43.2539 29.6582 43.5703C30.8535 43.8867 32.0371 44.0449 33.209 44.0449C35.002 44.0449 36.3262 43.7402 37.1816 43.1309C38.0371 42.5215 38.4648 41.543 38.4648 40.1953C38.4648 38.9883 37.9727 38.1328 36.9883 37.6289C36.0039 37.125 34.4336 36.873 32.2773 36.873H30.3262V32.707H32.3125C34.3047 32.707 35.7578 32.4492 36.6719 31.9336C37.5977 31.4062 38.0605 30.5098 38.0605 29.2441C38.0605 27.2988 36.8418 26.3262 34.4043 26.3262C33.5605 26.3262 32.6992 26.4668 31.8203 26.748C30.9531 27.0293 29.9863 27.5156 28.9199 28.207L26.4062 24.4629C28.75 22.7754 31.5449 21.9316 34.791 21.9316C37.4512 21.9316 39.5488 22.4707 41.084 23.5488C42.6309 24.627 43.4043 26.127 43.4043 28.0488Z" fill="white"/>
</svg>
