<svg width="70" height="70" viewBox="0 0 70 70" fill="none" xmlns="http://www.w3.org/2000/svg">
<rect width="70" height="70" rx="35" fill="#0545BA"/>
<path d="M44.3008 33.2695C44.3008 38.332 43.2344 42.1113 41.1016 44.6074C38.9688 47.1035 35.7402 48.3516 31.416 48.3516C29.8926 48.3516 28.7383 48.2695 27.9531 48.1055V43.7461C28.9375 43.9922 29.9688 44.1152 31.0469 44.1152C32.8633 44.1152 34.3574 43.8516 35.5293 43.3242C36.7012 42.7852 37.5977 41.9473 38.2188 40.8105C38.8398 39.6621 39.1973 38.0859 39.291 36.082H39.0801C38.4004 37.1836 37.6152 37.957 36.7246 38.4023C35.834 38.8477 34.7207 39.0703 33.3848 39.0703C31.1465 39.0703 29.3828 38.3555 28.0938 36.9258C26.8047 35.4844 26.1602 33.4863 26.1602 30.9316C26.1602 28.1777 26.9395 26.0039 28.498 24.4102C30.0684 22.8047 32.2012 22.002 34.8965 22.002C36.7949 22.002 38.4531 22.4473 39.8711 23.3379C41.3008 24.2285 42.3965 25.5234 43.1582 27.2227C43.9199 28.9102 44.3008 30.9258 44.3008 33.2695ZM35.002 26.3613C33.877 26.3613 32.998 26.748 32.3652 27.5215C31.7324 28.2949 31.416 29.4082 31.416 30.8613C31.416 32.1035 31.7031 33.0879 32.2773 33.8145C32.8516 34.541 33.7246 34.9043 34.8965 34.9043C35.998 34.9043 36.9414 34.5469 37.7266 33.832C38.5117 33.1055 38.9043 32.2734 38.9043 31.3359C38.9043 29.9414 38.5352 28.7637 37.7969 27.8027C37.0703 26.8418 36.1387 26.3613 35.002 26.3613Z" fill="white"/>
</svg>
