<svg width="70" height="70" viewBox="0 0 70 70" fill="none" xmlns="http://www.w3.org/2000/svg">
<rect width="70" height="70" rx="35" fill="#0545BA"/>
<path d="M26.2656 37.084C26.2656 31.998 27.3379 28.2129 29.4824 25.7285C31.6387 23.2441 34.8613 22.002 39.1504 22.002C40.6152 22.002 41.7637 22.0898 42.5957 22.2656V26.6074C41.5527 26.373 40.5215 26.2559 39.502 26.2559C37.6387 26.2559 36.1152 26.5371 34.9316 27.0996C33.7598 27.6621 32.8809 28.4941 32.2949 29.5957C31.709 30.6973 31.3633 32.2617 31.2578 34.2891H31.4863C32.6465 32.2969 34.5039 31.3008 37.0586 31.3008C39.3555 31.3008 41.1543 32.0215 42.4551 33.4629C43.7559 34.9043 44.4062 36.8965 44.4062 39.4395C44.4062 42.1816 43.6328 44.3555 42.0859 45.9609C40.5391 47.5547 38.3945 48.3516 35.6523 48.3516C33.7539 48.3516 32.0957 47.9121 30.6777 47.0332C29.2715 46.1543 28.1816 44.8711 27.4082 43.1836C26.6465 41.4961 26.2656 39.4629 26.2656 37.084ZM35.5469 44.0098C36.707 44.0098 37.5977 43.623 38.2188 42.8496C38.8398 42.0645 39.1504 40.9512 39.1504 39.5098C39.1504 38.2559 38.8574 37.2715 38.2715 36.5566C37.6973 35.8301 36.8242 35.4668 35.6523 35.4668C34.5508 35.4668 33.6074 35.8242 32.8223 36.5391C32.0488 37.2539 31.6621 38.0859 31.6621 39.0352C31.6621 40.4297 32.0254 41.6074 32.752 42.5684C33.4902 43.5293 34.4219 44.0098 35.5469 44.0098Z" fill="white"/>
</svg>
