<svg width="70" height="70" viewBox="0 0 70 70" fill="none" xmlns="http://www.w3.org/2000/svg">
<rect width="70" height="70" rx="35" fill="#0545BA"/>
<path d="M35.793 31.582C38.2773 31.582 40.252 32.2793 41.7168 33.6738C43.1934 35.0684 43.9316 36.9785 43.9316 39.4043C43.9316 42.2754 43.0469 44.4844 41.2773 46.0312C39.5078 47.5781 36.9766 48.3516 33.6836 48.3516C30.8242 48.3516 28.5156 47.8887 26.7578 46.9629V42.2695C27.6836 42.7617 28.7617 43.166 29.9922 43.4824C31.2227 43.7871 32.3887 43.9395 33.4902 43.9395C36.8066 43.9395 38.4648 42.5801 38.4648 39.8613C38.4648 37.2715 36.748 35.9766 33.3145 35.9766C32.6934 35.9766 32.0078 36.041 31.2578 36.1699C30.5078 36.2871 29.8984 36.416 29.4297 36.5566L27.2676 35.3965L28.2344 22.3008H42.1738V26.9062H32.998L32.5234 31.9512L33.1387 31.8281C33.8535 31.6641 34.7383 31.582 35.793 31.582Z" fill="white"/>
</svg>
