<svg width="70" height="70" viewBox="0 0 70 70" fill="none" xmlns="http://www.w3.org/2000/svg">
<rect width="70" height="70" rx="35" fill="#0545BA"/>
<path d="M35.3008 21.9668C37.7617 21.9668 39.7422 22.5293 41.2422 23.6543C42.7539 24.7676 43.5098 26.2734 43.5098 28.1719C43.5098 29.4844 43.1465 30.6562 42.4199 31.6875C41.6934 32.707 40.5215 33.6211 38.9043 34.4297C40.8262 35.4609 42.2031 36.5391 43.0352 37.6641C43.8789 38.7773 44.3008 40.002 44.3008 41.3379C44.3008 43.4473 43.4746 45.1465 41.8223 46.4355C40.1699 47.7129 37.9961 48.3516 35.3008 48.3516C32.4883 48.3516 30.2793 47.7539 28.6738 46.5586C27.0684 45.3633 26.2656 43.6699 26.2656 41.4785C26.2656 40.0137 26.6523 38.7129 27.4258 37.5762C28.2109 36.4395 29.4648 35.4375 31.1875 34.5703C29.7227 33.6445 28.668 32.6543 28.0234 31.5996C27.3789 30.5449 27.0566 29.3906 27.0566 28.1367C27.0566 26.2969 27.8184 24.8086 29.3418 23.6719C30.8652 22.5352 32.8516 21.9668 35.3008 21.9668ZM31.293 41.1621C31.293 42.1699 31.6445 42.9551 32.3477 43.5176C33.0508 44.0801 34.0117 44.3613 35.2305 44.3613C36.5781 44.3613 37.5859 44.0742 38.2539 43.5C38.9219 42.9141 39.2559 42.1465 39.2559 41.1973C39.2559 40.4121 38.9219 39.6797 38.2539 39C37.5977 38.3086 36.5254 37.5762 35.0371 36.8027C32.541 37.9512 31.293 39.4043 31.293 41.1621ZM35.2656 25.9395C34.3398 25.9395 33.5898 26.1797 33.0156 26.6602C32.4531 27.1289 32.1719 27.7617 32.1719 28.5586C32.1719 29.2617 32.3945 29.8945 32.8398 30.457C33.2969 31.0078 34.1172 31.5762 35.3008 32.1621C36.4492 31.623 37.252 31.0723 37.709 30.5098C38.166 29.9473 38.3945 29.2969 38.3945 28.5586C38.3945 27.75 38.1016 27.1113 37.5156 26.6426C36.9297 26.1738 36.1797 25.9395 35.2656 25.9395Z" fill="white"/>
</svg>
