<svg width="162" height="162" viewBox="0 0 162 162" fill="none" xmlns="http://www.w3.org/2000/svg">
<rect width="162" height="162" rx="81" fill="#5BC4FB"/>
<path d="M26.028 52.224C28.668 52.224 31.044 52.788 33.156 53.916C35.268 55.044 36.924 56.616 38.124 58.632C39.324 60.624 39.924 62.88 39.924 65.4C39.924 67.92 39.324 70.188 38.124 72.204C36.924 74.196 35.268 75.756 33.156 76.884C31.044 78.012 28.668 78.576 26.028 78.576C23.772 78.576 21.708 78.168 19.836 77.352C17.964 76.512 16.392 75.348 15.12 73.86C13.848 72.372 12.972 70.656 12.492 68.712H10.584V78H2.232V52.8H10.584V61.728H12.564C13.092 59.832 13.992 58.176 15.264 56.76C16.536 55.32 18.096 54.204 19.944 53.412C21.792 52.62 23.82 52.224 26.028 52.224ZM26.028 71.7C27.012 71.7 27.912 71.448 28.728 70.944C29.544 70.416 30.18 69.684 30.636 68.748C31.116 67.788 31.356 66.672 31.356 65.4C31.356 64.128 31.116 63.024 30.636 62.088C30.18 61.128 29.544 60.396 28.728 59.892C27.912 59.364 27.012 59.1 26.028 59.1C25.02 59.1 24.108 59.364 23.292 59.892C22.476 60.396 21.828 61.128 21.348 62.088C20.892 63.024 20.664 64.128 20.664 65.4C20.664 66.672 20.892 67.788 21.348 68.748C21.828 69.684 22.476 70.416 23.292 70.944C24.108 71.448 25.02 71.7 26.028 71.7ZM57.3053 52.8C59.6333 52.8 61.6613 53.184 63.3893 53.952C65.1173 54.72 66.4493 55.824 67.3853 57.264C68.3213 58.704 68.7893 60.384 68.7893 62.304C68.7893 64.224 68.3213 65.904 67.3853 67.344C66.4493 68.784 65.1173 69.888 63.3893 70.656C61.6613 71.424 59.6333 71.808 57.3053 71.808H53.6693V78H45.1732V52.8H57.3053ZM56.7652 65.256C57.9173 65.256 58.7813 65.004 59.3573 64.5C59.9333 63.972 60.2213 63.24 60.2213 62.304C60.2213 61.368 59.9333 60.648 59.3573 60.144C58.7813 59.616 57.9173 59.352 56.7652 59.352H53.6693V65.256H56.7652ZM73.5247 52.8H81.8767V65.904L90.5527 52.8H98.5447V78H90.1927V64.932L81.5527 78H73.5247V52.8ZM117.853 78.576C115.189 78.576 112.789 78.024 110.653 76.92C108.517 75.792 106.837 74.232 105.613 72.24C104.413 70.224 103.813 67.944 103.813 65.4C103.813 62.856 104.413 60.588 105.613 58.596C106.837 56.58 108.517 55.02 110.653 53.916C112.789 52.788 115.189 52.224 117.853 52.224C120.301 52.224 122.485 52.656 124.405 53.52C126.325 54.384 127.909 55.632 129.157 57.264L123.793 62.052C122.233 60.084 120.397 59.1 118.285 59.1C116.509 59.1 115.081 59.676 114.001 60.828C112.921 61.956 112.381 63.48 112.381 65.4C112.381 67.32 112.921 68.856 114.001 70.008C115.081 71.136 116.509 71.7 118.285 71.7C120.397 71.7 122.233 70.716 123.793 68.748L129.157 73.536C127.909 75.168 126.325 76.416 124.405 77.28C122.485 78.144 120.301 78.576 117.853 78.576ZM155.164 59.388H147.784V78H139.432V59.388H132.052V52.8H155.164V59.388ZM26.604 91.8V117H18.252V98.388H10.584V117H2.232V91.8H26.604ZM45.3521 91.8C47.6801 91.8 49.7081 92.184 51.4361 92.952C53.1641 93.72 54.4961 94.824 55.4321 96.264C56.3681 97.704 56.8361 99.384 56.8361 101.304C56.8361 103.224 56.3681 104.904 55.4321 106.344C54.4961 107.784 53.1641 108.888 51.4361 109.656C49.7081 110.424 47.6801 110.808 45.3521 110.808H41.7161V117H33.2201V91.8H45.3521ZM44.8121 104.256C45.9641 104.256 46.8281 104.004 47.4041 103.5C47.9801 102.972 48.2681 102.24 48.2681 101.304C48.2681 100.368 47.9801 99.648 47.4041 99.144C46.8281 98.616 45.9641 98.352 44.8121 98.352H41.7161V104.256H44.8121ZM78.0899 112.608H68.5139L66.8219 117H58.1819L69.1979 91.8H77.5499L88.5659 117H79.7819L78.0899 112.608ZM75.7499 106.488L73.3019 100.152L70.8539 106.488H75.7499ZM112.42 103.788C113.836 104.292 114.916 105.048 115.66 106.056C116.404 107.04 116.776 108.252 116.776 109.692C116.776 111.948 115.876 113.736 114.076 115.056C112.3 116.352 109.78 117 106.516 117H93.0518V91.8H105.832C108.952 91.8 111.364 92.376 113.068 93.528C114.796 94.68 115.66 96.3 115.66 98.388C115.66 99.588 115.372 100.644 114.796 101.556C114.244 102.468 113.452 103.212 112.42 103.788ZM101.404 101.484H105.004C106.396 101.484 107.092 100.872 107.092 99.648C107.092 98.376 106.396 97.74 105.004 97.74H101.404V101.484ZM106.12 111.06C107.512 111.06 108.208 110.388 108.208 109.044C108.208 107.748 107.512 107.1 106.12 107.1H101.404V111.06H106.12ZM134.782 117.576C132.07 117.576 129.634 117.012 127.474 115.884C125.314 114.756 123.622 113.196 122.398 111.204C121.174 109.188 120.562 106.92 120.562 104.4C120.562 101.88 121.174 99.624 122.398 97.632C123.622 95.616 125.314 94.044 127.474 92.916C129.634 91.788 132.07 91.224 134.782 91.224C137.494 91.224 139.93 91.788 142.09 92.916C144.25 94.044 145.942 95.616 147.166 97.632C148.39 99.624 149.002 101.88 149.002 104.4C149.002 106.92 148.39 109.188 147.166 111.204C145.942 113.196 144.25 114.756 142.09 115.884C139.93 117.012 137.494 117.576 134.782 117.576ZM134.782 110.7C135.838 110.7 136.786 110.448 137.626 109.944C138.49 109.416 139.174 108.684 139.678 107.748C140.182 106.788 140.434 105.672 140.434 104.4C140.434 103.128 140.182 102.024 139.678 101.088C139.174 100.128 138.49 99.396 137.626 98.892C136.786 98.364 135.838 98.1 134.782 98.1C133.726 98.1 132.766 98.364 131.902 98.892C131.062 99.396 130.39 100.128 129.886 101.088C129.382 102.024 129.13 103.128 129.13 104.4C129.13 105.672 129.382 106.788 129.886 107.748C130.39 108.684 131.062 109.416 131.902 109.944C132.766 110.448 133.726 110.7 134.782 110.7Z" fill="white"/>
</svg>
