<svg width="171" height="60" viewBox="0 0 171 60" fill="none" xmlns="http://www.w3.org/2000/svg">
<path d="M29.6633 3.52941C22.801 3.76088 16.3035 6.7102 11.5713 11.7416C6.8392 16.773 4.25143 23.4835 4.36588 30.4265C4.48033 37.3696 7.28783 43.9891 12.1832 48.8582C17.0785 53.7272 23.6696 56.4559 30.5357 56.4559C37.4018 56.4559 43.9929 53.7272 48.8883 48.8582C53.7836 43.9891 56.5911 37.3696 56.7055 30.4265C56.82 23.4835 54.2322 16.773 49.5001 11.7416C44.7679 6.7102 38.2704 3.76088 31.4082 3.52941H29.6633ZM66.3061 3.52941C59.4439 3.76088 52.9463 6.7102 48.2142 11.7416C43.4821 16.773 40.8943 23.4835 41.0087 30.4265C41.1232 37.3696 43.9307 43.9891 48.826 48.8582C53.7214 53.7272 60.3125 56.4559 67.1786 56.4559C74.0446 56.4559 80.6358 53.7272 85.5311 48.8582C90.4265 43.9891 93.234 37.3696 93.3484 30.4265C93.4629 23.4835 90.8751 16.773 86.1429 11.7416C81.4108 6.7102 74.9133 3.76088 68.051 3.52941H66.3061ZM102.949 3.52941C96.0867 3.76088 89.5892 6.7102 84.8571 11.7416C80.1249 16.773 77.5371 23.4835 77.6516 30.4265C77.766 37.3696 80.5735 43.9891 85.4689 48.8582C90.3642 53.7272 96.9554 56.4559 103.821 56.4559C110.687 56.4559 117.279 53.7272 122.174 48.8582C127.069 43.9891 129.877 37.3696 129.991 30.4265C130.106 23.4835 127.518 16.773 122.786 11.7416C118.054 6.7102 111.556 3.76088 104.694 3.52941H102.949ZM139.592 3.52941C132.73 3.76088 126.232 6.7102 121.5 11.7416C116.768 16.773 114.18 23.4835 114.294 30.4265C114.409 37.3696 117.216 43.9891 122.112 48.8582C127.007 53.7272 133.598 56.4559 140.464 56.4559C147.33 56.4559 153.921 53.7272 158.817 48.8582C163.712 43.9891 166.52 37.3696 166.634 30.4265C166.749 23.4835 164.161 16.773 159.429 11.7416C154.697 6.7102 148.199 3.76088 141.337 3.52941H139.592Z" stroke="black" stroke-width="7"/>
</svg>
