<svg width="102" height="50" viewBox="0 0 102 50" fill="none" xmlns="http://www.w3.org/2000/svg">
<path d="M48.1865 49.3423C44.804 49.2562 41.0739 48.9689 37.772 48.5401C23.7143 46.7146 11.9344 42.0618 5.37658 35.7447C2.59566 33.0658 0.833427 30.1225 0.23915 27.1642C0.0456129 26.2007 0 25.7287 0 24.6893C0 23.6499 0.0456129 23.1778 0.23915 22.2144C0.629797 20.2697 1.55758 18.2645 2.92659 16.4063C6.02261 12.2037 11.4552 8.46221 18.5832 5.62334C30.4636 0.8918 46.0195 -0.982451 61.1674 0.492601C78.9497 2.22417 93.5782 8.48753 99.3829 16.855C102.037 20.6804 102.687 24.8352 101.267 28.8959C100.447 31.2409 98.8539 33.5843 96.6113 35.7447C90.3978 41.7301 79.4628 46.2436 66.3376 48.2404C60.4675 49.1334 54.4158 49.5008 48.1865 49.3423V49.3423ZM55.9417 46.1841C63.0593 45.7588 69.0696 44.749 74.9267 42.9944C79.5739 41.6022 83.9057 39.6749 87.2314 37.5197C88.9074 36.4337 90.0699 35.5171 91.3848 34.2451C92.9463 32.7346 93.9539 31.4093 94.7743 29.7869C95.6921 27.972 96.0474 26.5492 96.0474 24.6893C96.0474 22.8186 95.6688 21.32 94.7392 19.5112C93.9354 17.9471 92.91 16.6088 91.3848 15.1334C89.1449 12.9666 86.4841 11.1797 82.9674 9.48055C76.3841 6.29971 68.1474 4.21864 58.9715 3.41784C53.8892 2.97429 48.1151 2.97408 43.0163 3.41725C30.1159 4.5385 19.0419 8.23467 12.1901 13.7062C11.3209 14.4002 9.77165 15.91 9.12225 16.6957C6.80031 19.5052 5.70415 22.5367 5.95391 25.4578C6.22603 28.6403 7.71083 31.4466 10.6033 34.2452C12.7943 36.3651 15.3993 38.127 18.7871 39.7805C26.5017 43.5456 35.9811 45.7034 47.1302 46.2323C48.3894 46.292 54.7145 46.2574 55.9417 46.1841V46.1841ZM19.7785 37.1686C19.7173 37.1441 19.6173 37.0703 19.5561 37.0047C19.4458 36.8863 19.4448 36.8001 19.4307 25.3972L19.4164 13.9089L19.2692 13.7606C19.1299 13.6203 19.0914 13.6114 18.5607 13.597L17.9995 13.5818V12.8574V12.133L22.0392 12.1193L26.0789 12.1055L26.2504 12.2448L26.4219 12.384V16.5259C26.4219 21.0765 26.4092 20.9063 26.7482 20.9063C26.9586 20.9063 27.0315 20.8216 28.2034 19.216C31.3079 14.9626 33.0156 12.6493 33.1697 12.4887C33.5493 12.0928 33.3772 12.1087 37.3067 12.1074L40.8255 12.1062L40.9597 12.2357C41.1246 12.3949 41.1867 12.6122 41.1117 12.7675C41.0641 12.866 39.5417 15.048 34.2251 22.6376C33.6447 23.4661 33.4826 23.7361 33.484 23.8717C33.4855 24.0124 33.863 24.5593 35.475 26.7551C42.5986 36.4591 42.6214 36.4908 42.6434 36.6869C42.6599 36.8343 42.6324 36.9161 42.5258 37.0357L42.3867 37.1918L38.7119 37.2064C35.0885 37.2207 35.0332 37.2193 34.7665 37.1086C34.6177 37.0468 34.4339 36.9316 34.358 36.8526C34.2822 36.7735 32.6071 34.5236 30.6356 31.8527C28.664 29.1819 27.011 26.9647 26.9621 26.9256C26.825 26.8161 26.5743 26.8684 26.4935 27.0234C26.4388 27.1282 26.4233 28.2216 26.4227 32.0241L26.4218 36.8907L26.2876 37.0413L26.1535 37.1918L23.0215 37.2025C21.299 37.2084 19.8396 37.1931 19.7784 37.1686L19.7785 37.1686ZM47.6848 37.1445C47.5923 37.1052 47.486 37.0081 47.4485 36.9287C47.3954 36.8162 47.3804 34.2633 47.3804 25.3534V13.9224L47.2179 13.7655C47.0609 13.614 47.0373 13.6087 46.523 13.6087H45.9906V12.8575V12.1062H50.1036H54.2166L54.3981 12.2628L54.5797 12.4194V24.6568V36.8943L54.4256 37.0431L54.2714 37.1919L51.0622 37.2039C48.4916 37.2134 47.8195 37.2015 47.6848 37.1445V37.1445ZM59.6386 37.1539C59.4659 37.0583 59.3922 36.9388 59.3902 36.7517C59.3893 36.6572 60.1784 34.3029 61.144 31.52C62.1095 28.737 63.6451 24.311 64.5564 21.6844C65.4677 19.0578 66.4289 16.295 66.6924 15.5449C66.9559 14.7948 67.1715 14.1154 67.1715 14.035C67.1715 13.9546 67.1237 13.8319 67.0654 13.7622C66.9703 13.6487 66.9025 13.6327 66.4122 13.6087L65.865 13.5818L65.8496 12.844L65.8341 12.1062L70.7696 12.1068C74.0094 12.1068 75.7764 12.1263 75.9128 12.1628C76.0271 12.1935 76.1482 12.2683 76.182 12.3291C76.2515 12.4545 76.8049 14.0338 79.4136 21.5505C83.6573 33.779 84.6277 36.6013 84.6277 36.7166C84.6277 36.9057 84.5176 37.094 84.3688 37.1594C84.2746 37.2008 83.2879 37.219 81.1366 37.2189C78.2983 37.2189 78.024 37.211 77.8493 37.125C77.7444 37.0734 77.6127 36.9705 77.5564 36.8963C77.5002 36.8222 77.069 35.6028 76.5982 34.1866C72.1104 20.687 72.2346 21.0554 72.1337 20.9469C72.0223 20.827 71.9374 20.8281 71.8222 20.951C71.7305 21.0487 71.5577 21.562 69.1179 28.9823C68.4096 31.1367 67.6459 33.4548 67.4209 34.1336C67.1959 34.8123 66.9075 35.6877 66.78 36.0787C66.5294 36.8475 66.4185 37.0308 66.1355 37.145C65.8912 37.2435 59.8155 37.2521 59.6387 37.1541L59.6386 37.1539Z" fill="#C41230"/>
</svg>
