<svg width="138" height="28" viewBox="0 0 138 28" fill="none" xmlns="http://www.w3.org/2000/svg">
<path d="M11.9727 27C11.7383 26.543 11.5684 25.9746 11.4629 25.2949C10.2324 26.666 8.63281 27.3516 6.66406 27.3516C4.80078 27.3516 3.25391 26.8125 2.02344 25.7344C0.804687 24.6562 0.195312 23.2969 0.195312 21.6562C0.195312 19.6406 0.939453 18.0938 2.42773 17.0156C3.92773 15.9375 6.08984 15.3926 8.91406 15.3809H11.252V14.291C11.252 13.4121 11.0234 12.709 10.5664 12.1816C10.1211 11.6543 9.41211 11.3906 8.43945 11.3906C7.58398 11.3906 6.91016 11.5957 6.41797 12.0059C5.9375 12.416 5.69727 12.9785 5.69727 13.6934H0.617188C0.617188 12.5918 0.957031 11.5723 1.63672 10.6348C2.31641 9.69727 3.27734 8.96484 4.51953 8.4375C5.76172 7.89844 7.15625 7.62891 8.70312 7.62891C11.0469 7.62891 12.9043 8.2207 14.2754 9.4043C15.6582 10.5762 16.3496 12.2285 16.3496 14.3613V22.6055C16.3613 24.4102 16.6133 25.7754 17.1055 26.7012V27H11.9727ZM7.77148 23.4668C8.52148 23.4668 9.21289 23.3027 9.8457 22.9746C10.4785 22.6348 10.9473 22.1836 11.252 21.6211V18.3516H9.35352C6.81055 18.3516 5.45703 19.2305 5.29297 20.9883L5.27539 21.2871C5.27539 21.9199 5.49805 22.4414 5.94336 22.8516C6.38867 23.2617 6.99805 23.4668 7.77148 23.4668ZM31.6426 25.0664C30.3887 26.5898 28.6543 27.3516 26.4395 27.3516C24.4004 27.3516 22.8418 26.7656 21.7637 25.5938C20.6973 24.4219 20.1523 22.7051 20.1289 20.4434V7.98047H25.209V20.2676C25.209 22.248 26.1113 23.2383 27.916 23.2383C29.6387 23.2383 30.8223 22.6406 31.4668 21.4453V7.98047H36.5645V27H31.7832L31.6426 25.0664ZM46.4785 3.30469V7.98047H49.7305V11.707H46.4785V21.1992C46.4785 21.9023 46.6133 22.4062 46.8828 22.7109C47.1523 23.0156 47.668 23.168 48.4297 23.168C48.9922 23.168 49.4902 23.127 49.9238 23.0449V26.8945C48.9277 27.1992 47.9023 27.3516 46.8477 27.3516C43.2852 27.3516 41.4688 25.5527 41.3984 21.9551V11.707H38.6211V7.98047H41.3984V3.30469H46.4785ZM51.2422 17.3145C51.2422 15.4277 51.6055 13.7461 52.332 12.2695C53.0586 10.793 54.1016 9.65039 55.4609 8.8418C56.832 8.0332 58.4199 7.62891 60.2246 7.62891C62.791 7.62891 64.8828 8.41406 66.5 9.98438C68.1289 11.5547 69.0371 13.6875 69.2246 16.3828L69.2598 17.6836C69.2598 20.6016 68.4453 22.9453 66.8164 24.7148C65.1875 26.4727 63.002 27.3516 60.2598 27.3516C57.5176 27.3516 55.3262 26.4727 53.6855 24.7148C52.0566 22.957 51.2422 20.5664 51.2422 17.543V17.3145ZM56.3223 17.6836C56.3223 19.4883 56.6621 20.8711 57.3418 21.832C58.0215 22.7812 58.9941 23.2559 60.2598 23.2559C61.4902 23.2559 62.4512 22.7871 63.1426 21.8496C63.834 20.9004 64.1797 19.3887 64.1797 17.3145C64.1797 15.5449 63.834 14.1738 63.1426 13.2012C62.4512 12.2285 61.4785 11.7422 60.2246 11.7422C58.9824 11.7422 58.0215 12.2285 57.3418 13.2012C56.6621 14.1621 56.3223 15.6562 56.3223 17.6836ZM77.75 27H72.6523V0H77.75V27ZM90.7051 27.3516C87.916 27.3516 85.6426 26.4961 83.8848 24.7852C82.1387 23.0742 81.2656 20.7949 81.2656 17.9473V17.4551C81.2656 15.5449 81.6348 13.8398 82.373 12.3398C83.1113 10.8281 84.1543 9.66797 85.502 8.85938C86.8613 8.03906 88.4082 7.62891 90.1426 7.62891C92.7441 7.62891 94.7891 8.44922 96.2773 10.0898C97.7773 11.7305 98.5273 14.0566 98.5273 17.0684V19.1426H86.416C86.5801 20.3848 87.0723 21.3809 87.8926 22.1309C88.7246 22.8809 89.7734 23.2559 91.0391 23.2559C92.9961 23.2559 94.5254 22.5469 95.627 21.1289L98.123 23.9238C97.3613 25.002 96.3301 25.8457 95.0293 26.4551C93.7285 27.0527 92.2871 27.3516 90.7051 27.3516ZM90.125 11.7422C89.1172 11.7422 88.2969 12.082 87.6641 12.7617C87.043 13.4414 86.6445 14.4141 86.4688 15.6797H93.5352V15.2754C93.5117 14.1504 93.207 13.2832 92.6211 12.6738C92.0352 12.0527 91.2031 11.7422 90.125 11.7422ZM112.449 27C112.215 26.543 112.045 25.9746 111.939 25.2949C110.709 26.666 109.109 27.3516 107.141 27.3516C105.277 27.3516 103.73 26.8125 102.5 25.7344C101.281 24.6562 100.672 23.2969 100.672 21.6562C100.672 19.6406 101.416 18.0938 102.904 17.0156C104.404 15.9375 106.566 15.3926 109.391 15.3809H111.729V14.291C111.729 13.4121 111.5 12.709 111.043 12.1816C110.598 11.6543 109.889 11.3906 108.916 11.3906C108.061 11.3906 107.387 11.5957 106.895 12.0059C106.414 12.416 106.174 12.9785 106.174 13.6934H101.094C101.094 12.5918 101.434 11.5723 102.113 10.6348C102.793 9.69727 103.754 8.96484 104.996 8.4375C106.238 7.89844 107.633 7.62891 109.18 7.62891C111.523 7.62891 113.381 8.2207 114.752 9.4043C116.135 10.5762 116.826 12.2285 116.826 14.3613V22.6055C116.838 24.4102 117.09 25.7754 117.582 26.7012V27H112.449ZM108.248 23.4668C108.998 23.4668 109.689 23.3027 110.322 22.9746C110.955 22.6348 111.424 22.1836 111.729 21.6211V18.3516H109.83C107.287 18.3516 105.934 19.2305 105.77 20.9883L105.752 21.2871C105.752 21.9199 105.975 22.4414 106.42 22.8516C106.865 23.2617 107.475 23.4668 108.248 23.4668ZM119.938 17.3496C119.938 14.3848 120.6 12.0234 121.924 10.2656C123.26 8.50781 125.082 7.62891 127.391 7.62891C129.242 7.62891 130.771 8.32031 131.979 9.70312V0H137.076V27H132.488L132.242 24.9785C130.977 26.5605 129.348 27.3516 127.355 27.3516C125.117 27.3516 123.318 26.4727 121.959 24.7148C120.611 22.9453 119.938 20.4902 119.938 17.3496ZM125.018 17.7188C125.018 19.5 125.328 20.8652 125.949 21.8145C126.57 22.7637 127.473 23.2383 128.656 23.2383C130.227 23.2383 131.334 22.5762 131.979 21.252V13.7461C131.346 12.4219 130.25 11.7598 128.691 11.7598C126.242 11.7598 125.018 13.7461 125.018 17.7188Z" fill="white"/>
</svg>
