<svg width="40" height="40" viewBox="0 0 40 40" fill="none" xmlns="http://www.w3.org/2000/svg">
<rect width="40" height="40" rx="20" fill="#2ECC71"/>
<path d="M16.1562 28.5781L8.32812 20.7969C8.10938 20.5781 8 20.2969 8 19.9531C8 19.6094 8.10938 19.3281 8.32812 19.1094L10.0625 17.4219C10.2812 17.1719 10.5469 17.0469 10.8594 17.0469C11.2031 17.0469 11.5 17.1719 11.75 17.4219L17 22.6719L28.25 11.4219C28.5 11.1719 28.7812 11.0469 29.0938 11.0469C29.4375 11.0469 29.7188 11.1719 29.9375 11.4219L31.6719 13.1094C31.8906 13.3281 32 13.6094 32 13.9531C32 14.2969 31.8906 14.5781 31.6719 14.7969L17.8438 28.5781C17.625 28.8281 17.3438 28.9531 17 28.9531C16.6562 28.9531 16.375 28.8281 16.1562 28.5781Z" fill="white"/>
</svg>
