<svg width="718" height="582" viewBox="0 0 718 582" fill="none" xmlns="http://www.w3.org/2000/svg">
<path d="M245.35 305.229C176.102 136.179 65.0887 30.6387 18.238 -1H718V263.5V528.5V559.505C718 559.505 520.455 581.985 473.319 581.985C430.468 583.483 314.598 474.28 245.35 305.229Z" fill="#9B59B6"/>
<path d="M245.35 305.229C176.102 136.179 65.0887 30.6387 18.238 -1H718V263.5V528.5V559.505C718 559.505 520.455 581.985 473.319 581.985C430.468 583.483 314.598 474.28 245.35 305.229Z" fill="url(#paint0_linear)"/>
<g clip-path="url(#clip0)">
<path d="M255.024 335.794C273.406 335.794 288.306 320.419 288.306 301.453C288.306 282.487 273.406 267.113 255.024 267.113C236.643 267.113 221.742 282.487 221.742 301.453C221.742 320.419 236.643 335.794 255.024 335.794Z" fill="#F2F2F2"/>
<path d="M529.917 256.854H343.41V216.586H529.917V256.854ZM344.231 256.006H529.095V217.434H344.231V256.006Z" fill="#3F3D56"/>
<path d="M516.36 224.64H330.675V264.06H516.36V224.64Z" fill="#6C63FF"/>
<path d="M213.294 187.021C214.883 187.021 216.17 185.692 216.17 184.054C216.17 182.415 214.883 181.086 213.294 181.086C211.706 181.086 210.419 182.415 210.419 184.054C210.419 185.692 211.706 187.021 213.294 187.021Z" fill="#6C63FF"/>
<path d="M223.154 187.021C224.742 187.021 226.029 185.692 226.029 184.054C226.029 182.415 224.742 181.086 223.154 181.086C221.566 181.086 220.278 182.415 220.278 184.054C220.278 185.692 221.566 187.021 223.154 187.021Z" fill="#6C63FF"/>
<path d="M233.013 187.021C234.601 187.021 235.889 185.692 235.889 184.054C235.889 182.415 234.601 181.086 233.013 181.086C231.425 181.086 230.137 182.415 230.137 184.054C230.137 185.692 231.425 187.021 233.013 187.021Z" fill="#6C63FF"/>
<path d="M550.979 408.283H205.078V176H550.979V408.283ZM205.9 407.435H550.157V176.848H205.9V407.435Z" fill="#3F3D56"/>
<path d="M550.568 188.858H205.489V189.706H550.568V188.858Z" fill="#3F3D56"/>
<path d="M214.116 186.173C213.466 186.173 212.831 185.974 212.29 185.601C211.75 185.229 211.329 184.699 211.08 184.08C210.831 183.46 210.766 182.778 210.893 182.12C211.02 181.463 211.333 180.858 211.792 180.384C212.252 179.91 212.837 179.587 213.475 179.456C214.112 179.325 214.773 179.392 215.374 179.649C215.974 179.906 216.488 180.34 216.849 180.898C217.21 181.456 217.403 182.111 217.403 182.782C217.402 183.681 217.055 184.543 216.439 185.179C215.823 185.814 214.987 186.172 214.116 186.173ZM214.116 180.239C213.629 180.239 213.152 180.388 212.747 180.667C212.341 180.947 212.025 181.344 211.839 181.809C211.652 182.273 211.603 182.785 211.699 183.278C211.794 183.771 212.028 184.225 212.373 184.58C212.718 184.936 213.157 185.178 213.635 185.276C214.113 185.374 214.609 185.324 215.059 185.132C215.51 184.939 215.895 184.613 216.166 184.195C216.436 183.777 216.581 183.285 216.581 182.782C216.58 182.108 216.32 181.461 215.858 180.984C215.396 180.508 214.77 180.239 214.116 180.239V180.239Z" fill="#3F3D56"/>
<path d="M223.975 186.173C223.325 186.173 222.69 185.974 222.15 185.601C221.609 185.229 221.188 184.699 220.939 184.08C220.69 183.46 220.625 182.778 220.752 182.12C220.879 181.463 221.192 180.858 221.652 180.384C222.111 179.91 222.697 179.587 223.334 179.456C223.972 179.325 224.633 179.392 225.233 179.649C225.834 179.906 226.347 180.34 226.708 180.898C227.069 181.456 227.262 182.111 227.262 182.782C227.261 183.681 226.914 184.543 226.298 185.179C225.682 185.814 224.847 186.172 223.975 186.173V186.173ZM223.975 180.239C223.488 180.239 223.011 180.388 222.606 180.667C222.201 180.947 221.885 181.344 221.698 181.809C221.512 182.273 221.463 182.785 221.558 183.278C221.653 183.771 221.888 184.225 222.233 184.58C222.577 184.936 223.016 185.178 223.495 185.276C223.973 185.374 224.468 185.324 224.919 185.132C225.369 184.939 225.754 184.613 226.025 184.195C226.296 183.777 226.44 183.285 226.44 182.782C226.44 182.108 226.18 181.461 225.717 180.984C225.255 180.508 224.629 180.239 223.975 180.239V180.239Z" fill="#3F3D56"/>
<path d="M233.835 186.173C233.185 186.173 232.549 185.974 232.009 185.601C231.469 185.229 231.047 184.699 230.799 184.08C230.55 183.46 230.485 182.778 230.612 182.12C230.738 181.463 231.051 180.858 231.511 180.384C231.971 179.91 232.556 179.587 233.194 179.456C233.831 179.325 234.492 179.392 235.093 179.649C235.693 179.906 236.206 180.34 236.567 180.898C236.929 181.456 237.121 182.111 237.121 182.782C237.12 183.681 236.774 184.543 236.158 185.179C235.542 185.814 234.706 186.172 233.835 186.173V186.173ZM233.835 180.239C233.347 180.239 232.871 180.388 232.465 180.667C232.06 180.947 231.744 181.344 231.558 181.809C231.371 182.273 231.322 182.785 231.417 183.278C231.512 183.771 231.747 184.225 232.092 184.58C232.437 184.936 232.876 185.178 233.354 185.276C233.832 185.374 234.328 185.324 234.778 185.132C235.229 184.939 235.613 184.613 235.884 184.195C236.155 183.777 236.3 183.285 236.3 182.782C236.299 182.108 236.039 181.461 235.577 180.984C235.115 180.508 234.488 180.239 233.835 180.239V180.239Z" fill="#3F3D56"/>
<path d="M314.241 189.282H313.419V408.188H314.241V189.282Z" fill="#3F3D56"/>
<path d="M413.042 296.91H352.653V305.388H413.042V296.91Z" fill="#F2F2F2"/>
<path d="M507.938 296.91H447.55V305.388H507.938V296.91Z" fill="#F2F2F2"/>
<path d="M416.739 301.573H355.529V292.248H416.739V301.573ZM356.35 300.725H415.917V293.095H356.35V300.725Z" fill="#3F3D56"/>
<path d="M413.042 362.611H352.653V371.088H413.042V362.611Z" fill="#F2F2F2"/>
<path d="M416.739 367.273H355.529V357.948H416.739V367.273ZM356.35 366.425H415.917V358.796H356.35V366.425Z" fill="#3F3D56"/>
<path d="M508.144 328.913H352.858V337.39H508.144V328.913Z" fill="#F2F2F2"/>
<path d="M511.841 334.423H355.734V325.098H511.841V334.423ZM356.556 333.575H511.019V325.945H356.556V333.575Z" fill="#3F3D56"/>
<path d="M511.636 301.573H450.425V292.248H511.636V301.573ZM451.247 300.725H510.814V293.095H451.247V300.725Z" fill="#3F3D56"/>
<path d="M260.657 326.812C253.973 326.812 247.439 324.767 241.882 320.936C236.324 317.104 231.993 311.659 229.435 305.287C226.877 298.916 226.208 291.905 227.512 285.141C228.816 278.377 232.034 272.164 236.761 267.287C241.487 262.411 247.508 259.09 254.064 257.744C260.619 256.399 267.414 257.09 273.589 259.729C279.764 262.368 285.042 266.837 288.755 272.571C292.469 278.305 294.451 285.047 294.451 291.943C294.441 301.188 290.877 310.051 284.542 316.588C278.206 323.125 269.616 326.802 260.657 326.812ZM260.657 258.131C254.175 258.131 247.84 260.114 242.451 263.83C237.062 267.545 232.861 272.826 230.381 279.004C227.901 285.182 227.252 291.981 228.516 298.54C229.781 305.099 232.902 311.124 237.485 315.852C242.068 320.581 247.907 323.801 254.264 325.106C260.62 326.411 267.209 325.741 273.197 323.182C279.185 320.623 284.303 316.289 287.904 310.729C291.505 305.168 293.427 298.631 293.427 291.943C293.417 282.979 289.961 274.385 283.818 268.046C277.674 261.707 269.345 258.141 260.657 258.131Z" fill="#3F3D56"/>
</g>
<defs>
<linearGradient id="paint0_linear" x1="356.335" y1="-1" x2="356.335" y2="571.011" gradientUnits="userSpaceOnUse">
<stop stop-color="#D161FF"/>
<stop offset="1" stop-color="white" stop-opacity="0"/>
</linearGradient>
<clipPath id="clip0">
<rect width="550.979" height="399" fill="white" transform="translate(0 176)"/>
</clipPath>
</defs>
</svg>
