<svg width="90" height="90" viewBox="0 0 90 90" fill="none" xmlns="http://www.w3.org/2000/svg">
<path d="M45.5273 47.6895L39.7617 64.5117H39.7441L35.2793 77.3613C35.5957 77.4492 35.8945 77.5195 36.2109 77.6074H36.2637C39.1022 78.3644 42.0272 78.7484 44.9648 78.75C46.4299 78.7609 47.8935 78.6551 49.3418 78.4336C51.2798 78.1907 53.1919 77.7729 55.0547 77.1856C55.5117 77.0449 55.9688 76.8867 56.4258 76.7285C55.9336 75.6738 54.8789 73.3359 54.8262 73.2305L45.5273 47.6895Z" fill="#767676"/>
<path d="M14.2031 31.7285C12.4453 35.7012 11.25 40.5879 11.25 45C11.25 46.1074 11.3027 47.2148 11.4082 48.3047C12.6211 60.8203 20.707 71.332 31.8164 76.0605C32.2734 76.2539 32.748 76.4473 33.2227 76.623L16.875 31.7461C15.4688 31.6934 15.2051 31.7812 14.2031 31.7285Z" fill="#767676"/>
<path d="M75.6211 30.8321C74.8648 29.204 73.9771 27.6402 72.9668 26.1563C72.6855 25.7344 72.3691 25.3125 72.0703 24.8907C68.2614 19.7785 63.0892 15.843 57.1465 13.5352C53.2705 12.0191 49.1444 11.2439 44.9824 11.25C39.9406 11.2501 34.9632 12.3827 30.4178 14.5642C25.8723 16.7457 21.8749 19.9202 18.7207 23.8536C17.5781 25.27 16.5495 26.7747 15.6445 28.3536C18.1406 28.3711 21.2344 28.3711 21.5859 28.3711C24.7676 28.3711 29.6719 27.9844 29.6719 27.9844C31.3242 27.8789 31.5 30.2871 29.8652 30.4805C29.8652 30.4805 28.2129 30.6739 26.3848 30.7618L37.4414 63.6329L44.0859 43.7168L39.375 30.7793C37.7227 30.6914 36.1934 30.4981 36.1934 30.4981C34.541 30.4102 34.752 27.8965 36.3691 28.002C36.3691 28.002 41.3789 28.3887 44.3672 28.3887C47.5488 28.3887 52.4531 28.002 52.4531 28.002C54.0879 27.8965 54.2988 30.3047 52.6465 30.4981C52.6465 30.4981 51.0117 30.6914 49.1836 30.7793L60.1348 63.4043L63.1758 53.2793C64.7051 49.3418 65.4785 46.0899 65.4785 43.4883C65.4785 39.7442 64.125 37.1426 62.9648 35.1211C61.4356 32.6075 59.9941 30.4981 59.9941 28.0196C59.9941 25.2246 62.1035 22.6231 65.0918 22.6231H65.4785C70.084 22.5 71.5957 27.0704 71.7891 30.1817V30.2871C71.8594 31.5528 71.8066 32.4844 71.8066 33.5918C71.8066 36.6504 71.2266 40.1133 69.5039 44.4551L62.6484 64.2833L58.7285 75.8321C59.0449 75.6915 59.3438 75.5508 59.6602 75.3926C69.627 70.5762 76.8867 60.9786 78.416 49.6055C78.6428 48.0927 78.7544 46.5649 78.75 45.0352C78.7567 40.1291 77.6887 35.2812 75.6211 30.8321Z" fill="#767676"/>
<path d="M45 8.4375C53.4354 8.44185 61.61 11.362 68.139 16.7033C74.668 22.0446 79.1499 29.4785 80.8254 37.7459C82.501 46.0133 81.2672 54.6056 77.3331 62.0675C73.3989 69.5294 67.0064 75.4019 59.2383 78.6902C50.3031 82.4665 40.2337 82.5385 31.2454 78.8906C22.257 75.2426 15.086 68.1735 11.3098 59.2383C7.53354 50.3031 7.46147 40.2337 11.1094 31.2454C14.7574 22.257 21.8265 15.086 30.7617 11.3098C35.2661 9.40377 40.109 8.42683 45 8.4375ZM45 5.625C23.2541 5.625 5.625 23.2541 5.625 45C5.625 66.7459 23.2541 84.375 45 84.375C66.7459 84.375 84.375 66.7459 84.375 45C84.375 23.2541 66.7459 5.625 45 5.625Z" fill="#767676"/>
</svg>
