<svg width="90" height="90" viewBox="0 0 90 90" fill="none" xmlns="http://www.w3.org/2000/svg">
<rect width="90" height="90" fill="white"/>
<path d="M68.9062 77.3438V56.25H75.9375V84.375H11.25V56.25H18.2812V77.3438H68.9062Z" fill="#767676"/>
<path d="M26.209 54.276L61.1139 61.4602L62.5904 54.5484L27.6855 47.3643L26.209 54.276ZM30.8268 37.9072L63.1441 52.7344L66.0938 46.3641L33.7816 31.4508L30.8268 37.9072ZM39.7828 22.2627L67.2047 44.724L71.7293 39.3592L44.3074 16.8979L39.7828 22.2627ZM57.6562 5.625L51.7869 9.80859L73.0248 37.9986L78.75 33.75L57.6562 5.625ZM25.3125 70.3125H61.1719V63.2812H25.3125V70.3125Z" fill="#767676"/>
</svg>
