<svg width="90" height="90" viewBox="0 0 90 90" fill="none" xmlns="http://www.w3.org/2000/svg">
<path d="M83.1727 38.932L82.7754 37.2463H46.1355V52.7537H68.0273C65.7545 63.5467 55.2076 69.2279 46.5926 69.2279C40.3242 69.2279 33.7166 66.5912 29.3432 62.3531C27.0357 60.0814 25.199 57.3768 23.9382 54.3943C22.6774 51.4118 22.0172 48.2099 21.9955 44.9719C21.9955 38.4398 24.9311 31.9061 29.2025 27.6082C33.474 23.3104 39.9252 20.9057 46.3395 20.9057C53.6854 20.9057 58.95 24.8063 60.9188 26.5852L71.9385 15.6234C68.7059 12.7828 59.8254 5.625 45.9844 5.625C35.3057 5.625 25.0664 9.71543 17.5816 17.1756C10.1953 24.5215 6.37207 35.1439 6.37207 45C6.37207 54.8561 9.98965 64.9477 17.1475 72.3516C24.7957 80.2477 35.6273 84.375 46.7807 84.375C56.9285 84.375 66.5473 80.3988 73.4027 73.1848C80.1422 66.0832 83.6279 56.257 83.6279 45.9562C83.6279 41.6197 83.192 39.0445 83.1727 38.932Z" fill="#767676"/>
</svg>
