<svg width="52" height="55" viewBox="0 0 52 55" fill="none" xmlns="http://www.w3.org/2000/svg">
<path fill-rule="evenodd" clip-rule="evenodd" d="M7.3 5.08357V48.4836H44.7V5.08357H7.3ZM7 2.78357C5.89543 2.78357 5 3.679 5 4.78357V48.7836C5 49.8881 5.89543 50.7836 7 50.7836H45C46.1046 50.7836 47 49.8881 47 48.7836V4.78357C47 3.679 46.1046 2.78357 45 2.78357H7Z" fill="#F0932B"/>
<path fill-rule="evenodd" clip-rule="evenodd" d="M27.2121 22.0836H24.7879C21.5754 22.0836 18.9083 24.4183 18.3908 27.4836H33.6092C33.0917 24.4183 30.4246 22.0836 27.2121 22.0836ZM24.7879 19.7836C19.9345 19.7836 16 23.718 16 28.5714C16 29.2409 16.5427 29.7836 17.2121 29.7836H34.7879C35.4573 29.7836 36 29.2409 36 28.5714C36 23.718 32.0655 19.7836 27.2121 19.7836H24.7879Z" fill="#F0932B"/>
<path fill-rule="evenodd" clip-rule="evenodd" d="M26 17.4836C28.0435 17.4836 29.7 15.827 29.7 13.7836C29.7 11.7401 28.0435 10.0836 26 10.0836C23.9565 10.0836 22.3 11.7401 22.3 13.7836C22.3 15.827 23.9565 17.4836 26 17.4836ZM26 19.7836C29.3137 19.7836 32 17.0973 32 13.7836C32 10.4699 29.3137 7.78357 26 7.78357C22.6863 7.78357 20 10.4699 20 13.7836C20 17.0973 22.6863 19.7836 26 19.7836Z" fill="#F0932B"/>
<path fill-rule="evenodd" clip-rule="evenodd" d="M13.3501 36.7835C13.3501 36.1484 13.865 35.6335 14.5001 35.6335H37.5001C38.1352 35.6335 38.6501 36.1484 38.6501 36.7835C38.6501 37.4187 38.1352 37.9335 37.5001 37.9335H14.5001C13.865 37.9335 13.3501 37.4187 13.3501 36.7835Z" fill="#F0932B"/>
<path fill-rule="evenodd" clip-rule="evenodd" d="M13.3501 42.7835C13.3501 42.1484 13.865 41.6335 14.5001 41.6335H37.5001C38.1352 41.6335 38.6501 42.1484 38.6501 42.7835C38.6501 43.4187 38.1352 43.9335 37.5001 43.9335H14.5001C13.865 43.9335 13.3501 43.4187 13.3501 42.7835Z" fill="#F0932B"/>
</svg>
