<svg width="52" height="55" viewBox="0 0 52 55" fill="none" xmlns="http://www.w3.org/2000/svg">
<path fill-rule="evenodd" clip-rule="evenodd" d="M6.3 6.08357V49.4836H45.7V6.08357H6.3ZM6 3.78357C4.89543 3.78357 4 4.679 4 5.78357V49.7836C4 50.8881 4.89543 51.7836 6 51.7836H46C47.1046 51.7836 48 50.8881 48 49.7836V5.78357C48 4.679 47.1046 3.78357 46 3.78357H6Z" fill="#F0932B"/>
<circle cx="10.5" cy="10.2836" r="1.5" fill="#F0932B"/>
<circle cx="15.5" cy="10.2836" r="1.5" fill="#F0932B"/>
<circle cx="20.5" cy="10.2836" r="1.5" fill="#F0932B"/>
<rect x="24" y="8.78357" width="18" height="3" rx="1.5" fill="#F0932B"/>
<path fill-rule="evenodd" clip-rule="evenodd" d="M17.1867 22.9704L18.8131 24.5967L13.6262 29.7836L18.8131 34.9704L17.1867 36.5967L10.3735 29.7836L17.1867 22.9704Z" fill="#F0932B"/>
<path fill-rule="evenodd" clip-rule="evenodd" d="M33.7484 22.9104L32.2516 24.6567L38.2329 29.7835L32.2516 34.9104L33.7484 36.6567L41.7671 29.7835L33.7484 22.9104Z" fill="#F0932B"/>
</svg>
