<svg width="52" height="54" viewBox="0 0 52 54" fill="none" xmlns="http://www.w3.org/2000/svg">
<path fill-rule="evenodd" clip-rule="evenodd" d="M26 49.4745C38.5369 49.4745 48.7 39.3114 48.7 26.7745C48.7 14.2377 38.5369 4.07454 26 4.07454C13.4631 4.07454 3.3 14.2377 3.3 26.7745C3.3 39.3114 13.4631 49.4745 26 49.4745ZM26 51.7745C39.8071 51.7745 51 40.5817 51 26.7745C51 12.9674 39.8071 1.77454 26 1.77454C12.1929 1.77454 1 12.9674 1 26.7745C1 40.5817 12.1929 51.7745 26 51.7745Z" fill="#F0932B"/>
<path d="M23.47 17.8745V24.2445H17.1C16.4096 24.2445 15.85 24.8042 15.85 25.4945V28.0545C15.85 28.7449 16.4097 29.3045 17.1 29.3045H23.47L23.47 35.6745C23.47 36.3649 24.0296 36.9245 24.72 36.9245H27.28C27.9704 36.9245 28.53 36.3649 28.53 35.6745V29.3045H34.9C35.5904 29.3045 36.15 28.7449 36.15 28.0545V25.4945C36.15 24.8042 35.5904 24.2445 34.9 24.2445H28.53V17.8745C28.53 17.1842 27.9704 16.6245 27.28 16.6245H24.72C24.0296 16.6245 23.47 17.1842 23.47 17.8745Z" stroke="#F0932B" stroke-width="2.3"/>
</svg>
