<svg width="52" height="55" viewBox="0 0 52 55" fill="none" xmlns="http://www.w3.org/2000/svg">
<g clip-path="url(#clip0)">
<path fill-rule="evenodd" clip-rule="evenodd" d="M26 50.4715C39.0891 50.4715 49.7 39.8606 49.7 26.7715C49.7 13.6823 39.0891 3.07148 26 3.07148C12.9109 3.07148 2.3 13.6823 2.3 26.7715C2.3 39.8606 12.9109 50.4715 26 50.4715ZM26 52.7715C40.3594 52.7715 52 41.1309 52 26.7715C52 12.4121 40.3594 0.771484 26 0.771484C11.6406 0.771484 0 12.4121 0 26.7715C0 41.1309 11.6406 52.7715 26 52.7715Z" fill="#F0932B"/>
<path fill-rule="evenodd" clip-rule="evenodd" d="M25.0001 10.6215C25.6352 10.6215 26.1501 11.1363 26.1501 11.7715V27.1215H37.5001C38.1352 27.1215 38.6501 27.6363 38.6501 28.2715C38.6501 28.9066 38.1352 29.4215 37.5001 29.4215H25.0001C24.365 29.4215 23.8501 28.9066 23.8501 28.2715V11.7715C23.8501 11.1363 24.365 10.6215 25.0001 10.6215Z" fill="#F0932B"/>
</g>
<defs>
<clipPath id="clip0">
<path d="M0 0.771484H52V54.6083H0V0.771484Z" fill="white"/>
</clipPath>
</defs>
</svg>
