<svg width="52" height="55" viewBox="0 0 52 55" fill="none" xmlns="http://www.w3.org/2000/svg">
<path fill-rule="evenodd" clip-rule="evenodd" d="M25.721 1.56317L46.6925 10.4961L46.7803 11.1781C48.2104 22.2891 44.5548 32.6155 39.8499 40.1322C37.4946 43.895 34.8543 46.9905 32.4057 49.1595C31.182 50.2435 29.9876 51.1127 28.8827 51.7168C27.7982 52.3098 26.707 52.6989 25.7151 52.6989C24.7309 52.6989 23.6442 52.3241 22.5579 51.7462C21.4523 51.158 20.2554 50.31 19.0267 49.2486C16.5681 47.1246 13.9092 44.0827 11.5182 40.3556C6.74 32.9072 2.95091 22.5911 4.09252 11.2123L4.16427 10.4972L25.721 1.56317ZM6.31545 12.1706C5.46677 22.58 8.96745 32.0753 13.4342 39.0382C15.7165 42.5959 18.2309 45.4597 20.5003 47.4202C21.6356 48.401 22.6914 49.14 23.6091 49.6282C24.546 50.1266 25.2531 50.3177 25.7151 50.3177C26.1694 50.3177 26.872 50.1233 27.8086 49.6112C28.7248 49.1102 29.7787 48.3527 30.9104 47.3502C33.1725 45.3463 35.6709 42.43 37.9197 38.8372C42.3248 31.7996 45.6882 22.3072 44.5812 12.1716L25.7092 4.13303L6.31545 12.1706Z" fill="#F0932B"/>
<path fill-rule="evenodd" clip-rule="evenodd" d="M25.6098 15.0292L35.906 19.248L35.9981 19.9361C36.691 25.1153 34.918 29.8949 32.6749 33.3421C31.55 35.0708 30.2836 36.5021 29.0953 37.5147C28.5017 38.0205 27.9094 38.4374 27.3468 38.7333C26.8035 39.0191 26.1986 39.2397 25.6041 39.2397C25.0171 39.2397 24.4166 39.0282 23.8722 38.7496C23.3096 38.4616 22.7162 38.055 22.1199 37.5595C20.9264 36.5676 19.6507 35.1607 18.5086 33.4481C16.2292 30.0301 14.3971 25.2616 14.9489 19.9717L15.0242 19.2494L25.6098 15.0292ZM17.1774 20.9427C16.926 25.2349 18.4475 29.1653 20.4013 32.0952C21.4299 33.6376 22.557 34.8693 23.5596 35.7025C24.0613 36.1194 24.5142 36.4218 24.8914 36.6149C25.2867 36.8172 25.5194 36.8585 25.6041 36.8585C25.6814 36.8585 25.9097 36.8183 26.3051 36.6104C26.6813 36.4125 27.1333 36.1025 27.6337 35.6761C28.6334 34.8242 29.7537 33.5694 30.7674 32.0116C32.6968 29.0465 34.1555 25.1191 33.7947 20.9439L25.5984 17.5854L17.1774 20.9427Z" fill="#F0932B"/>
</svg>
