<svg width="100" height="100" viewBox="0 0 100 100" fill="none" xmlns="http://www.w3.org/2000/svg">
<path d="M98.5117 61.1467C91.9363 87.5206 65.224 103.571 38.8471 96.9944C12.4809 90.419 -3.56985 63.7052 3.00861 37.3329C9.58092 10.956 36.2933 -5.09634 62.6625 1.47905C89.0379 8.05443 105.087 34.7714 98.5117 61.1467V61.1467Z" fill="#F7931A"/>
<path d="M98.5117 61.1467C91.9363 87.5206 65.224 103.571 38.8471 96.9944C12.4809 90.419 -3.56985 63.7052 3.00861 37.3329C9.58092 10.956 36.2933 -5.09634 62.6625 1.47905C89.0379 8.05443 105.087 34.7714 98.5117 61.1467V61.1467Z" fill="url(#paint0_linear)"/>
<path d="M72.4657 42.2234C73.4457 35.6727 68.4581 32.1511 61.6381 29.8019L63.8503 20.928L58.4488 19.5819L56.295 28.2219C54.875 27.868 53.4165 27.5342 51.9673 27.2034L54.1365 18.5065L48.738 17.1603L46.5242 26.0311C45.3488 25.7634 44.195 25.4988 43.075 25.2203L43.0811 25.1926L35.6319 23.3326L34.195 29.1018C34.195 29.1018 38.2027 30.0203 38.1181 30.0772C40.3058 30.6234 40.7011 32.0711 40.635 33.2188L38.115 43.328C38.2657 43.3665 38.4612 43.4219 38.6765 43.508C38.4965 43.4634 38.3042 43.4142 38.1058 43.3665L34.5734 57.528C34.3057 58.1927 33.6273 59.1896 32.0981 58.8111C32.1519 58.8896 28.1719 57.8311 28.1719 57.8311L25.4904 64.0142L32.5196 65.7665C33.8273 66.0942 35.1088 66.4372 36.3703 66.7603L34.135 75.7357L39.5304 77.0819L41.7442 68.2019C43.2181 68.6019 44.6488 68.9711 46.0488 69.3188L43.8427 78.1573L49.2442 79.5034L51.4796 70.545C60.6904 72.288 67.6165 71.5849 70.5319 63.2542C72.8811 56.5465 70.415 52.6773 65.5688 50.1542C69.098 49.3403 71.7565 47.0188 72.4657 42.2234V42.2234ZM60.1242 59.5296C58.455 66.2373 47.1611 62.6111 43.4996 61.7019L46.4657 49.8111C50.1273 50.7249 61.8688 52.5342 60.1242 59.5296ZM61.795 42.1265C60.2719 48.228 50.8719 45.128 47.8227 44.368L50.5119 33.5834C53.5611 34.3434 63.3811 35.7619 61.795 42.1265Z" fill="white"/>
<defs>
<linearGradient id="paint0_linear" x1="50.7596" y1="0.00582123" x2="50.7596" y2="98.4683" gradientUnits="userSpaceOnUse">
<stop stop-color="white" stop-opacity="0.59"/>
<stop offset="1" stop-color="white" stop-opacity="0"/>
</linearGradient>
</defs>
</svg>
