<svg width="125" height="24" viewBox="0 0 125 24" fill="none" xmlns="http://www.w3.org/2000/svg">
<path d="M10.128 19.288C8.384 19.288 6.808 18.912 5.4 18.16C4.008 17.408 2.912 16.376 2.112 15.064C1.328 13.736 0.936 12.248 0.936 10.6C0.936 8.952 1.328 7.472 2.112 6.16C2.912 4.832 4.008 3.792 5.4 3.04C6.808 2.288 8.384 1.912 10.128 1.912C11.872 1.912 13.44 2.288 14.832 3.04C16.224 3.792 17.32 4.832 18.12 6.16C18.92 7.472 19.32 8.952 19.32 10.6C19.32 12.248 18.92 13.736 18.12 15.064C17.32 16.376 16.224 17.408 14.832 18.16C13.44 18.912 11.872 19.288 10.128 19.288ZM10.128 15.976C11.12 15.976 12.016 15.752 12.816 15.304C13.616 14.84 14.24 14.2 14.688 13.384C15.152 12.568 15.384 11.64 15.384 10.6C15.384 9.56 15.152 8.632 14.688 7.816C14.24 7 13.616 6.368 12.816 5.92C12.016 5.456 11.12 5.224 10.128 5.224C9.136 5.224 8.24 5.456 7.44 5.92C6.64 6.368 6.008 7 5.544 7.816C5.096 8.632 4.872 9.56 4.872 10.6C4.872 11.64 5.096 12.568 5.544 13.384C6.008 14.2 6.64 14.84 7.44 15.304C8.24 15.752 9.136 15.976 10.128 15.976ZM25.554 7.792C26.002 7.168 26.602 6.696 27.354 6.376C28.122 6.056 29.002 5.896 29.994 5.896V9.352C29.578 9.32 29.298 9.304 29.154 9.304C28.082 9.304 27.242 9.608 26.634 10.216C26.026 10.808 25.722 11.704 25.722 12.904V19H21.978V6.088H25.554V7.792ZM32.2202 6.088H35.9642V19H32.2202V6.088ZM34.0922 4.288C33.4042 4.288 32.8442 4.088 32.4122 3.688C31.9802 3.288 31.7642 2.792 31.7642 2.2C31.7642 1.608 31.9802 1.112 32.4122 0.711999C32.8442 0.311999 33.4042 0.111999 34.0922 0.111999C34.7802 0.111999 35.3402 0.303999 35.7722 0.688C36.2042 1.072 36.4202 1.552 36.4202 2.128C36.4202 2.752 36.2042 3.272 35.7722 3.688C35.3402 4.088 34.7802 4.288 34.0922 4.288ZM52.7589 6.088V16.84C52.7589 19.208 52.1429 20.968 50.9109 22.12C49.6789 23.272 47.8789 23.848 45.5109 23.848C44.2629 23.848 43.0789 23.696 41.9589 23.392C40.8389 23.088 39.9109 22.648 39.1749 22.072L40.6629 19.384C41.2069 19.832 41.8949 20.184 42.7269 20.44C43.5589 20.712 44.3909 20.848 45.2229 20.848C46.5189 20.848 47.4709 20.552 48.0789 19.96C48.7029 19.384 49.0149 18.504 49.0149 17.32V16.768C48.0389 17.84 46.6789 18.376 44.9349 18.376C43.7509 18.376 42.6629 18.12 41.6709 17.608C40.6949 17.08 39.9189 16.344 39.3429 15.4C38.7669 14.456 38.4789 13.368 38.4789 12.136C38.4789 10.904 38.7669 9.816 39.3429 8.872C39.9189 7.928 40.6949 7.2 41.6709 6.688C42.6629 6.16 43.7509 5.896 44.9349 5.896C46.8069 5.896 48.2309 6.512 49.2069 7.744V6.088H52.7589ZM45.6789 15.304C46.6709 15.304 47.4789 15.016 48.1029 14.44C48.7429 13.848 49.0629 13.08 49.0629 12.136C49.0629 11.192 48.7429 10.432 48.1029 9.856C47.4789 9.264 46.6709 8.968 45.6789 8.968C44.6869 8.968 43.8709 9.264 43.2309 9.856C42.5909 10.432 42.2709 11.192 42.2709 12.136C42.2709 13.08 42.5909 13.848 43.2309 14.44C43.8709 15.016 44.6869 15.304 45.6789 15.304ZM56.2436 6.088H59.9876V19H56.2436V6.088ZM58.1156 4.288C57.4276 4.288 56.8676 4.088 56.4356 3.688C56.0036 3.288 55.7876 2.792 55.7876 2.2C55.7876 1.608 56.0036 1.112 56.4356 0.711999C56.8676 0.311999 57.4276 0.111999 58.1156 0.111999C58.8036 0.111999 59.3636 0.303999 59.7956 0.688C60.2276 1.072 60.4436 1.552 60.4436 2.128C60.4436 2.752 60.2276 3.272 59.7956 3.688C59.3636 4.088 58.8036 4.288 58.1156 4.288ZM71.3104 5.896C72.9104 5.896 74.1984 6.376 75.1744 7.336C76.1664 8.296 76.6624 9.72 76.6624 11.608V19H72.9184V12.184C72.9184 11.16 72.6944 10.4 72.2464 9.904C71.7984 9.392 71.1504 9.136 70.3024 9.136C69.3584 9.136 68.6064 9.432 68.0464 10.024C67.4864 10.6 67.2064 11.464 67.2064 12.616V19H63.4624V6.088H67.0384V7.6C67.5344 7.056 68.1504 6.64 68.8864 6.352C69.6224 6.048 70.4304 5.896 71.3104 5.896ZM87.5921 2.2C89.0801 2.2 90.3681 2.448 91.4561 2.944C92.5601 3.44 93.4081 4.144 94.0001 5.056C94.5921 5.968 94.8881 7.048 94.8881 8.296C94.8881 9.528 94.5921 10.608 94.0001 11.536C93.4081 12.448 92.5601 13.152 91.4561 13.648C90.3681 14.128 89.0801 14.368 87.5921 14.368H84.2081V19H80.3201V2.2H87.5921ZM87.3761 11.2C88.5441 11.2 89.4321 10.952 90.0401 10.456C90.6481 9.944 90.9521 9.224 90.9521 8.296C90.9521 7.352 90.6481 6.632 90.0401 6.136C89.4321 5.624 88.5441 5.368 87.3761 5.368H84.2081V11.2H87.3761ZM102.491 5.896C104.491 5.896 106.027 6.376 107.099 7.336C108.171 8.28 108.707 9.712 108.707 11.632V19H105.203V17.392C104.499 18.592 103.187 19.192 101.267 19.192C100.275 19.192 99.4107 19.024 98.6747 18.688C97.9547 18.352 97.4027 17.888 97.0187 17.296C96.6347 16.704 96.4427 16.032 96.4427 15.28C96.4427 14.08 96.8907 13.136 97.7867 12.448C98.6987 11.76 100.099 11.416 101.987 11.416H104.963C104.963 10.6 104.715 9.976 104.219 9.544C103.723 9.096 102.979 8.872 101.987 8.872C101.299 8.872 100.619 8.984 99.9467 9.208C99.2907 9.416 98.7307 9.704 98.2667 10.072L96.9227 7.456C97.6267 6.96 98.4667 6.576 99.4427 6.304C100.435 6.032 101.451 5.896 102.491 5.896ZM102.203 16.672C102.843 16.672 103.411 16.528 103.907 16.24C104.403 15.936 104.755 15.496 104.963 14.92V13.6H102.395C100.859 13.6 100.091 14.104 100.091 15.112C100.091 15.592 100.275 15.976 100.643 16.264C101.027 16.536 101.547 16.672 102.203 16.672ZM124.677 6.088L118.845 19.792C118.253 21.28 117.517 22.328 116.637 22.936C115.773 23.544 114.725 23.848 113.493 23.848C112.821 23.848 112.157 23.744 111.501 23.536C110.845 23.328 110.309 23.04 109.893 22.672L111.261 20.008C111.549 20.264 111.877 20.464 112.245 20.608C112.629 20.752 113.005 20.824 113.373 20.824C113.885 20.824 114.301 20.696 114.621 20.44C114.941 20.2 115.229 19.792 115.485 19.216L115.533 19.096L109.941 6.088H113.805L117.429 14.848L121.077 6.088H124.677Z" fill="white"/>
</svg>
