<svg width="463" height="572" viewBox="0 0 463 572" fill="none" xmlns="http://www.w3.org/2000/svg">
<path d="M16.8184 0H239.688C276.691 0 306.688 29.9969 306.688 67V572H83.8183C46.8152 572 16.8184 542.003 16.8184 505V0Z" fill="#FFB767"/>
<path d="M315.055 285.734L202.234 258.591V471L315.055 441.5V285.734Z" fill="#E0E0E0"/>
<path opacity="0.1" d="M315.055 285.734L202.234 258.591V471L315.055 441.5V285.734Z" fill="black"/>
<path d="M89.4143 285.734L202.234 258.591V471L89.4143 442.091V285.734Z" fill="#E0E0E0"/>
<path opacity="0.17" d="M89.4143 284.792L202.234 257.654V471L89.4143 442.09V284.792Z" fill="black"/>
<path d="M201.292 259.532L260.713 210.207L373.528 239.122L314.112 286.67L201.292 259.532Z" fill="#E0E0E0"/>
<path d="M32.469 240.649L90.3567 286.67L203.172 259.532L145.88 211.149L32.469 240.649Z" fill="#E0E0E0"/>
<path opacity="0.05" d="M31.5319 239.712L90.8254 286.67L203.646 259.532L144.938 210.207L31.5319 239.712Z" fill="black"/>
<g filter="url(#filter0_d)">
<path d="M89.4143 285.734V442.091L202.234 471L203.757 315.825L89.4143 285.734Z" fill="#E0E0E0"/>
</g>
<path d="M315.055 441.5L202.234 471V315.825L315.055 285.734V441.5Z" fill="#E0E0E0"/>
<g opacity="0.07" filter="url(#filter1_d)">
<path d="M315.055 441.5L202.234 471V315.825L315.055 285.734V441.5Z" fill="black"/>
</g>
<path opacity="0.07" d="M270.16 389.574V440.909L315.055 428.516V377.186L270.16 389.574Z" fill="black"/>
<path opacity="0.1" d="M87.9392 366.861L151.141 382.792L201.942 341.489V316.117L89.1214 287.798L87.9392 366.861Z" fill="black"/>
<path opacity="0.1" d="M315.938 366.861L252.736 382.792L201.942 341.489V316.117L314.756 287.798L315.938 366.861Z" fill="black"/>
<path d="M89.4143 285.734L31.5319 333.527L144.347 361.846L202.234 315.825L89.4143 285.734Z" fill="#E0E0E0"/>
<path d="M315.055 285.734L373.528 333.527L261.299 361.846L202.234 315.825L315.055 285.734Z" fill="#E0E0E0"/>
<path opacity="0.07" d="M315.055 285.734L373.528 333.527L261.299 361.846L202.234 315.825L315.055 285.734Z" fill="black"/>
<path d="M25.52 121C25.52 145.383 45.3078 184.298 69.7173 184.298C94.1267 184.298 113.915 145.383 113.915 121C113.915 109.291 109.258 98.0614 100.969 89.7819C92.6809 81.5024 81.4391 76.851 69.7173 76.851C57.9954 76.851 46.7537 81.5024 38.4651 89.7819C30.1765 98.0614 25.52 109.291 25.52 121Z" fill="#D35400"/>
<path d="M68.0804 185.867C73.6346 187.778 74.9643 195.343 73.0538 200.892C71.1434 206.441 67.0972 211.044 65.0613 216.548C64.1323 219.324 63.4655 222.18 63.0695 225.08C61.9064 231.985 60.7402 239.011 61.6363 245.956C62.4864 252.543 65.1582 258.754 68.139 264.691C73.912 276.187 80.934 287.013 89.0784 296.974" stroke="#2F2E41" stroke-width="2"/>
<path d="M65.4573 188.553C68.2973 186.732 71.1372 186.732 73.9772 188.553V180.042H65.4573V188.553Z" fill="#FF6584"/>
<path opacity="0.4" d="M51.3462 113.553C56.4927 113.553 60.6649 108.552 60.6649 102.383C60.6649 96.2138 56.4927 91.2128 51.3462 91.2128C46.1996 91.2128 42.0275 96.2138 42.0275 102.383C42.0275 108.552 46.1996 113.553 51.3462 113.553Z" fill="white"/>
<path d="M378.033 194.936C375.193 193.116 372.353 193.116 369.513 194.936V186.426H378.033V194.936Z" fill="#6C63FF"/>
<path d="M375.41 192.251C369.856 194.161 368.526 201.727 370.437 207.275C372.347 212.824 376.393 217.427 378.429 222.931C379.358 225.707 380.025 228.563 380.421 231.463C381.584 238.368 382.75 245.394 381.854 252.339C381.004 258.926 378.332 265.137 375.351 271.074C369.579 282.57 362.556 293.396 354.412 303.357" stroke="#2F2E41" stroke-width="2"/>
<path d="M417.97 127.383C417.97 151.766 398.183 190.681 373.773 190.681C349.364 190.681 329.576 151.766 329.576 127.383C329.576 115.674 334.232 104.445 342.521 96.1651C350.809 87.8855 362.051 83.2341 373.773 83.2341C385.495 83.2341 396.737 87.8855 405.025 96.1651C413.314 104.445 417.97 115.674 417.97 127.383Z" fill="#FDC510"/>
<path opacity="0.4" d="M392.144 119.936C397.291 119.936 401.463 114.935 401.463 108.766C401.463 102.597 397.291 97.5959 392.144 97.5959C386.998 97.5959 382.826 102.597 382.826 108.766C382.826 114.935 386.998 119.936 392.144 119.936Z" fill="white"/>
<rect width="8.68826" height="8.68352" transform="matrix(0.866261 0.499591 -0.500409 0.865789 166.639 171.454)" fill="#CDCAFF"/>
<rect width="11.0051" height="10.9991" transform="matrix(0.866262 0.49959 -0.50041 0.865788 119.504 198.001)" fill="#CDCAFF"/>
<rect width="7.5655" height="7.56136" transform="matrix(0.866262 0.49959 -0.50041 0.865788 110.243 177.948)" fill="#CDCAFF"/>
<rect width="7.56549" height="7.56136" transform="matrix(0.866262 0.49959 -0.50041 0.865788 144.16 171.532)" fill="#FF6584"/>
<rect width="7.56551" height="7.56137" transform="matrix(0.866262 0.499589 -0.500411 0.865788 126.54 184.501)" fill="#FAE026"/>
<rect width="11.0051" height="10.9991" transform="matrix(0.866262 0.49959 -0.50041 0.865788 180.504 147)" fill="#FAE026"/>
<rect width="8.69001" height="8.68176" transform="matrix(0.965997 0.258554 -0.259084 0.965855 334.271 161.775)" fill="#FF6584"/>
<rect width="11.0073" height="10.9969" transform="matrix(0.965996 0.258555 -0.259083 0.965855 319.074 197.394)" fill="#FF6584"/>
<rect width="8.69001" height="8.68176" transform="matrix(0.965997 0.258554 -0.259084 0.965855 318.584 181.393)" fill="#FAE026"/>
<rect width="11.0073" height="10.9969" transform="matrix(0.965997 0.258555 -0.259084 0.965855 299.205 222.243)" fill="#FAE026"/>
<rect width="8.69001" height="8.68179" transform="matrix(0.965997 0.258555 -0.259083 0.965855 303.275 252.043)" fill="#6C63FF"/>
<rect width="3.61773" height="3.6143" transform="matrix(0.965997 0.258555 0.259084 -0.965855 297.598 279.189)" fill="#6C63FF"/>
<rect width="11.0073" height="10.9968" transform="matrix(0.965997 0.258555 -0.259084 0.965855 278.555 292.244)" fill="#6C63FF"/>
<rect width="7.56698" height="7.55982" transform="matrix(0.965996 0.258555 -0.259083 0.965855 250.484 272.896)" fill="#6C63FF"/>
<rect width="7.56704" height="7.55985" transform="matrix(0.965997 0.258554 -0.259084 0.965855 201.605 303.447)" fill="#6C63FF"/>
<rect width="8.69001" height="8.68177" transform="matrix(0.965997 0.258555 -0.259084 0.965855 338.989 234.855)" fill="#FF6584"/>
<rect width="11.0072" height="10.9968" transform="matrix(0.965996 0.258556 -0.259083 0.965855 323.793 270.473)" fill="#FF6584"/>
<rect width="4.58002" height="4.57564" transform="matrix(0.965997 0.258552 -0.259086 0.965854 309.731 270.905)" fill="#FF6584"/>
<rect width="7.56704" height="7.55985" transform="matrix(0.965997 0.258554 -0.259084 0.965855 281.583 257.93)" fill="#FF6584"/>
<rect width="8.69004" height="8.68176" transform="matrix(0.965997 0.258554 -0.259085 0.965855 323.303 254.472)" fill="#FAE026"/>
<rect width="11.0073" height="10.9969" transform="matrix(0.965997 0.258555 -0.259084 0.965855 303.923 295.322)" fill="#FAE026"/>
<rect width="7.567" height="7.55984" transform="matrix(0.965997 0.258555 -0.259083 0.965855 267.924 275.012)" fill="#FAE026"/>
<rect width="8.68351" height="8.68827" transform="matrix(0.500411 0.865788 -0.866263 0.499589 132.257 231.906)" fill="#6C63FF"/>
<rect width="8.6835" height="8.68825" transform="matrix(0.50041 0.865788 -0.866262 0.49959 160.326 271)" fill="#6C63FF"/>
<rect width="3.61502" height="3.61699" transform="matrix(0.50041 0.865789 0.866262 -0.499591 109.026 247.092)" fill="#6C63FF"/>
<rect width="10.999" height="11.0051" transform="matrix(0.500411 0.865788 -0.866262 0.499589 86.3193 242.872)" fill="#6C63FF"/>
<rect width="7.56136" height="7.5655" transform="matrix(0.500411 0.865788 -0.866262 0.499589 80.1664 209.364)" fill="#CDCAFF"/>
<rect width="8.68351" height="8.68825" transform="matrix(0.500409 0.865789 -0.866261 0.499591 169.677 244.979)" fill="#FF6584"/>
<rect width="8.68352" height="8.68826" transform="matrix(0.500409 0.865789 -0.866262 0.499591 192.795 288.021)" fill="#FF6584"/>
<rect width="10.9991" height="11.0051" transform="matrix(0.50041 0.865789 -0.866262 0.49959 133.719 259.431)" fill="#FF6584"/>
<rect width="10.9991" height="11.0051" transform="matrix(0.500409 0.865789 -0.866262 0.499591 242.195 288.553)" fill="#FF6584"/>
<rect width="4.57655" height="4.57907" transform="matrix(0.500412 0.865787 -0.866263 0.499588 123.469 249.804)" fill="#FF6584"/>
<rect width="7.56136" height="7.5655" transform="matrix(0.500411 0.865788 -0.866262 0.499589 112.751 220.747)" fill="#FF6584"/>
<rect width="8.6835" height="8.68825" transform="matrix(0.500411 0.865788 -0.866262 0.499589 144.699 247.771)" fill="#FAE026"/>
<rect width="8.68354" height="8.68827" transform="matrix(0.500408 0.865789 -0.866261 0.499592 172.768 286.864)" fill="#FAE026"/>
<rect width="10.9991" height="11.0051" transform="matrix(0.50041 0.865788 -0.866262 0.49959 102.079 262.968)" fill="#FAE026"/>
<rect width="7.56136" height="7.5655" transform="matrix(0.50041 0.865788 -0.866262 0.49959 90.9999 223.179)" fill="#FAE026"/>
<g clip-path="url(#clip0)">
<path d="M194.123 124.111H186.614C159.213 124.111 137 146.807 137 174.805V174.805C137 202.803 159.213 225.499 186.614 225.499H194.123C221.524 225.499 243.737 202.803 243.737 174.805V174.805C243.737 146.807 221.524 124.111 194.123 124.111Z" fill="#F0932B"/>
<path d="M245.845 170.652C258.184 170.652 268.865 172.753 277.888 176.956C287.043 181.158 294.075 187.123 298.984 194.851C303.894 202.578 306.348 211.729 306.348 222.304C306.348 232.743 303.894 241.894 298.984 249.757C294.075 257.484 287.043 263.449 277.888 267.652C268.865 271.719 258.184 273.753 245.845 273.753H217.782V313H185.54V170.652H245.845ZM244.054 246.91C253.739 246.91 261.103 244.808 266.145 240.606C271.187 236.267 273.708 230.167 273.708 222.304C273.708 214.305 271.187 208.204 266.145 204.002C261.103 199.664 253.739 197.494 244.054 197.494H217.782V246.91H244.054Z" fill="white"/>
</g>
<defs>
<filter id="filter0_d" x="89.4143" y="285.734" width="154.343" height="225.266" filterUnits="userSpaceOnUse" color-interpolation-filters="sRGB">
<feFlood flood-opacity="0" result="BackgroundImageFix"/>
<feColorMatrix in="SourceAlpha" type="matrix" values="0 0 0 0 0 0 0 0 0 0 0 0 0 0 0 0 0 0 127 0"/>
<feOffset dx="20" dy="20"/>
<feGaussianBlur stdDeviation="10"/>
<feColorMatrix type="matrix" values="0 0 0 0 0 0 0 0 0 0 0 0 0 0 0 0 0 0 0.09 0"/>
<feBlend mode="normal" in2="BackgroundImageFix" result="effect1_dropShadow"/>
<feBlend mode="normal" in="SourceGraphic" in2="effect1_dropShadow" result="shape"/>
</filter>
<filter id="filter1_d" x="202.234" y="285.734" width="152.82" height="225.266" filterUnits="userSpaceOnUse" color-interpolation-filters="sRGB">
<feFlood flood-opacity="0" result="BackgroundImageFix"/>
<feColorMatrix in="SourceAlpha" type="matrix" values="0 0 0 0 0 0 0 0 0 0 0 0 0 0 0 0 0 0 127 0"/>
<feOffset dx="20" dy="20"/>
<feGaussianBlur stdDeviation="10"/>
<feColorMatrix type="matrix" values="0 0 0 0 0 0 0 0 0 0 0 0 0 0 0 0 0 0 0.09 0"/>
<feBlend mode="normal" in2="BackgroundImageFix" result="effect1_dropShadow"/>
<feBlend mode="normal" in="SourceGraphic" in2="effect1_dropShadow" result="shape"/>
</filter>
<clipPath id="clip0">
<rect x="137" y="116" width="170" height="197" fill="white"/>
</clipPath>
</defs>
</svg>
