<svg width="468" height="311" viewBox="0 0 468 311" fill="none" xmlns="http://www.w3.org/2000/svg">
<g clip-path="url(#clip0)">
<g filter="url(#filter0_d)">
<rect x="23" y="50" width="440" height="246" rx="6" fill="white"/>
</g>
<path d="M69.292 133.6V149H66.432V135.998H63.176V133.6H69.292ZM74.2829 149.154C73.7842 149.154 73.3589 148.985 73.0069 148.648C72.6549 148.296 72.4789 147.856 72.4789 147.328C72.4789 146.785 72.6476 146.345 72.9849 146.008C73.3369 145.671 73.7696 145.502 74.2829 145.502C74.7962 145.502 75.2216 145.671 75.5589 146.008C75.9109 146.345 76.0869 146.785 76.0869 147.328C76.0869 147.856 75.9109 148.296 75.5589 148.648C75.2069 148.985 74.7816 149.154 74.2829 149.154ZM84.3242 149.22C83.0922 149.22 81.9922 148.912 81.0242 148.296C80.0562 147.665 79.2935 146.756 78.7362 145.568C78.1789 144.365 77.9002 142.943 77.9002 141.3C77.9002 139.657 78.1789 138.242 78.7362 137.054C79.2935 135.851 80.0562 134.942 81.0242 134.326C81.9922 133.695 83.0922 133.38 84.3242 133.38C85.5562 133.38 86.6562 133.695 87.6242 134.326C88.6069 134.942 89.3769 135.851 89.9342 137.054C90.4915 138.242 90.7702 139.657 90.7702 141.3C90.7702 142.943 90.4915 144.365 89.9342 145.568C89.3769 146.756 88.6069 147.665 87.6242 148.296C86.6562 148.912 85.5562 149.22 84.3242 149.22ZM84.3242 146.734C85.4242 146.734 86.2895 146.279 86.9202 145.37C87.5655 144.461 87.8882 143.104 87.8882 141.3C87.8882 139.496 87.5655 138.139 86.9202 137.23C86.2895 136.321 85.4242 135.866 84.3242 135.866C83.2389 135.866 82.3735 136.321 81.7282 137.23C81.0975 138.139 80.7822 139.496 80.7822 141.3C80.7822 143.104 81.0975 144.461 81.7282 145.37C82.3735 146.279 83.2389 146.734 84.3242 146.734ZM102.911 140.904C103.718 141.271 104.334 141.769 104.759 142.4C105.199 143.016 105.419 143.742 105.419 144.578C105.419 145.517 105.155 146.338 104.627 147.042C104.114 147.746 103.38 148.289 102.427 148.67C101.474 149.037 100.366 149.22 99.1049 149.22C97.8436 149.22 96.7363 149.037 95.7829 148.67C94.8443 148.289 94.1183 147.746 93.6049 147.042C93.0916 146.338 92.8349 145.517 92.8349 144.578C92.8349 143.742 93.0476 143.016 93.4729 142.4C93.8983 141.769 94.5069 141.271 95.2989 140.904C94.6829 140.567 94.2063 140.127 93.8689 139.584C93.5463 139.027 93.3849 138.389 93.3849 137.67C93.3849 136.805 93.6196 136.049 94.0889 135.404C94.5729 134.759 95.2476 134.26 96.1129 133.908C96.9783 133.556 97.9756 133.38 99.1049 133.38C100.249 133.38 101.254 133.556 102.119 133.908C102.984 134.26 103.659 134.759 104.143 135.404C104.627 136.049 104.869 136.805 104.869 137.67C104.869 138.389 104.7 139.019 104.363 139.562C104.026 140.105 103.542 140.552 102.911 140.904ZM99.1049 135.624C98.2103 135.624 97.4989 135.815 96.9709 136.196C96.4576 136.577 96.2009 137.113 96.2009 137.802C96.2009 138.462 96.4576 138.99 96.9709 139.386C97.4989 139.767 98.2103 139.958 99.1049 139.958C100.014 139.958 100.733 139.767 101.261 139.386C101.789 138.99 102.053 138.462 102.053 137.802C102.053 137.113 101.782 136.577 101.239 136.196C100.711 135.815 99.9996 135.624 99.1049 135.624ZM99.1049 146.976C100.161 146.976 100.997 146.756 101.613 146.316C102.229 145.876 102.537 145.267 102.537 144.49C102.537 143.727 102.229 143.126 101.613 142.686C100.997 142.246 100.161 142.026 99.1049 142.026C98.0489 142.026 97.2203 142.246 96.6189 142.686C96.0176 143.126 95.7169 143.727 95.7169 144.49C95.7169 145.267 96.0176 145.876 96.6189 146.316C97.2203 146.756 98.0489 146.976 99.1049 146.976ZM119.11 133.6V135.514L113.126 149H110.068L115.854 136.02H109.804V138.638H107.142V133.6H119.11ZM127.094 149.22C125.862 149.22 124.762 148.912 123.794 148.296C122.826 147.665 122.063 146.756 121.506 145.568C120.948 144.365 120.67 142.943 120.67 141.3C120.67 139.657 120.948 138.242 121.506 137.054C122.063 135.851 122.826 134.942 123.794 134.326C124.762 133.695 125.862 133.38 127.094 133.38C128.326 133.38 129.426 133.695 130.394 134.326C131.376 134.942 132.146 135.851 132.704 137.054C133.261 138.242 133.54 139.657 133.54 141.3C133.54 142.943 133.261 144.365 132.704 145.568C132.146 146.756 131.376 147.665 130.394 148.296C129.426 148.912 128.326 149.22 127.094 149.22ZM127.094 146.734C128.194 146.734 129.059 146.279 129.69 145.37C130.335 144.461 130.658 143.104 130.658 141.3C130.658 139.496 130.335 138.139 129.69 137.23C129.059 136.321 128.194 135.866 127.094 135.866C126.008 135.866 125.143 136.321 124.498 137.23C123.867 138.139 123.552 139.496 123.552 141.3C123.552 143.104 123.867 144.461 124.498 145.37C125.143 146.279 126.008 146.734 127.094 146.734ZM142.033 139.958C143.456 140.134 144.541 140.618 145.289 141.41C146.037 142.202 146.411 143.192 146.411 144.38C146.411 145.275 146.184 146.089 145.729 146.822C145.275 147.555 144.585 148.142 143.661 148.582C142.752 149.007 141.637 149.22 140.317 149.22C139.217 149.22 138.154 149.066 137.127 148.758C136.115 148.435 135.25 147.995 134.531 147.438L135.763 145.216C136.321 145.685 136.995 146.059 137.787 146.338C138.594 146.602 139.423 146.734 140.273 146.734C141.285 146.734 142.077 146.529 142.649 146.118C143.236 145.693 143.529 145.121 143.529 144.402C143.529 143.683 143.251 143.126 142.693 142.73C142.151 142.319 141.315 142.114 140.185 142.114H138.777V140.156L142.275 135.998H135.279V133.6H145.773V135.514L142.033 139.958ZM159.549 146.58V149H148.197V147.086L154.313 141.278C155.002 140.618 155.464 140.046 155.699 139.562C155.948 139.063 156.073 138.572 156.073 138.088C156.073 137.369 155.831 136.819 155.347 136.438C154.863 136.057 154.151 135.866 153.213 135.866C151.643 135.866 150.441 136.401 149.605 137.472L147.603 135.932C148.204 135.125 149.011 134.502 150.023 134.062C151.049 133.607 152.193 133.38 153.455 133.38C155.127 133.38 156.461 133.776 157.459 134.568C158.456 135.36 158.955 136.438 158.955 137.802C158.955 138.638 158.779 139.423 158.427 140.156C158.075 140.889 157.4 141.725 156.403 142.664L152.289 146.58H159.549ZM166.743 133.6V149H163.883V135.998H160.627V133.6H166.743ZM176.442 149.22C175.21 149.22 174.11 148.912 173.142 148.296C172.174 147.665 171.412 146.756 170.854 145.568C170.297 144.365 170.018 142.943 170.018 141.3C170.018 139.657 170.297 138.242 170.854 137.054C171.412 135.851 172.174 134.942 173.142 134.326C174.11 133.695 175.21 133.38 176.442 133.38C177.674 133.38 178.774 133.695 179.742 134.326C180.725 134.942 181.495 135.851 182.052 137.054C182.61 138.242 182.888 139.657 182.888 141.3C182.888 142.943 182.61 144.365 182.052 145.568C181.495 146.756 180.725 147.665 179.742 148.296C178.774 148.912 177.674 149.22 176.442 149.22ZM176.442 146.734C177.542 146.734 178.408 146.279 179.038 145.37C179.684 144.461 180.006 143.104 180.006 141.3C180.006 139.496 179.684 138.139 179.038 137.23C178.408 136.321 177.542 135.866 176.442 135.866C175.357 135.866 174.492 136.321 173.846 137.23C173.216 138.139 172.9 139.496 172.9 141.3C172.9 143.104 173.216 144.461 173.846 145.37C174.492 146.279 175.357 146.734 176.442 146.734ZM191.382 139.958C192.805 140.134 193.89 140.618 194.638 141.41C195.386 142.202 195.76 143.192 195.76 144.38C195.76 145.275 195.533 146.089 195.078 146.822C194.624 147.555 193.934 148.142 193.01 148.582C192.101 149.007 190.986 149.22 189.666 149.22C188.566 149.22 187.503 149.066 186.476 148.758C185.464 148.435 184.599 147.995 183.88 147.438L185.112 145.216C185.67 145.685 186.344 146.059 187.136 146.338C187.943 146.602 188.772 146.734 189.622 146.734C190.634 146.734 191.426 146.529 191.998 146.118C192.585 145.693 192.878 145.121 192.878 144.402C192.878 143.683 192.6 143.126 192.042 142.73C191.5 142.319 190.664 142.114 189.534 142.114H188.126V140.156L191.624 135.998H184.628V133.6H195.122V135.514L191.382 139.958ZM216.163 140.992C217.014 141.271 217.688 141.74 218.187 142.4C218.686 143.045 218.935 143.852 218.935 144.82C218.935 146.155 218.422 147.189 217.395 147.922C216.368 148.641 214.872 149 212.907 149H205.251V133.6H212.467C214.286 133.6 215.686 133.959 216.669 134.678C217.652 135.382 218.143 136.357 218.143 137.604C218.143 138.367 217.967 139.041 217.615 139.628C217.263 140.215 216.779 140.669 216.163 140.992ZM208.111 135.844V140.09H212.159C213.156 140.09 213.919 139.914 214.447 139.562C214.99 139.195 215.261 138.667 215.261 137.978C215.261 137.274 214.99 136.746 214.447 136.394C213.919 136.027 213.156 135.844 212.159 135.844H208.111ZM212.731 146.756C214.946 146.756 216.053 146.015 216.053 144.534C216.053 143.053 214.946 142.312 212.731 142.312H208.111V146.756H212.731ZM225.116 136.02H220.012V133.6H233.08V136.02H227.976V149H225.116V136.02ZM242.36 149.22C240.805 149.22 239.397 148.883 238.136 148.208C236.889 147.519 235.907 146.573 235.188 145.37C234.484 144.167 234.132 142.811 234.132 141.3C234.132 139.789 234.491 138.433 235.21 137.23C235.929 136.027 236.911 135.089 238.158 134.414C239.419 133.725 240.827 133.38 242.382 133.38C243.643 133.38 244.795 133.6 245.836 134.04C246.877 134.48 247.757 135.118 248.476 135.954L246.628 137.692C245.513 136.489 244.142 135.888 242.514 135.888C241.458 135.888 240.512 136.123 239.676 136.592C238.84 137.047 238.187 137.685 237.718 138.506C237.249 139.327 237.014 140.259 237.014 141.3C237.014 142.341 237.249 143.273 237.718 144.094C238.187 144.915 238.84 145.561 239.676 146.03C240.512 146.485 241.458 146.712 242.514 146.712C244.142 146.712 245.513 146.103 246.628 144.886L248.476 146.646C247.757 147.482 246.87 148.12 245.814 148.56C244.773 149 243.621 149.22 242.36 149.22Z" fill="black"/>
<path d="M70.128 177.356C69.696 177.356 69.312 177.272 68.976 177.104C68.652 176.924 68.298 176.678 67.914 176.366C67.578 176.114 67.32 175.94 67.14 175.844C66.972 175.748 66.792 175.7 66.6 175.7C66.252 175.7 65.97 175.838 65.754 176.114C65.55 176.39 65.436 176.756 65.412 177.212H63.972C63.996 176.168 64.236 175.376 64.692 174.836C65.148 174.284 65.748 174.008 66.492 174.008C66.936 174.008 67.32 174.098 67.644 174.278C67.98 174.446 68.346 174.692 68.742 175.016C69.03 175.244 69.264 175.412 69.444 175.52C69.636 175.628 69.828 175.682 70.02 175.682C70.38 175.682 70.662 175.544 70.866 175.268C71.082 174.992 71.202 174.62 71.226 174.152H72.648C72.636 175.208 72.402 176.006 71.946 176.546C71.49 177.086 70.884 177.356 70.128 177.356ZM78.5936 169.4V182H76.2536V171.362H73.5896V169.4H78.5936ZM86.5291 182.18C85.5211 182.18 84.6211 181.928 83.8291 181.424C83.0371 180.908 82.4131 180.164 81.9571 179.192C81.5011 178.208 81.2731 177.044 81.2731 175.7C81.2731 174.356 81.5011 173.198 81.9571 172.226C82.4131 171.242 83.0371 170.498 83.8291 169.994C84.6211 169.478 85.5211 169.22 86.5291 169.22C87.5371 169.22 88.4371 169.478 89.2291 169.994C90.0331 170.498 90.6631 171.242 91.1191 172.226C91.5751 173.198 91.8031 174.356 91.8031 175.7C91.8031 177.044 91.5751 178.208 91.1191 179.192C90.6631 180.164 90.0331 180.908 89.2291 181.424C88.4371 181.928 87.5371 182.18 86.5291 182.18ZM86.5291 180.146C87.4291 180.146 88.1371 179.774 88.6531 179.03C89.1811 178.286 89.4451 177.176 89.4451 175.7C89.4451 174.224 89.1811 173.114 88.6531 172.37C88.1371 171.626 87.4291 171.254 86.5291 171.254C85.6411 171.254 84.9331 171.626 84.4051 172.37C83.8891 173.114 83.6311 174.224 83.6311 175.7C83.6311 177.176 83.8891 178.286 84.4051 179.03C84.9331 179.774 85.6411 180.146 86.5291 180.146ZM104.796 179.138H102.564V182H100.296V179.138H93.3844V177.518L99.5944 169.4H102.096L96.2464 177.158H100.368V174.62H102.564V177.158H104.796V179.138ZM110.121 169.22C111.849 169.22 113.187 169.76 114.135 170.84C115.095 171.92 115.575 173.468 115.575 175.484C115.575 176.9 115.317 178.112 114.801 179.12C114.285 180.116 113.559 180.878 112.623 181.406C111.699 181.922 110.625 182.18 109.401 182.18C108.753 182.18 108.141 182.114 107.565 181.982C107.001 181.838 106.509 181.634 106.089 181.37L106.953 179.606C107.577 180.014 108.375 180.218 109.347 180.218C110.559 180.218 111.507 179.846 112.191 179.102C112.875 178.358 113.217 177.284 113.217 175.88V175.862C112.845 176.294 112.371 176.624 111.795 176.852C111.219 177.068 110.571 177.176 109.851 177.176C109.023 177.176 108.279 177.02 107.619 176.708C106.959 176.384 106.443 175.928 106.071 175.34C105.699 174.752 105.513 174.074 105.513 173.306C105.513 172.49 105.717 171.776 106.125 171.164C106.533 170.54 107.085 170.06 107.781 169.724C108.477 169.388 109.257 169.22 110.121 169.22ZM110.301 175.34C111.057 175.34 111.669 175.136 112.137 174.728C112.617 174.32 112.857 173.804 112.857 173.18C112.857 172.568 112.623 172.064 112.155 171.668C111.699 171.26 111.063 171.056 110.247 171.056C109.515 171.056 108.921 171.254 108.465 171.65C108.009 172.034 107.781 172.55 107.781 173.198C107.781 173.858 108.009 174.38 108.465 174.764C108.921 175.148 109.533 175.34 110.301 175.34ZM122.594 182.18C121.586 182.18 120.686 181.928 119.894 181.424C119.102 180.908 118.478 180.164 118.022 179.192C117.566 178.208 117.338 177.044 117.338 175.7C117.338 174.356 117.566 173.198 118.022 172.226C118.478 171.242 119.102 170.498 119.894 169.994C120.686 169.478 121.586 169.22 122.594 169.22C123.602 169.22 124.502 169.478 125.294 169.994C126.098 170.498 126.728 171.242 127.184 172.226C127.64 173.198 127.868 174.356 127.868 175.7C127.868 177.044 127.64 178.208 127.184 179.192C126.728 180.164 126.098 180.908 125.294 181.424C124.502 181.928 123.602 182.18 122.594 182.18ZM122.594 180.146C123.494 180.146 124.202 179.774 124.718 179.03C125.246 178.286 125.51 177.176 125.51 175.7C125.51 174.224 125.246 173.114 124.718 172.37C124.202 171.626 123.494 171.254 122.594 171.254C121.706 171.254 120.998 171.626 120.47 172.37C119.954 173.114 119.696 174.224 119.696 175.7C119.696 177.176 119.954 178.286 120.47 179.03C120.998 179.774 121.706 180.146 122.594 180.146ZM130.823 182.126C130.415 182.126 130.067 181.988 129.779 181.712C129.491 181.424 129.347 181.064 129.347 180.632C129.347 180.188 129.485 179.828 129.761 179.552C130.049 179.276 130.403 179.138 130.823 179.138C131.243 179.138 131.591 179.276 131.867 179.552C132.155 179.828 132.299 180.188 132.299 180.632C132.299 181.064 132.155 181.424 131.867 181.712C131.579 181.988 131.231 182.126 130.823 182.126ZM139.533 174.602C140.697 174.746 141.585 175.142 142.197 175.79C142.809 176.438 143.115 177.248 143.115 178.22C143.115 178.952 142.929 179.618 142.557 180.218C142.185 180.818 141.621 181.298 140.865 181.658C140.121 182.006 139.209 182.18 138.129 182.18C137.229 182.18 136.359 182.054 135.519 181.802C134.691 181.538 133.983 181.178 133.395 180.722L134.403 178.904C134.859 179.288 135.411 179.594 136.059 179.822C136.719 180.038 137.397 180.146 138.093 180.146C138.921 180.146 139.569 179.978 140.037 179.642C140.517 179.294 140.757 178.826 140.757 178.238C140.757 177.65 140.529 177.194 140.073 176.87C139.629 176.534 138.945 176.366 138.021 176.366H136.869V174.764L139.731 171.362H134.007V169.4H142.593V170.966L139.533 174.602ZM150.102 174.602C151.266 174.746 152.154 175.142 152.766 175.79C153.378 176.438 153.684 177.248 153.684 178.22C153.684 178.952 153.498 179.618 153.126 180.218C152.754 180.818 152.19 181.298 151.434 181.658C150.69 182.006 149.778 182.18 148.698 182.18C147.798 182.18 146.928 182.054 146.088 181.802C145.26 181.538 144.552 181.178 143.964 180.722L144.972 178.904C145.428 179.288 145.98 179.594 146.628 179.822C147.288 180.038 147.966 180.146 148.662 180.146C149.49 180.146 150.138 179.978 150.606 179.642C151.086 179.294 151.326 178.826 151.326 178.238C151.326 177.65 151.098 177.194 150.642 176.87C150.198 176.534 149.514 176.366 148.59 176.366H147.438V174.764L150.3 171.362H144.576V169.4H153.162V170.966L150.102 174.602ZM165.294 178.436C165.294 179.408 164.934 180.236 164.214 180.92C163.506 181.592 162.474 182 161.118 182.144V184.16H159.642V182.162C158.754 182.102 157.914 181.94 157.122 181.676C156.33 181.412 155.7 181.076 155.232 180.668L156.042 178.85C156.486 179.21 157.026 179.516 157.662 179.768C158.298 180.008 158.958 180.158 159.642 180.218V176.618C158.79 176.414 158.076 176.192 157.5 175.952C156.936 175.7 156.462 175.34 156.078 174.872C155.694 174.392 155.502 173.762 155.502 172.982C155.502 172.01 155.856 171.182 156.564 170.498C157.272 169.814 158.298 169.406 159.642 169.274V167.24H161.118V169.238C161.79 169.274 162.444 169.388 163.08 169.58C163.728 169.772 164.292 170.024 164.772 170.336L164.034 172.154C163.122 171.626 162.15 171.302 161.118 171.182V174.818C161.982 175.022 162.696 175.244 163.26 175.484C163.836 175.724 164.316 176.084 164.7 176.564C165.096 177.032 165.294 177.656 165.294 178.436ZM157.824 172.874C157.824 173.27 157.98 173.588 158.292 173.828C158.604 174.068 159.054 174.272 159.642 174.44V171.236C159.03 171.332 158.574 171.524 158.274 171.812C157.974 172.1 157.824 172.454 157.824 172.874ZM161.118 180.182C161.754 180.086 162.222 179.9 162.522 179.624C162.834 179.348 162.99 179.006 162.99 178.598C162.99 178.19 162.828 177.866 162.504 177.626C162.18 177.374 161.718 177.164 161.118 176.996V180.182Z" fill="#7E95AD"/>
<path d="M271.562 136.774H266.063C264.923 136.774 264 137.684 264 138.806V148.968C264 150.09 264.923 151 266.062 151H276.375C277.514 151 278.438 150.09 278.438 148.968V144.226M271.562 136.774H276.375C277.514 136.774 278.438 137.684 278.438 138.806V144.226M271.562 136.774V132.032C271.562 130.91 272.486 130 273.625 130H283.938C285.077 130 286 130.91 286 132.032V142.194C286 143.316 285.077 144.226 283.938 144.226H278.438" stroke="#F0932B" stroke-width="2.3"/>
<path d="M70.578 114.18C69.294 114.18 68.136 113.904 67.104 113.352C66.072 112.788 65.262 112.014 64.674 111.03C64.086 110.034 63.792 108.924 63.792 107.7C63.792 106.476 64.086 105.372 64.674 104.388C65.262 103.392 66.072 102.618 67.104 102.066C68.136 101.502 69.294 101.22 70.578 101.22C71.862 101.22 73.02 101.502 74.052 102.066C75.084 102.618 75.894 103.386 76.482 104.37C77.07 105.354 77.364 106.464 77.364 107.7C77.364 108.936 77.07 110.046 76.482 111.03C75.894 112.014 75.084 112.788 74.052 113.352C73.02 113.904 71.862 114.18 70.578 114.18ZM70.578 112.128C71.418 112.128 72.174 111.942 72.846 111.57C73.518 111.186 74.046 110.658 74.43 109.986C74.814 109.302 75.006 108.54 75.006 107.7C75.006 106.86 74.814 106.104 74.43 105.432C74.046 104.748 73.518 104.22 72.846 103.848C72.174 103.464 71.418 103.272 70.578 103.272C69.738 103.272 68.982 103.464 68.31 103.848C67.638 104.22 67.11 104.748 66.726 105.432C66.342 106.104 66.15 106.86 66.15 107.7C66.15 108.54 66.342 109.302 66.726 109.986C67.11 110.658 67.638 111.186 68.31 111.57C68.982 111.942 69.738 112.128 70.578 112.128ZM81.9503 105.792C82.5983 104.784 83.7383 104.28 85.3703 104.28V106.422C85.1783 106.386 85.0043 106.368 84.8483 106.368C83.9723 106.368 83.2883 106.626 82.7963 107.142C82.3043 107.646 82.0583 108.378 82.0583 109.338V114H79.8083V104.388H81.9503V105.792ZM96.7852 100.644V114H94.6252V112.758C94.2532 113.214 93.7912 113.556 93.2392 113.784C92.6992 114.012 92.0992 114.126 91.4392 114.126C90.5152 114.126 89.6812 113.922 88.9372 113.514C88.2052 113.106 87.6292 112.53 87.2092 111.786C86.7892 111.03 86.5792 110.166 86.5792 109.194C86.5792 108.222 86.7892 107.364 87.2092 106.62C87.6292 105.876 88.2052 105.3 88.9372 104.892C89.6812 104.484 90.5152 104.28 91.4392 104.28C92.0752 104.28 92.6572 104.388 93.1852 104.604C93.7132 104.82 94.1632 105.144 94.5352 105.576V100.644H96.7852ZM91.7092 112.2C92.2492 112.2 92.7352 112.08 93.1672 111.84C93.5992 111.588 93.9412 111.234 94.1932 110.778C94.4452 110.322 94.5712 109.794 94.5712 109.194C94.5712 108.594 94.4452 108.066 94.1932 107.61C93.9412 107.154 93.5992 106.806 93.1672 106.566C92.7352 106.314 92.2492 106.188 91.7092 106.188C91.1692 106.188 90.6832 106.314 90.2512 106.566C89.8192 106.806 89.4772 107.154 89.2252 107.61C88.9732 108.066 88.8472 108.594 88.8472 109.194C88.8472 109.794 88.9732 110.322 89.2252 110.778C89.4772 111.234 89.8192 111.588 90.2512 111.84C90.6832 112.08 91.1692 112.2 91.7092 112.2ZM108.945 109.248C108.945 109.404 108.933 109.626 108.909 109.914H101.367C101.499 110.622 101.841 111.186 102.393 111.606C102.957 112.014 103.653 112.218 104.481 112.218C105.537 112.218 106.407 111.87 107.091 111.174L108.297 112.56C107.865 113.076 107.319 113.466 106.659 113.73C105.999 113.994 105.255 114.126 104.427 114.126C103.371 114.126 102.441 113.916 101.637 113.496C100.833 113.076 100.209 112.494 99.7646 111.75C99.3326 110.994 99.1166 110.142 99.1166 109.194C99.1166 108.258 99.3266 107.418 99.7466 106.674C100.179 105.918 100.773 105.33 101.529 104.91C102.285 104.49 103.137 104.28 104.085 104.28C105.021 104.28 105.855 104.49 106.587 104.91C107.331 105.318 107.907 105.9 108.315 106.656C108.735 107.4 108.945 108.264 108.945 109.248ZM104.085 106.08C103.365 106.08 102.753 106.296 102.249 106.728C101.757 107.148 101.457 107.712 101.349 108.42H106.803C106.707 107.724 106.413 107.16 105.921 106.728C105.429 106.296 104.817 106.08 104.085 106.08ZM113.428 105.792C114.076 104.784 115.216 104.28 116.848 104.28V106.422C116.656 106.386 116.482 106.368 116.326 106.368C115.45 106.368 114.766 106.626 114.274 107.142C113.782 107.646 113.536 108.378 113.536 109.338V114H111.286V104.388H113.428V105.792ZM132.063 109.302H134.493V110.94H131.865L131.487 114H129.849L130.227 110.94H127.185L126.807 114H125.169L125.547 110.94H123.117V109.302H125.745L126.159 106.098H123.729V104.46H126.357L126.735 101.4H128.373L127.995 104.46H131.019L131.397 101.4H133.035L132.657 104.46H135.069L135.087 106.098H132.459L132.063 109.302ZM130.425 109.302L130.821 106.098H127.797L127.383 109.302H130.425ZM140.828 101.4V114H138.488V103.362H135.824V101.4H140.828ZM147.863 101.4V114H145.523V103.362H142.859V101.4H147.863ZM161.775 111.138H159.543V114H157.275V111.138H150.363V109.518L156.573 101.4H159.075L153.225 109.158H157.347V106.62H159.543V109.158H161.775V111.138ZM168.664 106.224C169.492 106.224 170.236 106.386 170.896 106.71C171.556 107.022 172.072 107.472 172.444 108.06C172.816 108.648 173.002 109.326 173.002 110.094C173.002 110.91 172.798 111.63 172.39 112.254C171.982 112.866 171.43 113.34 170.734 113.676C170.038 114.012 169.258 114.18 168.394 114.18C166.666 114.18 165.322 113.64 164.362 112.56C163.414 111.48 162.94 109.932 162.94 107.916C162.94 106.5 163.198 105.294 163.714 104.298C164.23 103.29 164.95 102.528 165.874 102.012C166.81 101.484 167.89 101.22 169.114 101.22C169.762 101.22 170.368 101.292 170.932 101.436C171.508 101.568 172.006 101.766 172.426 102.03L171.562 103.794C170.938 103.386 170.14 103.182 169.168 103.182C167.956 103.182 167.008 103.554 166.324 104.298C165.64 105.042 165.298 106.116 165.298 107.52V107.538C165.67 107.106 166.144 106.782 166.72 106.566C167.296 106.338 167.944 106.224 168.664 106.224ZM168.268 112.344C169 112.344 169.594 112.152 170.05 111.768C170.506 111.372 170.734 110.85 170.734 110.202C170.734 109.542 170.506 109.02 170.05 108.636C169.594 108.252 168.982 108.06 168.214 108.06C167.458 108.06 166.84 108.264 166.36 108.672C165.892 109.08 165.658 109.596 165.658 110.22C165.658 110.832 165.886 111.342 166.342 111.75C166.81 112.146 167.452 112.344 168.268 112.344ZM185.637 111.138H183.405V114H181.137V111.138H174.225V109.518L180.435 101.4H182.937L177.087 109.158H181.209V106.62H183.405V109.158H185.637V111.138ZM195.875 112.02V114H186.587V112.434L191.591 107.682C192.155 107.142 192.533 106.674 192.725 106.278C192.929 105.87 193.031 105.468 193.031 105.072C193.031 104.484 192.833 104.034 192.437 103.722C192.041 103.41 191.459 103.254 190.691 103.254C189.407 103.254 188.423 103.692 187.739 104.568L186.101 103.308C186.593 102.648 187.253 102.138 188.081 101.778C188.921 101.406 189.857 101.22 190.889 101.22C192.257 101.22 193.349 101.544 194.165 102.192C194.981 102.84 195.389 103.722 195.389 104.838C195.389 105.522 195.245 106.164 194.957 106.764C194.669 107.364 194.117 108.048 193.301 108.816L189.935 112.02H195.875Z" fill="#495766"/>
<path d="M399.319 112.5C398.959 112.5 398.667 112.792 398.667 113.153V119.68C398.667 120.041 398.959 120.333 399.319 120.333H405.847C406.208 120.333 406.5 120.041 406.5 119.68V113.153C406.5 112.792 406.208 112.5 405.847 112.5H399.319ZM398.667 159.5V157.542C398.667 156.46 399.543 155.583 400.625 155.583C401.707 155.583 402.583 156.46 402.583 157.542V159.5H406.5V157.542C406.5 156.46 407.377 155.583 408.458 155.583C409.54 155.583 410.417 156.46 410.417 157.542V161.458C410.417 162.54 409.54 163.417 408.458 163.417H392.792C391.71 163.417 390.833 162.54 390.833 161.458V157.542C390.833 156.46 391.71 155.583 392.792 155.583C393.873 155.583 394.75 156.46 394.75 157.542V159.5H398.667ZM386.917 132.083H388.875C389.957 132.083 390.833 132.96 390.833 134.042C390.833 135.123 389.957 136 388.875 136H381.042C379.96 136 379.083 135.123 379.083 134.042C379.083 132.96 379.96 132.083 381.042 132.083H383V128.167H377.125C376.043 128.167 375.167 127.29 375.167 126.208C375.167 125.127 376.043 124.25 377.125 124.25H388.875C389.957 124.25 390.833 125.127 390.833 126.208C390.833 127.29 389.957 128.167 388.875 128.167H386.917V132.083ZM406.5 136H404.542C403.46 136 402.583 135.123 402.583 134.042C402.583 132.96 403.46 132.083 404.542 132.083H406.5V130.125C406.5 129.043 407.377 128.167 408.458 128.167C409.54 128.167 410.417 129.043 410.417 130.125V137.958C410.417 139.04 409.54 139.917 408.458 139.917C407.377 139.917 406.5 139.04 406.5 137.958V136ZM386.917 143.833H384.958C383.877 143.833 383 142.956 383 141.875C383 140.793 383.877 139.917 384.958 139.917H388.875C389.957 139.917 390.833 140.793 390.833 141.875V149.708C390.833 150.79 389.957 151.667 388.875 151.667H377.125C376.043 151.667 375.167 150.79 375.167 149.708C375.167 148.627 376.043 147.75 377.125 147.75H386.917V143.833ZM399.319 108.583H405.847C408.371 108.583 410.417 110.629 410.417 113.153V119.68C410.417 122.204 408.371 124.25 405.847 124.25H399.319C396.796 124.25 394.75 122.204 394.75 119.68V113.153C394.75 110.629 396.796 108.583 399.319 108.583ZM360.153 108.583H366.681C369.204 108.583 371.25 110.629 371.25 113.153V119.68C371.25 122.204 369.204 124.25 366.681 124.25H360.153C357.629 124.25 355.583 122.204 355.583 119.68V113.153C355.583 110.629 357.629 108.583 360.153 108.583ZM360.153 112.5C359.792 112.5 359.5 112.792 359.5 113.153V119.68C359.5 120.041 359.792 120.333 360.153 120.333H366.681C367.041 120.333 367.333 120.041 367.333 119.68V113.153C367.333 112.792 367.041 112.5 366.681 112.5H360.153ZM360.153 147.75H366.681C369.204 147.75 371.25 149.796 371.25 152.319V158.847C371.25 161.371 369.204 163.417 366.681 163.417H360.153C357.629 163.417 355.583 161.371 355.583 158.847V152.319C355.583 149.796 357.629 147.75 360.153 147.75ZM360.153 151.667C359.792 151.667 359.5 151.959 359.5 152.319V158.847C359.5 159.208 359.792 159.5 360.153 159.5H366.681C367.041 159.5 367.333 159.208 367.333 158.847V152.319C367.333 151.959 367.041 151.667 366.681 151.667H360.153ZM386.917 112.5H377.125C376.043 112.5 375.167 111.623 375.167 110.542C375.167 109.46 376.043 108.583 377.125 108.583H388.875C389.957 108.583 390.833 109.46 390.833 110.542V118.375C390.833 119.456 389.957 120.333 388.875 120.333C387.793 120.333 386.917 119.456 386.917 118.375V112.5ZM377.125 120.333C376.043 120.333 375.167 119.456 375.167 118.375C375.167 117.293 376.043 116.417 377.125 116.417H381.042C382.123 116.417 383 117.293 383 118.375C383 119.456 382.123 120.333 381.042 120.333H377.125ZM357.542 143.833C356.46 143.833 355.583 142.956 355.583 141.875C355.583 140.793 356.46 139.917 357.542 139.917H365.375C366.457 139.917 367.333 140.793 367.333 141.875C367.333 142.956 366.457 143.833 365.375 143.833H357.542ZM373.208 143.833C372.127 143.833 371.25 142.956 371.25 141.875C371.25 140.793 372.127 139.917 373.208 139.917H377.125C378.207 139.917 379.083 140.793 379.083 141.875C379.083 142.956 378.207 143.833 377.125 143.833H373.208ZM379.083 159.5V161.458C379.083 162.54 378.207 163.417 377.125 163.417C376.043 163.417 375.167 162.54 375.167 161.458V157.542C375.167 156.46 376.043 155.583 377.125 155.583H384.958C386.04 155.583 386.917 156.46 386.917 157.542C386.917 158.623 386.04 159.5 384.958 159.5H379.083ZM371.25 132.083H373.208C374.29 132.083 375.167 132.96 375.167 134.042C375.167 135.123 374.29 136 373.208 136H369.292C368.21 136 367.333 135.123 367.333 134.042V132.083H365.375C364.293 132.083 363.417 131.206 363.417 130.125C363.417 129.043 364.293 128.167 365.375 128.167H369.292C370.373 128.167 371.25 129.043 371.25 130.125V132.083ZM355.583 130.125C355.583 129.043 356.46 128.167 357.542 128.167C358.623 128.167 359.5 129.043 359.5 130.125V134.042C359.5 135.123 358.623 136 357.542 136C356.46 136 355.583 135.123 355.583 134.042V130.125ZM394.75 130.125C394.75 129.043 395.627 128.167 396.708 128.167C397.79 128.167 398.667 129.043 398.667 130.125V137.958C398.667 139.04 397.79 139.917 396.708 139.917C395.627 139.917 394.75 139.04 394.75 137.958V130.125ZM402.583 147.75V145.792C402.583 144.71 403.46 143.833 404.542 143.833H408.458C409.54 143.833 410.417 144.71 410.417 145.792C410.417 146.873 409.54 147.75 408.458 147.75H406.5V149.708C406.5 150.79 405.623 151.667 404.542 151.667H396.708C395.627 151.667 394.75 150.79 394.75 149.708V145.792C394.75 144.71 395.627 143.833 396.708 143.833C397.79 143.833 398.667 144.71 398.667 145.792V147.75H402.583ZM347.75 114.458C347.75 115.54 346.873 116.417 345.792 116.417C344.71 116.417 343.833 115.54 343.833 114.458V106.625C343.833 101.217 348.217 96.8333 353.625 96.8333H361.458C362.54 96.8333 363.417 97.71 363.417 98.7916C363.417 99.8731 362.54 100.75 361.458 100.75H353.625C350.38 100.75 347.75 103.38 347.75 106.625V114.458ZM404.542 100.75C403.46 100.75 402.583 99.8731 402.583 98.7916C402.583 97.71 403.46 96.8333 404.542 96.8333H412.375C417.783 96.8333 422.167 101.217 422.167 106.625V114.458C422.167 115.54 421.29 116.417 420.208 116.417C419.127 116.417 418.25 115.54 418.25 114.458V106.625C418.25 103.38 415.62 100.75 412.375 100.75H404.542ZM361.458 171.25C362.54 171.25 363.417 172.127 363.417 173.208C363.417 174.29 362.54 175.167 361.458 175.167H353.625C348.217 175.167 343.833 170.783 343.833 165.375V157.542C343.833 156.46 344.71 155.583 345.792 155.583C346.873 155.583 347.75 156.46 347.75 157.542V165.375C347.75 168.62 350.38 171.25 353.625 171.25H361.458ZM418.25 157.542C418.25 156.46 419.127 155.583 420.208 155.583C421.29 155.583 422.167 156.46 422.167 157.542V165.375C422.167 170.783 417.783 175.167 412.375 175.167H404.542C403.46 175.167 402.583 174.29 402.583 173.208C402.583 172.127 403.46 171.25 404.542 171.25H412.375C415.62 171.25 418.25 168.62 418.25 165.375V157.542Z" fill="#7E95AD"/>
<rect x="63" y="220" width="360" height="36" rx="18" fill="#F0F3FE"/>
<path d="M82.6445 238.604H78.4678V243H77.1553V233.047H83.3213V234.127H78.4678V237.531H82.6445V238.604ZM86.0179 241.927H91.7123V243H84.4662V242.016L89.9212 234.127H84.555V233.047H91.4935V234.011L86.0179 241.927ZM96.487 238.563C95.3614 238.24 94.5411 237.843 94.0261 237.374C93.5157 236.9 93.2605 236.317 93.2605 235.624C93.2605 234.84 93.5726 234.193 94.197 233.683C94.8259 233.168 95.6417 232.91 96.6443 232.91C97.3279 232.91 97.9363 233.042 98.4695 233.307C99.0072 233.571 99.4219 233.936 99.7136 234.4C100.01 234.865 100.158 235.373 100.158 235.925H98.8386C98.8386 235.323 98.6472 234.852 98.2644 234.51C97.8816 234.163 97.3415 233.99 96.6443 233.99C95.9971 233.99 95.4913 234.134 95.1267 234.421C94.7667 234.703 94.5866 235.098 94.5866 235.604C94.5866 236.009 94.7575 236.353 95.0993 236.636C95.4457 236.914 96.0313 237.169 96.8562 237.401C97.6856 237.634 98.3327 237.891 98.7976 238.174C99.267 238.452 99.6133 238.778 99.8366 239.151C100.065 239.525 100.178 239.965 100.178 240.471C100.178 241.277 99.864 241.924 99.2351 242.412C98.6062 242.895 97.7654 243.137 96.7126 243.137C96.029 243.137 95.391 243.007 94.7986 242.747C94.2061 242.483 93.7481 242.123 93.4245 241.667C93.1055 241.211 92.946 240.694 92.946 240.115H94.2654C94.2654 240.717 94.4864 241.193 94.9284 241.544C95.3751 241.89 95.9698 242.063 96.7126 242.063C97.4053 242.063 97.9363 241.922 98.3054 241.64C98.6745 241.357 98.8591 240.972 98.8591 240.484C98.8591 239.997 98.6882 239.621 98.3464 239.356C98.0046 239.088 97.3848 238.823 96.487 238.563ZM106.177 233.047H107.496V240.095C107.496 241.047 107.209 241.792 106.635 242.33C106.065 242.868 105.304 243.137 104.352 243.137C103.363 243.137 102.593 242.884 102.041 242.378C101.49 241.872 101.214 241.163 101.214 240.252H102.526C102.526 240.822 102.681 241.266 102.991 241.585C103.306 241.904 103.759 242.063 104.352 242.063C104.894 242.063 105.331 241.893 105.664 241.551C106.001 241.209 106.172 240.73 106.177 240.115V233.047ZM115.361 238.604H111.184V243H109.872V233.047H116.038V234.127H111.184V237.531H115.361V238.604ZM120.471 243.137C119.468 243.137 118.652 242.809 118.023 242.152C117.394 241.492 117.08 240.61 117.08 239.507V239.274C117.08 238.541 117.219 237.887 117.497 237.312C117.779 236.734 118.171 236.283 118.673 235.959C119.179 235.631 119.725 235.467 120.313 235.467C121.275 235.467 122.022 235.784 122.555 236.417C123.089 237.05 123.355 237.957 123.355 239.138V239.664H118.345C118.363 240.393 118.575 240.983 118.98 241.435C119.39 241.881 119.91 242.104 120.539 242.104C120.985 242.104 121.364 242.013 121.674 241.831C121.984 241.649 122.255 241.407 122.487 241.106L123.26 241.708C122.64 242.66 121.71 243.137 120.471 243.137ZM120.313 236.506C119.803 236.506 119.374 236.693 119.028 237.066C118.682 237.436 118.468 237.955 118.386 238.625H122.091V238.529C122.054 237.887 121.881 237.39 121.571 237.039C121.261 236.684 120.842 236.506 120.313 236.506ZM124.664 239.24C124.664 238.087 124.931 237.171 125.464 236.492C125.997 235.809 126.704 235.467 127.583 235.467C128.486 235.467 129.19 235.786 129.695 236.424L129.757 235.604H130.912V242.822C130.912 243.779 130.627 244.534 130.058 245.085C129.493 245.636 128.732 245.912 127.775 245.912C127.241 245.912 126.72 245.798 126.209 245.57C125.699 245.342 125.309 245.03 125.04 244.634L125.696 243.875C126.239 244.545 126.902 244.88 127.686 244.88C128.301 244.88 128.779 244.707 129.121 244.36C129.468 244.014 129.641 243.526 129.641 242.897V242.262C129.135 242.845 128.444 243.137 127.569 243.137C126.704 243.137 126.002 242.788 125.464 242.091C124.931 241.394 124.664 240.443 124.664 239.24ZM125.936 239.384C125.936 240.218 126.107 240.874 126.448 241.353C126.79 241.826 127.269 242.063 127.884 242.063C128.681 242.063 129.267 241.701 129.641 240.977V237.6C129.253 236.893 128.672 236.54 127.898 236.54C127.282 236.54 126.802 236.779 126.455 237.258C126.109 237.736 125.936 238.445 125.936 239.384ZM139.214 239.384C139.214 240.509 138.957 241.416 138.442 242.104C137.927 242.793 137.23 243.137 136.35 243.137C135.452 243.137 134.746 242.852 134.231 242.282V245.844H132.966V235.604H134.122L134.183 236.424C134.698 235.786 135.414 235.467 136.33 235.467C137.218 235.467 137.92 235.802 138.435 236.472C138.955 237.142 139.214 238.074 139.214 239.268V239.384ZM137.95 239.24C137.95 238.406 137.772 237.748 137.417 237.265C137.061 236.782 136.573 236.54 135.954 236.54C135.188 236.54 134.614 236.88 134.231 237.559V241.093C134.609 241.767 135.188 242.104 135.967 242.104C136.573 242.104 137.054 241.865 137.41 241.387C137.77 240.904 137.95 240.188 137.95 239.24ZM142.15 241.927H147.845V243H140.599V242.016L146.054 234.127H140.687V233.047H147.626V234.011L142.15 241.927ZM155.737 239.384C155.737 240.509 155.479 241.416 154.964 242.104C154.449 242.793 153.752 243.137 152.872 243.137C151.975 243.137 151.268 242.852 150.753 242.282V245.844H149.489V235.604H150.644L150.705 236.424C151.22 235.786 151.936 235.467 152.852 235.467C153.74 235.467 154.442 235.802 154.957 236.472C155.477 237.142 155.737 238.074 155.737 239.268V239.384ZM154.472 239.24C154.472 238.406 154.294 237.748 153.939 237.265C153.583 236.782 153.096 236.54 152.476 236.54C151.71 236.54 151.136 236.88 150.753 237.559V241.093C151.131 241.767 151.71 242.104 152.489 242.104C153.096 242.104 153.576 241.865 153.932 241.387C154.292 240.904 154.472 240.188 154.472 239.24ZM163.177 238.604H159.001V243H157.688V233.047H163.854V234.127H159.001V237.531H163.177V238.604ZM166.558 235.604L166.592 236.424C167.134 235.786 167.866 235.467 168.786 235.467C169.821 235.467 170.525 235.863 170.898 236.656C171.144 236.301 171.464 236.014 171.855 235.795C172.252 235.576 172.719 235.467 173.257 235.467C174.879 235.467 175.704 236.326 175.731 238.044V243H174.467V238.119C174.467 237.59 174.346 237.196 174.104 236.937C173.863 236.672 173.457 236.54 172.888 236.54C172.418 236.54 172.029 236.681 171.719 236.964C171.409 237.242 171.229 237.618 171.179 238.092V243H169.907V238.153C169.907 237.078 169.381 236.54 168.328 236.54C167.499 236.54 166.931 236.893 166.626 237.6V243H165.361V235.604H166.558ZM184.047 239.384C184.047 240.514 183.787 241.423 183.268 242.111C182.748 242.795 182.051 243.137 181.176 243.137C180.242 243.137 179.52 242.806 179.009 242.146L178.948 243H177.785V232.5H179.05V236.417C179.561 235.784 180.265 235.467 181.162 235.467C182.06 235.467 182.764 235.806 183.275 236.485C183.79 237.164 184.047 238.094 184.047 239.274V239.384ZM182.783 239.24C182.783 238.379 182.616 237.714 182.284 237.244C181.951 236.775 181.472 236.54 180.848 236.54C180.014 236.54 179.415 236.927 179.05 237.702V240.901C179.437 241.676 180.041 242.063 180.862 242.063C181.468 242.063 181.939 241.829 182.277 241.359C182.614 240.89 182.783 240.184 182.783 239.24ZM190.093 241.038C190.093 240.696 189.964 240.432 189.704 240.245C189.449 240.054 189 239.89 188.357 239.753C187.719 239.616 187.211 239.452 186.833 239.261C186.459 239.069 186.181 238.841 185.999 238.577C185.821 238.313 185.732 237.998 185.732 237.634C185.732 237.028 185.987 236.515 186.498 236.096C187.013 235.676 187.669 235.467 188.466 235.467C189.305 235.467 189.984 235.683 190.504 236.116C191.028 236.549 191.29 237.103 191.29 237.777H190.018C190.018 237.431 189.87 237.132 189.574 236.882C189.282 236.631 188.913 236.506 188.466 236.506C188.006 236.506 187.646 236.606 187.386 236.807C187.127 237.007 186.997 237.269 186.997 237.593C186.997 237.898 187.118 238.128 187.359 238.283C187.601 238.438 188.036 238.586 188.665 238.728C189.298 238.869 189.811 239.037 190.203 239.233C190.595 239.429 190.884 239.666 191.071 239.944C191.262 240.218 191.358 240.553 191.358 240.949C191.358 241.61 191.094 242.141 190.565 242.542C190.036 242.938 189.351 243.137 188.507 243.137C187.915 243.137 187.391 243.032 186.935 242.822C186.48 242.613 186.122 242.321 185.862 241.947C185.607 241.569 185.479 241.161 185.479 240.724H186.744C186.767 241.147 186.935 241.485 187.25 241.735C187.569 241.981 187.988 242.104 188.507 242.104C188.986 242.104 189.369 242.009 189.656 241.817C189.948 241.621 190.093 241.362 190.093 241.038ZM196.994 238.974H194.656V243H193.337V233.047H196.632C197.753 233.047 198.614 233.302 199.216 233.812C199.822 234.323 200.125 235.066 200.125 236.041C200.125 236.661 199.956 237.201 199.619 237.661C199.286 238.121 198.822 238.465 198.225 238.693L200.563 242.918V243H199.154L196.994 238.974ZM194.656 237.9H196.673C197.325 237.9 197.842 237.732 198.225 237.395C198.612 237.057 198.806 236.606 198.806 236.041C198.806 235.426 198.621 234.954 198.252 234.626C197.887 234.298 197.359 234.132 196.666 234.127H194.656V237.9ZM203.177 236.499C203.738 235.811 204.467 235.467 205.365 235.467C206.928 235.467 207.716 236.349 207.73 238.112V243H206.465V238.105C206.461 237.572 206.338 237.178 206.096 236.923C205.859 236.668 205.488 236.54 204.982 236.54C204.572 236.54 204.212 236.649 203.902 236.868C203.592 237.087 203.35 237.374 203.177 237.729V243H201.912V232.5H203.177V236.499ZM212.245 238.304L213.886 235.604H215.362L212.942 239.261L215.437 243H213.974L212.265 240.231L210.556 243H209.087L211.582 239.261L209.162 235.604H210.625L212.245 238.304ZM218.742 233.047L221.996 241.168L225.25 233.047H226.952V243H225.64V239.124L225.763 234.94L222.495 243H221.49L218.23 234.961L218.359 239.124V243H217.047V233.047H218.742ZM229.833 243V236.581H228.665V235.604H229.833V234.845C229.833 234.052 230.045 233.439 230.469 233.006C230.893 232.573 231.492 232.356 232.267 232.356C232.559 232.356 232.848 232.395 233.135 232.473L233.067 233.498C232.853 233.457 232.625 233.437 232.383 233.437C231.973 233.437 231.656 233.557 231.433 233.799C231.21 234.036 231.098 234.378 231.098 234.824V235.604H232.677V236.581H231.098V243H229.833ZM240.767 241.257L242.189 235.604H243.454L241.301 243H240.275L238.477 237.395L236.727 243H235.702L233.556 235.604H234.813L236.269 241.141L237.992 235.604H239.011L240.767 241.257ZM247.326 241.284L249.158 235.604H250.45L247.798 243H246.834L244.154 235.604H245.446L247.326 241.284ZM254.678 242.104C255.129 242.104 255.524 241.968 255.861 241.694C256.198 241.421 256.385 241.079 256.421 240.669H257.618C257.595 241.093 257.449 241.496 257.18 241.879C256.911 242.262 256.551 242.567 256.1 242.795C255.654 243.023 255.18 243.137 254.678 243.137C253.671 243.137 252.869 242.802 252.272 242.132C251.68 241.457 251.383 240.537 251.383 239.37V239.158C251.383 238.438 251.516 237.798 251.78 237.237C252.044 236.677 252.422 236.242 252.915 235.932C253.411 235.622 253.997 235.467 254.671 235.467C255.501 235.467 256.189 235.715 256.736 236.212C257.287 236.709 257.581 237.354 257.618 238.146H256.421C256.385 237.668 256.203 237.276 255.875 236.971C255.551 236.661 255.15 236.506 254.671 236.506C254.029 236.506 253.53 236.738 253.174 237.203C252.823 237.663 252.648 238.331 252.648 239.206V239.445C252.648 240.298 252.823 240.954 253.174 241.414C253.525 241.874 254.027 242.104 254.678 242.104ZM260.69 239.104V243H259.378V233.047H263.049C264.138 233.047 264.99 233.325 265.605 233.881C266.225 234.437 266.535 235.173 266.535 236.089C266.535 237.055 266.232 237.8 265.626 238.324C265.024 238.844 264.161 239.104 263.035 239.104H260.69ZM260.69 238.03H263.049C263.751 238.03 264.288 237.866 264.662 237.538C265.036 237.205 265.223 236.727 265.223 236.103C265.223 235.51 265.036 235.036 264.662 234.681C264.288 234.325 263.776 234.141 263.124 234.127H260.69V238.03ZM271.378 236.861L273.764 233.047H275.309L272.164 237.982L275.384 243H273.825L271.378 239.117L268.917 243H267.366L270.592 237.982L267.441 233.047H268.979L271.378 236.861ZM278.115 236.499C278.675 235.811 279.405 235.467 280.302 235.467C281.866 235.467 282.654 236.349 282.668 238.112V243H281.403V238.105C281.398 237.572 281.275 237.178 281.034 236.923C280.797 236.668 280.425 236.54 279.92 236.54C279.509 236.54 279.149 236.649 278.839 236.868C278.53 237.087 278.288 237.374 278.115 237.729V243H276.85V232.5H278.115V236.499ZM285.897 235.604L285.938 236.533C286.504 235.822 287.242 235.467 288.153 235.467C289.716 235.467 290.505 236.349 290.519 238.112V243H289.254V238.105C289.249 237.572 289.126 237.178 288.885 236.923C288.648 236.668 288.276 236.54 287.771 236.54C287.36 236.54 287 236.649 286.69 236.868C286.381 237.087 286.139 237.374 285.966 237.729V243H284.701V235.604H285.897ZM293.762 235.604L293.803 236.533C294.368 235.822 295.106 235.467 296.018 235.467C297.581 235.467 298.369 236.349 298.383 238.112V243H297.119V238.105C297.114 237.572 296.991 237.178 296.749 236.923C296.512 236.668 296.141 236.54 295.635 236.54C295.225 236.54 294.865 236.649 294.555 236.868C294.245 237.087 294.004 237.374 293.83 237.729V243H292.566V235.604H293.762ZM308.278 243H306.959V238.399H301.941V243H300.629V233.047H301.941V237.326H306.959V233.047H308.278V243ZM318.399 243H317.079V238.399H312.062V243H310.749V233.047H312.062V237.326H317.079V233.047H318.399V243ZM321.977 235.604V243.854C321.977 245.276 321.332 245.987 320.042 245.987C319.764 245.987 319.507 245.946 319.27 245.864V244.853C319.416 244.889 319.607 244.907 319.844 244.907C320.127 244.907 320.341 244.83 320.487 244.675C320.637 244.524 320.712 244.26 320.712 243.882V235.604H321.977ZM320.582 233.642C320.582 233.441 320.644 233.27 320.767 233.129C320.895 232.983 321.079 232.91 321.321 232.91C321.567 232.91 321.754 232.981 321.881 233.122C322.009 233.263 322.073 233.437 322.073 233.642C322.073 233.847 322.009 234.018 321.881 234.154C321.754 234.291 321.567 234.359 321.321 234.359C321.075 234.359 320.89 234.291 320.767 234.154C320.644 234.018 320.582 233.847 320.582 233.642ZM332.009 243H330.689L325.679 235.33V243H324.359V233.047H325.679L330.703 240.751V233.047H332.009V243ZM334.48 243V233.047H337.289C338.155 233.047 338.921 233.238 339.586 233.621C340.251 234.004 340.764 234.549 341.124 235.255C341.489 235.961 341.673 236.772 341.678 237.688V238.324C341.678 239.263 341.496 240.086 341.131 240.792C340.771 241.498 340.254 242.041 339.579 242.419C338.909 242.797 338.128 242.991 337.235 243H334.48ZM335.792 234.127V241.927H337.173C338.185 241.927 338.971 241.612 339.531 240.983C340.097 240.354 340.379 239.459 340.379 238.297V237.716C340.379 236.586 340.112 235.708 339.579 235.084C339.051 234.455 338.299 234.136 337.323 234.127H335.792ZM346.336 238.372L345.12 239.637V243H343.807V233.047H345.12V237.969L349.543 233.047H351.128L347.211 237.442L351.436 243H349.864L346.336 238.372ZM354.591 239.575L353.798 240.402V243H352.533V232.5H353.798V238.851L354.474 238.037L356.778 235.604H358.316L355.438 238.693L358.651 243H357.168L354.591 239.575Z" fill="black" fill-opacity="0.63"/>
<rect x="375" y="224" width="42" height="28" rx="14" fill="#F0932B"/>
<path d="M393.812 236.194H390.313C389.588 236.194 389 236.757 389 237.452V243.742C389 244.437 389.588 245 390.312 245H396.875C397.6 245 398.188 244.437 398.188 243.742V240.806M393.812 236.194H396.875C397.6 236.194 398.188 236.757 398.188 237.452V240.806M393.812 236.194V233.258C393.812 232.563 394.4 232 395.125 232H401.688C402.412 232 403 232.563 403 233.258V239.548C403 240.243 402.412 240.806 401.688 240.806H398.188" stroke="white" stroke-width="2.3"/>
<path d="M75.107 67.7709C71.1618 83.1995 55.1344 92.5892 39.3082 88.7417C23.4885 84.8951 13.8581 69.2675 17.8051 53.8397C21.7485 38.4092 37.7759 29.0187 53.5975 32.8653C69.4227 36.7119 79.0522 52.3413 75.107 67.7709V67.7709Z" fill="#F7931A"/>
<path d="M75.107 67.7709C71.1618 83.1995 55.1344 92.5892 39.3082 88.7417C23.4885 84.8951 13.8581 69.2675 17.8051 53.8397C21.7485 38.4092 37.7759 29.0187 53.5975 32.8653C69.4227 36.7119 79.0522 52.3413 75.107 67.7709V67.7709Z" fill="url(#paint0_linear)"/>
<path d="M59.4794 56.7007C60.0674 52.8685 57.0748 50.8084 52.9828 49.4341L54.3102 44.2429L51.0693 43.4554L49.777 48.5098C48.925 48.3028 48.0499 48.1075 47.1803 47.914L48.4819 42.8263L45.2428 42.0388L43.9145 47.2282C43.2093 47.0716 42.517 46.9168 41.845 46.7539L41.8486 46.7377L37.3791 45.6496L36.517 49.0246C36.517 49.0246 38.9216 49.5619 38.8708 49.5952C40.1834 49.9147 40.4206 50.7616 40.381 51.433L38.869 57.3469C38.9594 57.3694 39.0767 57.4018 39.2059 57.4522C39.0979 57.4261 38.9825 57.3973 38.8634 57.3694L36.744 65.6539C36.5834 66.0427 36.1764 66.6259 35.2588 66.4045C35.2911 66.4504 32.9031 65.8312 32.9031 65.8312L31.2942 69.4483L35.5117 70.4734C36.2963 70.6651 37.0653 70.8658 37.8222 71.0548L36.481 76.3054L39.7182 77.0929L41.0465 71.8981C41.9308 72.1321 42.7893 72.3481 43.6293 72.5515L42.3056 77.722L45.5465 78.5095L46.8877 73.2688C52.4142 74.2885 56.5699 73.8772 58.3191 69.0037C59.7287 65.0797 58.249 62.8162 55.3413 61.3402C57.4588 60.8641 59.0539 59.506 59.4794 56.7007V56.7007ZM52.0745 66.8248C51.073 70.7488 44.2966 68.6275 42.0997 68.0956L43.8794 61.1395C46.0763 61.6741 53.1213 62.7325 52.0745 66.8248ZM53.077 56.644C52.1631 60.2134 46.5231 58.3999 44.6936 57.9553L46.3071 51.6463C48.1367 52.0909 54.0286 52.9207 53.077 56.644Z" fill="white"/>
</g>
<defs>
<filter id="filter0_d" x="3" y="30" width="480" height="286" filterUnits="userSpaceOnUse" color-interpolation-filters="sRGB">
<feFlood flood-opacity="0" result="BackgroundImageFix"/>
<feColorMatrix in="SourceAlpha" type="matrix" values="0 0 0 0 0 0 0 0 0 0 0 0 0 0 0 0 0 0 127 0"/>
<feOffset/>
<feGaussianBlur stdDeviation="10"/>
<feColorMatrix type="matrix" values="0 0 0 0 0 0 0 0 0 0 0 0 0 0 0 0 0 0 0.07 0"/>
<feBlend mode="normal" in2="BackgroundImageFix" result="effect1_dropShadow"/>
<feBlend mode="normal" in="SourceGraphic" in2="effect1_dropShadow" result="shape"/>
</filter>
<linearGradient id="paint0_linear" x1="46.4557" y1="32.0034" x2="46.4557" y2="89.604" gradientUnits="userSpaceOnUse">
<stop stop-color="white" stop-opacity="0.59"/>
<stop offset="1" stop-color="white" stop-opacity="0"/>
</linearGradient>
<clipPath id="clip0">
<rect width="468" height="311" fill="white"/>
</clipPath>
</defs>
</svg>
