<svg width="468" height="400" viewBox="0 0 468 400" fill="none" xmlns="http://www.w3.org/2000/svg">
<g clip-path="url(#clip0)">
<path fill-rule="evenodd" clip-rule="evenodd" d="M230.143 1.78823C296.297 -4.5269 361.97 27.7165 400.909 76.5482C437.916 122.958 433.364 183.13 419.235 238.924C405.129 294.628 381.154 352.059 324.678 377.583C267.453 403.446 198.885 391.861 142.94 363.795C90.964 337.72 55.1611 291.047 46.1725 237.865C37.9129 188.997 67.7788 145.739 99.2576 105.344C134.4 60.2478 169.521 7.5752 230.143 1.78823Z" fill="url(#paint0_linear)"/>
<path d="M235.723 371.34C362.25 371.34 464.821 365.629 464.821 358.586C464.821 351.542 362.25 345.832 235.723 345.832C109.196 345.832 6.625 351.542 6.625 358.586C6.625 365.629 109.196 371.34 235.723 371.34Z" fill="#DFE5FF"/>
<path d="M198.592 107.385C194.64 104.297 188.219 105.852 184.321 110.839L89.898 231.689C86.001 236.678 86.0463 243.284 89.9965 246.371L97.4041 252.158L206.001 113.173L198.592 107.385Z" fill="#FFB767"/>
<path d="M147.352 291.182C152.222 294.989 159.395 294.02 163.292 289.031L257.715 168.182C261.612 163.193 260.815 156.001 255.945 152.195L235.182 135.972L126.587 274.958L147.352 291.182Z" fill="#FFB767"/>
<rect x="235.189" y="135.973" width="176.371" height="37.032" transform="rotate(128.004 235.189 135.973)" fill="#FCFCFF"/>
<path d="M224.713 153.167C220.967 156.913 220.967 162.986 224.713 166.731C228.458 170.477 234.531 170.477 238.277 166.731C242.022 162.986 242.022 156.913 238.277 153.167C234.531 149.422 228.458 149.422 224.713 153.167Z" fill="#D35400"/>
<path d="M120.833 245.346L136.139 225.757C138.181 223.142 141.99 222.675 144.605 224.716L155.046 232.873C157.66 234.915 158.128 238.724 156.086 241.338L140.78 260.928C138.738 263.542 134.929 264.01 132.314 261.968L121.873 253.811C119.259 251.77 118.791 247.961 120.833 245.346Z" fill="#978CFF"/>
<path d="M214.355 138.469C209.879 133.993 202.554 133.993 198.079 138.469L89.6336 246.914C85.1578 251.39 85.1578 258.715 89.6337 263.191L98.0237 271.581L222.745 146.859L214.355 138.469Z" fill="#F0932B"/>
<path d="M143.927 317.481C148.403 321.957 155.728 321.957 160.204 317.482L268.648 209.037C273.124 204.561 273.124 197.236 268.648 192.76L249.566 173.677L124.846 298.397L143.929 317.48L143.927 317.481Z" fill="#F0932B"/>
<rect x="249.564" y="173.68" width="176.38" height="37.9279" transform="rotate(135 249.564 173.68)" fill="#E3E5FC"/>
<path d="M239.536 197.105C235.79 200.85 235.79 206.923 239.536 210.669C243.281 214.414 249.354 214.414 253.1 210.669C256.845 206.923 256.845 200.85 253.1 197.105C249.354 193.359 243.281 193.359 239.536 197.105Z" fill="#D35400"/>
<path d="M126.075 275.162L143.655 257.582C146 255.237 149.839 255.237 152.184 257.582L161.552 266.95C163.897 269.295 163.897 273.134 161.552 275.479L143.972 293.059C141.627 295.404 137.788 295.404 135.443 293.059L126.075 283.691C123.73 281.346 123.729 277.509 126.075 275.162Z" fill="#5A54FF"/>
<path d="M197.853 180.793L216.14 162.507C217.349 161.297 219.327 161.297 220.536 162.507L221.226 163.197C222.435 164.406 222.435 166.383 221.226 167.593L202.939 185.879C201.73 187.089 199.752 187.089 198.543 185.879L197.853 185.189C196.644 183.98 196.644 182.003 197.853 180.793Z" fill="white"/>
<path d="M169.354 209.293L187.641 191.007C188.85 189.797 190.827 189.797 192.037 191.007L192.727 191.697C193.936 192.906 193.936 194.883 192.727 196.093L174.44 214.379C173.231 215.589 171.253 215.589 170.044 214.379L169.354 213.689C168.145 212.48 168.146 210.501 169.354 209.293Z" fill="white"/>
<path d="M140.856 237.792L159.141 219.507C160.351 218.297 162.328 218.297 163.537 219.507L164.227 220.197C165.437 221.406 165.437 223.383 164.227 224.593L145.941 242.879C144.731 244.089 142.754 244.089 141.545 242.879L140.855 242.189C139.647 240.978 139.647 239.001 140.856 237.792Z" fill="white"/>
<path d="M112.714 265.934L131 247.647C132.21 246.438 134.187 246.438 135.396 247.647L136.086 248.337C137.296 249.546 137.296 251.524 136.086 252.733L117.8 271.02C116.59 272.229 114.613 272.229 113.404 271.02L112.714 270.33C111.504 269.121 111.504 267.143 112.714 265.934Z" fill="white"/>
<path d="M150.077 322.023H63.4994C53.6555 322.023 45.6028 313.971 45.6028 304.127V92.2092C45.6028 82.3652 53.6555 74.3125 63.4994 74.3125H150.077C159.921 74.3125 167.974 82.3652 167.974 92.2092V304.123C167.974 313.967 159.921 322.023 150.077 322.023Z" fill="#F0932B"/>
<path d="M142.311 298.913H71.2616C61.4177 298.913 53.365 290.86 53.365 281.016V100.537C53.365 90.6933 61.4177 82.6406 71.2616 82.6406H142.311C152.155 82.6406 160.208 90.6933 160.208 100.537V281.016C160.212 290.856 152.155 298.913 142.311 298.913Z" fill="white"/>
<path d="M118.316 79.9775H95.2605C94.6992 79.9775 94.2415 79.5197 94.2415 78.9585C94.2415 78.3972 94.6992 77.9395 95.2605 77.9395H118.316C118.877 77.9395 119.335 78.3972 119.335 78.9585C119.335 79.5197 118.873 79.9775 118.316 79.9775Z" fill="#E3E5FC"/>
<path d="M106.788 316.053C110.295 316.053 113.137 313.211 113.137 309.704C113.137 306.198 110.295 303.355 106.788 303.355C103.282 303.355 100.439 306.198 100.439 309.704C100.439 313.211 103.282 316.053 106.788 316.053Z" fill="#D35400"/>
<path d="M134.087 273.105H79.4855C73.2878 273.105 68.2125 268.033 68.2125 261.832C68.2125 255.634 73.2838 250.559 79.4855 250.559H134.087C140.285 250.559 145.36 255.63 145.36 261.832C145.36 268.029 140.289 273.105 134.087 273.105Z" fill="#F0932B"/>
<path d="M146.196 117.852H113.3C111.8 117.852 110.574 116.626 110.574 115.125C110.574 113.624 111.8 112.398 113.3 112.398H146.196C147.697 112.398 148.923 113.624 148.923 115.125C148.923 116.626 147.697 117.852 146.196 117.852Z" fill="#F0932B"/>
<path d="M146.196 130.344H113.3C111.8 130.344 110.574 129.118 110.574 127.617C110.574 126.117 111.8 124.891 113.3 124.891H146.196C147.697 124.891 148.923 126.117 148.923 127.617C148.923 129.114 147.697 130.344 146.196 130.344Z" fill="#FDC510"/>
<path d="M106.319 234.084C105.972 233.801 105.917 233.284 106.203 232.938L113.683 223.754C113.965 223.408 114.483 223.352 114.829 223.639C115.175 223.922 115.231 224.439 114.944 224.785L107.465 233.969C107.182 234.315 106.665 234.367 106.319 234.084Z" fill="#E3E5FC"/>
<path d="M107.254 234.084C107.6 233.801 107.656 233.284 107.369 232.938L99.8899 223.754C99.6073 223.408 99.0898 223.352 98.7435 223.639C98.3972 223.922 98.3414 224.439 98.628 224.785L106.108 233.969C106.39 234.315 106.908 234.367 107.254 234.084Z" fill="#E3E5FC"/>
<path fill-rule="evenodd" clip-rule="evenodd" d="M77.4673 112.654H93.7279H93.7319V111.161C93.7319 105.354 90.0857 100.629 85.5996 100.629C81.1135 100.629 77.4673 105.354 77.4673 111.161V112.654ZM90.639 109.672H80.5562C81.0418 106.264 83.1555 103.609 85.5956 103.613C88.0397 103.613 90.1533 106.264 90.639 109.672Z" fill="#E3E5FC"/>
<path d="M78.7252 109.219C76.1855 109.219 74.1077 110.843 74.1077 112.825L69.7848 138.189C69.7848 140.172 71.8626 141.796 74.4023 141.796H93.2065L88.1591 109.219H78.7252Z" fill="#7BA0FF"/>
<path d="M100.073 138.185L96.3671 112.821C96.3671 110.839 94.2892 109.215 91.7496 109.215H88.1552L93.2025 141.792H95.4515C97.9951 141.792 100.073 140.172 100.073 138.185Z" fill="#B9CCFF"/>
<path d="M146.196 176.274H113.3C111.8 176.274 110.574 175.048 110.574 173.547C110.574 172.046 111.8 170.82 113.3 170.82H146.196C147.697 170.82 148.923 172.046 148.923 173.547C148.923 175.044 147.697 176.274 146.196 176.274Z" fill="#F0932B"/>
<path d="M146.196 188.762H113.3C111.8 188.762 110.574 187.536 110.574 186.035C110.574 184.535 111.8 183.309 113.3 183.309H146.196C147.697 183.309 148.923 184.535 148.923 186.035C148.923 187.536 147.697 188.762 146.196 188.762Z" fill="#F0932B"/>
<path fill-rule="evenodd" clip-rule="evenodd" d="M77.4673 171.074H93.7279H93.7319V169.581C93.7319 163.774 90.0857 159.049 85.5996 159.049C81.1135 159.049 77.4673 163.774 77.4673 169.581V171.074ZM90.639 168.094H80.5562C81.0418 164.686 83.1555 162.035 85.5956 162.035C88.0397 162.035 90.1533 164.686 90.639 168.094Z" fill="#E3E5FC"/>
<path d="M78.7252 167.639C76.1855 167.639 74.1077 169.263 74.1077 171.245L69.7848 196.609C69.7848 198.592 71.8626 200.216 74.4023 200.216H93.2065L88.1591 167.639H78.7252V167.639Z" fill="#FAE026"/>
<path d="M100.073 196.609L96.3671 171.245C96.3671 169.263 94.2892 167.639 91.7496 167.639H88.1552L93.2025 200.216H95.4515C97.9951 200.216 100.073 198.592 100.073 196.609Z" fill="#FDC510"/>
<path d="M98.6997 145.335C102.27 145.335 105.164 142.441 105.164 138.871C105.164 135.3 102.27 132.406 98.6997 132.406C95.1295 132.406 92.2352 135.3 92.2352 138.871C92.2352 142.441 95.1295 145.335 98.6997 145.335Z" fill="#5A54FF"/>
<path d="M98.6997 204.634C102.27 204.634 105.164 201.74 105.164 198.17C105.164 194.599 102.27 191.705 98.6997 191.705C95.1295 191.705 92.2352 194.599 92.2352 198.17C92.2352 201.74 95.1295 204.634 98.6997 204.634Z" fill="#F44E4E"/>
<path d="M106.788 246.604C104.396 246.604 102.437 244.645 102.437 242.253C102.437 239.861 104.396 237.902 106.788 237.902C109.18 237.902 111.139 239.861 111.139 242.253C111.139 244.649 109.18 246.604 106.788 246.604Z" fill="#8E94FF"/>
<path d="M331.826 248.35C326.786 248.35 322.662 244.226 322.662 239.187C322.662 234.147 326.786 230.023 331.826 230.023C336.865 230.023 340.989 234.147 340.989 239.187C340.989 244.226 336.865 248.35 331.826 248.35Z" fill="#E3E5FC"/>
<path fill-rule="evenodd" clip-rule="evenodd" d="M335.926 228.247C336.957 228.633 337.976 228.824 338.951 228.824C340.288 228.824 341.55 228.462 342.641 227.746C346.395 225.298 346.868 219.347 343.692 214.482L342.876 213.232L329.262 222.129L330.078 223.379C331.571 225.664 333.649 227.391 335.926 228.247ZM336.973 225.451C335.691 224.969 334.485 224.097 333.474 222.935L341.924 217.418C343.377 220.539 343.059 223.91 341.013 225.248C339.934 225.952 338.497 226.024 336.973 225.451Z" fill="#E3E5FC"/>
<path d="M343.704 216.8C345.829 215.411 346.681 212.915 345.598 211.255L335.352 187.654C334.27 185.994 331.643 185.771 329.513 187.16L313.77 197.442L335.806 221.959L343.704 216.8Z" fill="#30CCAE"/>
<path d="M309.988 204.212L326.957 223.423C328.04 225.083 330.667 225.305 332.797 223.916L335.806 221.954L313.77 197.438L311.887 198.667C309.757 200.057 308.906 202.553 309.988 204.212Z" fill="#16A085"/>
<path d="M398.078 267.905H334.532C329.493 267.905 325.369 263.781 325.369 258.741C325.369 253.702 329.493 249.578 334.532 249.578H398.078C403.118 249.578 407.242 253.702 407.242 258.741C407.242 263.781 403.118 267.905 398.078 267.905Z" fill="#FDC510"/>
<path d="M380.297 247.471H352.31C347.27 247.471 343.146 243.347 343.146 238.308C343.146 233.268 347.27 229.145 352.31 229.145H380.297C385.337 229.145 389.46 233.268 389.46 238.308C389.464 243.347 385.337 247.471 380.297 247.471Z" fill="#978CFF"/>
<path d="M440.774 267.616H421.301C416.262 267.616 412.138 263.492 412.138 258.452C412.138 253.413 416.262 249.289 421.301 249.289H440.774C445.813 249.289 449.937 253.413 449.937 258.452C449.941 263.492 445.817 267.616 440.774 267.616Z" fill="#A7ADFF"/>
<path d="M361.863 354.167C367.168 354.167 371.468 349.867 371.468 344.562C371.468 339.257 367.168 334.957 361.863 334.957C356.558 334.957 352.258 339.257 352.258 344.562C352.258 349.867 356.558 354.167 361.863 354.167Z" fill="#3D5DAF"/>
<path d="M361.863 351.353C365.614 351.353 368.654 348.313 368.654 344.562C368.654 340.812 365.614 337.771 361.863 337.771C358.113 337.771 355.072 340.812 355.072 344.562C355.072 348.313 358.113 351.353 361.863 351.353Z" fill="#E3E5FC"/>
<path d="M429.915 354.167C435.22 354.167 439.52 349.867 439.52 344.562C439.52 339.257 435.22 334.957 429.915 334.957C424.61 334.957 420.31 339.257 420.31 344.562C420.31 349.867 424.61 354.167 429.915 354.167Z" fill="#3D5DAF"/>
<path d="M429.915 351.353C433.665 351.353 436.706 348.313 436.706 344.562C436.706 340.812 433.665 337.771 429.915 337.771C426.164 337.771 423.124 340.812 423.124 344.562C423.124 348.313 426.164 351.353 429.915 351.353Z" fill="#E3E5FC"/>
<path d="M352.178 331.971C350.682 331.971 333.812 331.664 330.381 318.186C329.095 313.139 326.245 297.551 322.949 279.499C318.28 253.947 311.883 218.95 309.869 215.129C306.78 209.269 304.105 208.115 294.05 208.294C283.935 208.465 246.602 208.282 246.224 208.278L246.239 205.297C246.614 205.297 283.912 205.484 293.998 205.313C304.296 205.146 308.631 206.384 312.508 213.74C314.574 217.665 319.355 243.248 325.883 278.961C329.171 296.958 332.013 312.498 333.271 317.449C336.216 329.021 352.079 328.981 352.246 328.989H449.941V331.971H352.258C352.242 331.971 352.214 331.971 352.178 331.971Z" fill="#F0932B"/>
<path d="M453.544 270.124H322.798V267.143H451.239L464.355 216.964H311.604V213.982H468.22L453.544 270.124Z" fill="#D35400"/>
<rect x="346.623" y="215.826" width="2.98135" height="54.9181" transform="rotate(-14.549 346.623 215.826)" fill="#F0932B"/>
<rect x="387.454" y="215.475" width="2.98145" height="52.1415" fill="#F0932B"/>
<rect x="414.78" y="268.244" width="54.9206" height="2.98149" transform="rotate(-75.4635 414.78 268.244)" fill="#F0932B"/>
<rect x="316.206" y="231.766" width="144.403" height="2.98145" fill="#F0932B"/>
<rect x="319.645" y="249.666" width="137.314" height="2.98145" fill="#F0932B"/>
</g>
<defs>
<linearGradient id="paint0_linear" x1="352.446" y1="30.3499" x2="83.2278" y2="326.862" gradientUnits="userSpaceOnUse">
<stop stop-color="#FFB767"/>
<stop offset="1" stop-color="white"/>
</linearGradient>
<clipPath id="clip0">
<rect width="468" height="400" fill="white"/>
</clipPath>
</defs>
</svg>
