<svg width="468" height="400" viewBox="0 0 468 400" fill="none" xmlns="http://www.w3.org/2000/svg">
<path fill-rule="evenodd" clip-rule="evenodd" d="M227.093 9.86244C285.653 10.4418 347.199 13.6863 387.61 58.0081C432.087 106.791 456.217 177.474 439.178 242.476C422.779 305.034 363.677 338.991 307.028 365.423C253.078 390.594 193.082 408.05 139.356 382.364C84.5146 356.145 52.5889 298.175 38.26 236.927C23.6024 174.274 22.2444 103.466 62.7212 54.7937C101.818 7.78092 167.514 9.27296 227.093 9.86244Z" fill="url(#paint0_linear)"/>
<path d="M234.41 359.434C362.215 359.434 465.821 350.608 465.821 339.719C465.821 328.831 362.215 320.005 234.41 320.005C106.606 320.005 3 328.831 3 339.719C3 350.608 106.606 359.434 234.41 359.434Z" fill="#DFE5FF"/>
<path d="M298.308 329.35H265.857C263.586 329.35 261.728 327.493 261.728 325.224V286.55C261.728 284.281 263.586 282.424 265.857 282.424H298.308C300.58 282.424 302.438 284.281 302.438 286.55V325.224C302.438 327.493 300.58 329.35 298.308 329.35Z" fill="#D35400"/>
<path d="M325.382 329.35H238.784C235.874 329.35 233.492 326.97 233.492 324.063C233.492 321.156 235.874 318.776 238.784 318.776H325.385C328.295 318.776 330.677 321.156 330.677 324.063C330.677 326.97 328.295 329.35 325.382 329.35Z" fill="#F0932B"/>
<path d="M433.352 296.605H130.814C124.56 296.605 119.444 291.494 119.444 285.246V101.596C119.444 95.3479 124.56 90.2363 130.814 90.2363H433.352C439.605 90.2363 444.721 95.3479 444.721 101.596V285.246C444.725 291.494 439.605 296.605 433.352 296.605Z" fill="#F0932B"/>
<path d="M134.983 95.0415C129.354 95.0415 124.751 99.6405 124.751 105.265V171.299C156.961 145.462 189.635 120.09 222.635 95.0415L134.983 95.0415Z" fill="#E3EDFF"/>
<path d="M427.938 95.0415H398.705H222.632C189.632 120.09 156.958 145.462 124.747 171.299V240.627V265.587C124.747 271.211 129.354 275.81 134.979 275.81H427.934C433.564 275.81 438.167 271.207 438.167 265.587V105.265C438.17 99.6405 433.564 95.0415 427.938 95.0415Z" fill="#D3E2FF"/>
<path d="M281.46 287.698C283.022 287.698 284.288 286.433 284.288 284.873C284.288 283.313 283.022 282.049 281.46 282.049C279.899 282.049 278.633 283.313 278.633 284.873C278.633 286.433 279.899 287.698 281.46 287.698Z" fill="#D35400"/>
<path d="M176.547 239.611V333.429C176.547 340.702 170.591 346.652 163.312 346.652H102.998C95.7184 346.652 89.7627 340.702 89.7627 333.429V239.611C89.7627 232.338 95.7184 226.388 102.998 226.388H163.312C170.591 226.384 176.547 232.338 176.547 239.611Z" fill="#F0932B"/>
<path d="M94.7067 333.138C94.7067 334.253 94.9183 335.318 95.2843 336.311C96.5831 339.82 99.952 342.343 103.888 342.343H152.003H162.404C167.452 342.343 171.585 338.2 171.585 333.138V240.417C171.585 237.603 170.304 235.073 168.302 233.381C144.749 255.96 119.728 277.069 94.7067 298.182V333.138H94.7067Z" fill="#E3EBFC"/>
<path d="M152.053 231.213H103.884C98.8361 231.213 94.703 235.356 94.703 240.418V254.781V298.182C119.724 277.073 144.745 255.96 168.299 233.381C166.699 232.03 164.643 231.213 162.4 231.213H152.053V231.213Z" fill="#EFF0FC"/>
<path d="M133.153 345.651C134.086 345.651 134.843 344.896 134.843 343.963C134.843 343.031 134.086 342.275 133.153 342.275C132.22 342.275 131.463 343.031 131.463 343.963C131.463 344.896 132.22 345.651 133.153 345.651Z" fill="#D35400"/>
<path d="M158.644 249.944H128.995C127.642 249.944 126.537 248.84 126.537 247.489C126.537 246.137 127.642 245.033 128.995 245.033H158.644C159.997 245.033 161.102 246.137 161.102 247.489C161.105 248.84 159.997 249.944 158.644 249.944Z" fill="white"/>
<path d="M158.644 261.189H128.995C127.642 261.189 126.537 260.084 126.537 258.733C126.537 257.382 127.642 256.278 128.995 256.278H158.644C159.997 256.278 161.102 257.382 161.102 258.733C161.105 260.084 159.997 261.189 158.644 261.189Z" fill="white"/>
<path d="M97.1502 256.663H65.2156C61.5847 256.663 58.6141 259.631 58.6141 263.258V295.261C72.6817 282.644 87.0184 270.334 101.972 258.781C100.763 257.487 99.0517 256.663 97.1502 256.663Z" fill="#EFF0FC"/>
<path d="M101.968 258.784C87.0181 270.334 72.6778 282.647 58.6102 295.264V323.288V341.354C58.6102 344.982 61.5808 347.95 65.2116 347.95H97.1463C100.777 347.95 103.748 344.982 103.748 341.354V263.262C103.748 261.566 103.095 260.021 102.033 258.849C102.015 258.824 101.99 258.806 101.968 258.784Z" fill="#E3EBFC"/>
<path fill-rule="evenodd" clip-rule="evenodd" d="M65.2156 256.663H97.1502C100.781 256.663 103.752 259.631 103.752 263.258V341.351C103.752 344.979 100.781 347.947 97.1502 347.947H65.2156C61.5847 347.947 58.6141 344.979 58.6141 341.351V263.258C58.6141 259.631 61.5847 256.663 65.2156 256.663ZM94.2832 339.43C97.914 339.43 100.885 336.462 100.885 332.834V266.327C100.885 262.699 97.914 259.731 94.2832 259.731H68.0782C64.4474 259.731 61.4767 262.699 61.4767 266.327V332.834C61.4767 336.462 64.4474 339.43 68.0782 339.43H94.2832Z" fill="#F0932B"/>
<path d="M85.4323 258.752H76.9293C76.7212 258.752 76.5526 258.584 76.5526 258.376C76.5526 258.168 76.7212 258 76.9293 258H85.4323C85.6403 258 85.809 258.168 85.809 258.376C85.809 258.584 85.6403 258.752 85.4323 258.752Z" fill="#E3E5FC"/>
<path d="M81.1807 345.745C82.4746 345.745 83.5235 344.697 83.5235 343.404C83.5235 342.112 82.4746 341.064 81.1807 341.064C79.8868 341.064 78.8379 342.112 78.8379 343.404C78.8379 344.697 79.8868 345.745 81.1807 345.745Z" fill="#D35400"/>
<path d="M96.0054 319.169H66.3561C65.0035 319.169 63.8985 318.065 63.8985 316.713C63.8985 315.362 65.0035 314.258 66.3561 314.258H96.0054C97.3579 314.258 98.463 315.362 98.463 316.713C98.463 318.065 97.3579 319.169 96.0054 319.169Z" fill="white"/>
<path d="M96.0053 330.417H66.3561C65.0035 330.417 63.8985 329.313 63.8985 327.962C63.8985 326.611 65.0035 325.507 66.3561 325.507H96.0053C97.3579 325.507 98.4629 326.611 98.4629 327.962C98.4629 329.31 97.3579 330.417 96.0053 330.417Z" fill="white"/>
<path d="M87.1941 127.213H29.7576C19.7765 127.213 11.6107 119.055 11.6107 109.083C11.6107 99.1104 19.7765 90.952 29.7576 90.952H87.1941C97.1752 90.952 105.341 99.1104 105.341 109.083C105.341 119.051 97.1752 127.213 87.1941 127.213Z" fill="#FFB767"/>
<path d="M50.1576 117.722C49.8204 117.722 49.4831 117.596 49.2212 117.342L41.2061 109.556L49.1961 101.398C49.7163 100.867 50.5666 100.857 51.0976 101.376C51.6286 101.896 51.6358 102.746 51.1191 103.276L45.0128 109.51L51.094 115.417C51.625 115.933 51.6358 116.783 51.1191 117.317C50.8608 117.586 50.5092 117.722 50.1576 117.722Z" fill="#D35400"/>
<path d="M65.4021 117.723C65.0649 117.723 64.724 117.598 64.4621 117.34C63.9311 116.82 63.9239 115.971 64.4406 115.44L70.547 109.207L64.4657 103.299C63.9347 102.783 63.9239 101.934 64.4406 101.399C64.9572 100.865 65.8075 100.855 66.3421 101.371L74.3572 109.156L66.3672 117.315C66.1017 117.587 65.7537 117.723 65.4021 117.723Z" fill="#D35400"/>
<path d="M53.5839 123.867C53.4475 123.867 53.304 123.845 53.1641 123.799C52.4609 123.569 52.0734 122.809 52.3066 122.103L60.702 96.4773C60.9316 95.7711 61.685 95.384 62.399 95.6206C63.1022 95.85 63.4897 96.6099 63.2565 97.3161L54.8611 122.942C54.6781 123.505 54.1507 123.867 53.5839 123.867Z" fill="#D35400"/>
<g clip-path="url(#clip0)">
<path d="M389.935 63.9184L383.188 62.4517C382.601 60.6556 381.875 58.9036 381.017 57.216L384.752 51.4063C385.419 50.3683 385.272 49.0055 384.4 48.1335L373.89 37.6232C373.018 36.7513 371.655 36.6046 370.617 37.2716L364.807 41.0065C363.12 40.1487 361.368 39.422 359.572 38.8354L358.105 32.0888C357.843 30.8833 356.776 30.0234 355.542 30.0234H340.679C339.445 30.0234 338.378 30.8833 338.116 32.0888L336.649 38.8354C334.853 39.422 333.101 40.1487 331.413 41.0065L325.604 37.2716C324.566 36.6046 323.203 36.7513 322.331 37.6232L311.821 48.1335C310.949 49.0055 310.802 50.3683 311.469 51.4063L315.204 57.216C314.346 58.9036 313.619 60.6556 313.033 62.4517L306.286 63.9184C305.081 64.1809 304.221 65.2477 304.221 66.4813V81.3447C304.221 82.5783 305.081 83.6451 306.286 83.9076L313.033 85.3743C313.619 87.1704 314.346 88.9223 315.204 90.61L311.469 96.4196C310.802 97.4577 310.949 98.8205 311.821 99.6925L322.331 110.203C323.203 111.075 324.566 111.221 325.604 110.554L331.413 106.819C333.101 107.677 334.853 108.404 336.649 108.991L338.116 115.737C338.378 116.943 339.445 117.803 340.679 117.803H355.542C356.776 117.803 357.843 116.943 358.105 115.737L359.572 108.991C361.368 108.404 363.12 107.677 364.807 106.819L370.617 110.554C371.655 111.221 373.018 111.075 373.89 110.203L384.4 99.6925C385.272 98.8205 385.419 97.4577 384.752 96.4196L381.017 90.61C381.875 88.9223 382.601 87.1704 383.188 85.3743L389.935 83.9076C391.14 83.6451 392 82.5783 392 81.3447V66.4813C392 65.2477 391.14 64.1809 389.935 63.9184ZM363.848 73.913C363.848 82.5903 356.788 89.6503 348.11 89.6503C339.433 89.6503 332.373 82.5903 332.373 73.913C332.373 65.2357 339.433 58.1757 348.11 58.1757C356.788 58.1757 363.848 65.2357 363.848 73.913Z" fill="#FDC510"/>
</g>
<g clip-path="url(#clip1)">
<path d="M443.189 30.2616L438.36 29.2118C437.94 27.9262 437.42 26.6721 436.806 25.4641L439.479 21.3057C439.957 20.5626 439.852 19.5871 439.228 18.963L431.704 11.4398C431.08 10.8157 430.105 10.7107 429.362 11.1882L425.203 13.8616C423.995 13.2475 422.741 12.7274 421.456 12.3075L420.406 7.47836C420.218 6.6155 419.454 6 418.571 6H407.932C407.049 6 406.285 6.6155 406.098 7.47836L405.048 12.3075C403.762 12.7274 402.508 13.2475 401.3 13.8616L397.142 11.1882C396.399 10.7107 395.423 10.8157 394.799 11.4398L387.276 18.963C386.652 19.5871 386.547 20.5626 387.024 21.3057L389.698 25.4641C389.084 26.6721 388.563 27.9262 388.144 29.2118L383.314 30.2616C382.452 30.4495 381.836 31.2132 381.836 32.0962V42.7352C381.836 43.6182 382.452 44.3818 383.314 44.5697L388.144 45.6195C388.563 46.9052 389.084 48.1592 389.698 49.3672L387.024 53.5257C386.547 54.2687 386.652 55.2442 387.276 55.8684L394.799 63.3915C395.423 64.0157 396.399 64.1206 397.142 63.6432L401.3 60.9698C402.508 61.5838 403.762 62.1039 405.048 62.5239L406.098 67.353C406.285 68.2159 407.049 68.8314 407.932 68.8314H418.571C419.454 68.8314 420.218 68.2159 420.406 67.353L421.456 62.5239C422.741 62.1039 423.995 61.5838 425.203 60.9698L429.362 63.6432C430.105 64.1206 431.08 64.0161 431.704 63.3915L439.228 55.8684C439.852 55.2442 439.957 54.2687 439.479 53.5257L436.806 49.3672C437.42 48.1592 437.94 46.9052 438.36 45.6195L443.189 44.5697C444.052 44.3818 444.667 43.6182 444.667 42.7352V32.0962C444.667 31.2132 444.052 30.4495 443.189 30.2616ZM424.516 37.4157C424.516 43.6268 419.463 48.6803 413.252 48.6803C407.041 48.6803 401.987 43.6268 401.987 37.4157C401.987 31.2045 407.041 26.1511 413.252 26.1511C419.463 26.1511 424.516 31.2045 424.516 37.4157Z" fill="#FDC510"/>
</g>
<defs>
<linearGradient id="paint0_linear" x1="361.298" y1="38.6176" x2="99.4365" y2="354.843" gradientUnits="userSpaceOnUse">
<stop stop-color="#FFB767"/>
<stop offset="1" stop-color="white"/>
</linearGradient>
<clipPath id="clip0">
<rect x="304.221" y="30.0234" width="87.7791" height="87.7791" fill="white"/>
</clipPath>
<clipPath id="clip1">
<rect x="381.836" y="6" width="62.8314" height="62.8314" fill="white"/>
</clipPath>
</defs>
</svg>
