<svg width="187" height="93" viewBox="0 0 187 93" fill="none" xmlns="http://www.w3.org/2000/svg">
<rect y="3.82906" width="51.4851" height="47.8633" rx="23.9316" fill="#F0932B"/>
<path d="M52.5016 25.8C58.4536 25.8 63.6056 26.792 67.9576 28.776C72.3736 30.76 75.7656 33.576 78.1336 37.224C80.5016 40.872 81.6856 45.192 81.6856 50.184C81.6856 55.112 80.5016 59.432 78.1336 63.144C75.7656 66.792 72.3736 69.608 67.9576 71.592C63.6056 73.512 58.4536 74.472 52.5016 74.472H38.9656V93H23.4136V25.8H52.5016ZM51.6376 61.8C56.3096 61.8 59.8616 60.808 62.2936 58.824C64.7256 56.776 65.9416 53.896 65.9416 50.184C65.9416 46.408 64.7256 43.528 62.2936 41.544C59.8616 39.496 56.3096 38.472 51.6376 38.472H38.9656V61.8H51.6376Z" fill="white"/>
<path d="M72.128 46.288C70.384 46.288 68.808 45.912 67.4 45.16C66.008 44.408 64.912 43.376 64.112 42.064C63.328 40.736 62.936 39.248 62.936 37.6C62.936 35.952 63.328 34.472 64.112 33.16C64.912 31.832 66.008 30.792 67.4 30.04C68.808 29.288 70.384 28.912 72.128 28.912C73.872 28.912 75.44 29.288 76.832 30.04C78.224 30.792 79.32 31.832 80.12 33.16C80.92 34.472 81.32 35.952 81.32 37.6C81.32 39.248 80.92 40.736 80.12 42.064C79.32 43.376 78.224 44.408 76.832 45.16C75.44 45.912 73.872 46.288 72.128 46.288ZM72.128 42.976C73.12 42.976 74.016 42.752 74.816 42.304C75.616 41.84 76.24 41.2 76.688 40.384C77.152 39.568 77.384 38.64 77.384 37.6C77.384 36.56 77.152 35.632 76.688 34.816C76.24 34 75.616 33.368 74.816 32.92C74.016 32.456 73.12 32.224 72.128 32.224C71.136 32.224 70.24 32.456 69.44 32.92C68.64 33.368 68.008 34 67.544 34.816C67.096 35.632 66.872 36.56 66.872 37.6C66.872 38.64 67.096 39.568 67.544 40.384C68.008 41.2 68.64 41.84 69.44 42.304C70.24 42.752 71.136 42.976 72.128 42.976ZM87.554 34.792C88.002 34.168 88.602 33.696 89.354 33.376C90.122 33.056 91.002 32.896 91.994 32.896V36.352C91.578 36.32 91.298 36.304 91.154 36.304C90.082 36.304 89.242 36.608 88.634 37.216C88.026 37.808 87.722 38.704 87.722 39.904V46H83.978V33.088H87.554V34.792ZM94.2202 33.088H97.9642V46H94.2202V33.088ZM96.0922 31.288C95.4042 31.288 94.8442 31.088 94.4122 30.688C93.9802 30.288 93.7642 29.792 93.7642 29.2C93.7642 28.608 93.9802 28.112 94.4122 27.712C94.8442 27.312 95.4042 27.112 96.0922 27.112C96.7802 27.112 97.3402 27.304 97.7722 27.688C98.2042 28.072 98.4202 28.552 98.4202 29.128C98.4202 29.752 98.2042 30.272 97.7722 30.688C97.3402 31.088 96.7802 31.288 96.0922 31.288ZM114.759 33.088V43.84C114.759 46.208 114.143 47.968 112.911 49.12C111.679 50.272 109.879 50.848 107.511 50.848C106.263 50.848 105.079 50.696 103.959 50.392C102.839 50.088 101.911 49.648 101.175 49.072L102.663 46.384C103.207 46.832 103.895 47.184 104.727 47.44C105.559 47.712 106.391 47.848 107.223 47.848C108.519 47.848 109.471 47.552 110.079 46.96C110.703 46.384 111.015 45.504 111.015 44.32V43.768C110.039 44.84 108.679 45.376 106.935 45.376C105.751 45.376 104.663 45.12 103.671 44.608C102.695 44.08 101.919 43.344 101.343 42.4C100.767 41.456 100.479 40.368 100.479 39.136C100.479 37.904 100.767 36.816 101.343 35.872C101.919 34.928 102.695 34.2 103.671 33.688C104.663 33.16 105.751 32.896 106.935 32.896C108.807 32.896 110.231 33.512 111.207 34.744V33.088H114.759ZM107.679 42.304C108.671 42.304 109.479 42.016 110.103 41.44C110.743 40.848 111.063 40.08 111.063 39.136C111.063 38.192 110.743 37.432 110.103 36.856C109.479 36.264 108.671 35.968 107.679 35.968C106.687 35.968 105.871 36.264 105.231 36.856C104.591 37.432 104.271 38.192 104.271 39.136C104.271 40.08 104.591 40.848 105.231 41.44C105.871 42.016 106.687 42.304 107.679 42.304ZM118.244 33.088H121.988V46H118.244V33.088ZM120.116 31.288C119.428 31.288 118.868 31.088 118.436 30.688C118.004 30.288 117.788 29.792 117.788 29.2C117.788 28.608 118.004 28.112 118.436 27.712C118.868 27.312 119.428 27.112 120.116 27.112C120.804 27.112 121.364 27.304 121.796 27.688C122.228 28.072 122.444 28.552 122.444 29.128C122.444 29.752 122.228 30.272 121.796 30.688C121.364 31.088 120.804 31.288 120.116 31.288ZM133.31 32.896C134.91 32.896 136.198 33.376 137.174 34.336C138.166 35.296 138.662 36.72 138.662 38.608V46H134.918V39.184C134.918 38.16 134.694 37.4 134.246 36.904C133.798 36.392 133.15 36.136 132.302 36.136C131.358 36.136 130.606 36.432 130.046 37.024C129.486 37.6 129.206 38.464 129.206 39.616V46H125.462V33.088H129.038V34.6C129.534 34.056 130.15 33.64 130.886 33.352C131.622 33.048 132.43 32.896 133.31 32.896ZM149.592 29.2C151.08 29.2 152.368 29.448 153.456 29.944C154.56 30.44 155.408 31.144 156 32.056C156.592 32.968 156.888 34.048 156.888 35.296C156.888 36.528 156.592 37.608 156 38.536C155.408 39.448 154.56 40.152 153.456 40.648C152.368 41.128 151.08 41.368 149.592 41.368H146.208V46H142.32V29.2H149.592ZM149.376 38.2C150.544 38.2 151.432 37.952 152.04 37.456C152.648 36.944 152.952 36.224 152.952 35.296C152.952 34.352 152.648 33.632 152.04 33.136C151.432 32.624 150.544 32.368 149.376 32.368H146.208V38.2H149.376ZM164.491 32.896C166.491 32.896 168.027 33.376 169.099 34.336C170.171 35.28 170.707 36.712 170.707 38.632V46H167.203V44.392C166.499 45.592 165.187 46.192 163.267 46.192C162.275 46.192 161.411 46.024 160.675 45.688C159.955 45.352 159.403 44.888 159.019 44.296C158.635 43.704 158.443 43.032 158.443 42.28C158.443 41.08 158.891 40.136 159.787 39.448C160.699 38.76 162.099 38.416 163.987 38.416H166.963C166.963 37.6 166.715 36.976 166.219 36.544C165.723 36.096 164.979 35.872 163.987 35.872C163.299 35.872 162.619 35.984 161.947 36.208C161.291 36.416 160.731 36.704 160.267 37.072L158.923 34.456C159.627 33.96 160.467 33.576 161.443 33.304C162.435 33.032 163.451 32.896 164.491 32.896ZM164.203 43.672C164.843 43.672 165.411 43.528 165.907 43.24C166.403 42.936 166.755 42.496 166.963 41.92V40.6H164.395C162.859 40.6 162.091 41.104 162.091 42.112C162.091 42.592 162.275 42.976 162.643 43.264C163.027 43.536 163.547 43.672 164.203 43.672ZM186.677 33.088L180.845 46.792C180.253 48.28 179.517 49.328 178.637 49.936C177.773 50.544 176.725 50.848 175.493 50.848C174.821 50.848 174.157 50.744 173.501 50.536C172.845 50.328 172.309 50.04 171.893 49.672L173.261 47.008C173.549 47.264 173.877 47.464 174.245 47.608C174.629 47.752 175.005 47.824 175.373 47.824C175.885 47.824 176.301 47.696 176.621 47.44C176.941 47.2 177.229 46.792 177.485 46.216L177.533 46.096L171.941 33.088H175.805L179.429 41.848L183.077 33.088H186.677Z" fill="black"/>
</svg>
