<svg width="110" height="64" viewBox="0 0 110 64" fill="none" xmlns="http://www.w3.org/2000/svg">
<path d="M36.608 31.64C39.3387 32.4507 41.4293 33.7733 42.88 35.608C44.3307 37.4427 45.056 39.704 45.056 42.392C45.056 46.36 43.5413 49.4533 40.512 51.672C37.5253 53.8907 33.2373 55 27.648 55H5.568V10.2H26.432C31.6373 10.2 35.6907 11.2027 38.592 13.208C41.4933 15.2133 42.944 18.072 42.944 21.784C42.944 24.0027 42.3893 25.9653 41.28 27.672C40.1707 29.336 38.6133 30.6587 36.608 31.64ZM15.872 28.76H25.536C27.7973 28.76 29.504 28.312 30.656 27.416C31.808 26.4773 32.384 25.112 32.384 23.32C32.384 21.5707 31.7867 20.2267 30.592 19.288C29.44 18.3493 27.7547 17.88 25.536 17.88H15.872V28.76ZM27.264 47.32C32.128 47.32 34.56 45.4 34.56 41.56C34.56 37.848 32.128 35.992 27.264 35.992H15.872V47.32H27.264Z" fill="black"/>
<rect x="11" y="16" width="25" height="33" fill="black"/>
<path d="M65 21L49 32L65 43V21Z" fill="black" stroke="black"/>
<path d="M87 21L71 32L87 43V21Z" fill="black" stroke="black"/>
<path d="M109 21L93 32L109 43V21Z" fill="black" stroke="black"/>
</svg>
