<svg width="290" height="53" viewBox="0 0 290 53" fill="none" xmlns="http://www.w3.org/2000/svg">
<path d="M2.17 40.2131C2.15133 40.6331 2.142 41.0251 2.142 41.3891C2.142 41.7531 2.15133 42.1451 2.17 42.5651C2.198 43.3397 2.43133 43.9697 2.87 44.4551C3.318 44.9311 3.95733 45.1691 4.788 45.1691C5.236 45.1691 5.614 45.1131 5.922 45.0011C6.23 44.8891 6.482 44.7444 6.678 44.5671C6.88333 44.3897 7.03733 44.1891 7.14 43.9651C7.252 43.7317 7.336 43.4984 7.392 43.2651C7.41067 43.1624 7.45733 43.0877 7.532 43.0411C7.60667 42.9851 7.68133 42.9571 7.756 42.9571H8.4C8.484 42.9571 8.554 42.9897 8.61 43.0551C8.67533 43.1111 8.708 43.1811 8.708 43.2651C8.69867 43.5731 8.61933 43.9091 8.47 44.2731C8.32067 44.6371 8.08733 44.9824 7.77 45.3091C7.462 45.6264 7.06067 45.8924 6.566 46.1071C6.08067 46.3217 5.488 46.4291 4.788 46.4291C4.18133 46.4291 3.64 46.3357 3.164 46.1491C2.688 45.9531 2.27733 45.6871 1.932 45.3511C1.596 45.0151 1.33467 44.6184 1.148 44.1611C0.961333 43.6944 0.858667 43.1857 0.84 42.6351C0.812 41.8044 0.812 40.9737 0.84 40.1431C0.858667 39.6017 0.961333 39.0977 1.148 38.6311C1.33467 38.1644 1.596 37.7631 1.932 37.4271C2.27733 37.0911 2.688 36.8297 3.164 36.6431C3.64 36.4471 4.18133 36.3491 4.788 36.3491C5.488 36.3491 6.08067 36.4564 6.566 36.6711C7.06067 36.8857 7.462 37.1564 7.77 37.4831C8.08733 37.8004 8.32067 38.1411 8.47 38.5051C8.61933 38.8691 8.69867 39.2051 8.708 39.5131C8.708 39.5971 8.67533 39.6717 8.61 39.7371C8.554 39.7931 8.484 39.8211 8.4 39.8211H7.756C7.68133 39.8211 7.60667 39.7977 7.532 39.7511C7.45733 39.6951 7.41067 39.6157 7.392 39.5131C7.336 39.2797 7.252 39.0511 7.14 38.8271C7.03733 38.5937 6.88333 38.3884 6.678 38.2111C6.482 38.0337 6.23 37.8891 5.922 37.7771C5.614 37.6651 5.236 37.6091 4.788 37.6091C3.95733 37.6091 3.318 37.8517 2.87 38.3371C2.43133 38.8131 2.198 39.4384 2.17 40.2131ZM10.0519 41.9491C10.0892 41.5197 10.1919 41.1184 10.3599 40.7451C10.5279 40.3717 10.7472 40.0451 11.0179 39.7651C11.2886 39.4851 11.6106 39.2657 11.9839 39.1071C12.3666 38.9484 12.7912 38.8691 13.2579 38.8691C13.7619 38.8691 14.2099 38.9531 14.6019 39.1211C15.0032 39.2797 15.3439 39.5131 15.6239 39.8211C15.9039 40.1291 16.1186 40.5024 16.2679 40.9411C16.4172 41.3797 16.4919 41.8697 16.4919 42.4111V42.7891C16.4919 42.8917 16.4546 42.9804 16.3799 43.0551C16.3052 43.1297 16.2166 43.1671 16.1139 43.1671H11.2979V43.2511C11.3166 43.8857 11.5079 44.3757 11.8719 44.7211C12.2452 45.0571 12.7072 45.2251 13.2579 45.2251C13.7712 45.2251 14.1539 45.1551 14.4059 45.0151C14.6672 44.8657 14.8772 44.7024 15.0359 44.5251C15.1106 44.4504 15.1759 44.3991 15.2319 44.3711C15.2879 44.3431 15.3719 44.3291 15.4839 44.3291H15.9039C16.0066 44.3291 16.0999 44.3664 16.1839 44.4411C16.2679 44.5157 16.3006 44.6044 16.2819 44.7071C16.2539 44.8751 16.1746 45.0617 16.0439 45.2671C15.9132 45.4631 15.7219 45.6497 15.4699 45.8271C15.2272 45.9951 14.9192 46.1397 14.5459 46.2611C14.1819 46.3731 13.7526 46.4291 13.2579 46.4291C12.7912 46.4291 12.3712 46.3497 11.9979 46.1911C11.6246 46.0231 11.2979 45.7991 11.0179 45.5191C10.7472 45.2297 10.5279 44.8937 10.3599 44.5111C10.1919 44.1191 10.0892 43.6944 10.0519 43.2371C10.0052 42.8077 10.0052 42.3784 10.0519 41.9491ZM11.2979 41.9911H15.2319V41.9491C15.2319 41.3797 15.0499 40.9271 14.6859 40.5911C14.3312 40.2457 13.8552 40.0731 13.2579 40.0731C12.9872 40.0731 12.7352 40.1197 12.5019 40.2131C12.2686 40.2971 12.0632 40.4231 11.8859 40.5911C11.7086 40.7497 11.5686 40.9457 11.4659 41.1791C11.3632 41.4124 11.3072 41.6691 11.2979 41.9491V41.9911ZM21.6249 46.4291C21.0462 46.4291 20.5842 46.3311 20.2389 46.1351C19.8935 45.9297 19.6322 45.7104 19.4549 45.4771V48.5711C19.4549 48.6737 19.4175 48.7624 19.3429 48.8371C19.2682 48.9117 19.1795 48.9491 19.0769 48.9491H18.5589C18.4562 48.9491 18.3675 48.9117 18.2929 48.8371C18.2182 48.7624 18.1809 48.6737 18.1809 48.5711V39.3871C18.1809 39.2844 18.2182 39.1957 18.2929 39.1211C18.3675 39.0464 18.4562 39.0091 18.5589 39.0091H19.0769C19.1795 39.0091 19.2682 39.0464 19.3429 39.1211C19.4175 39.1957 19.4549 39.2844 19.4549 39.3871V39.8211C19.6415 39.5691 19.9075 39.3497 20.2529 39.1631C20.5982 38.9671 21.0555 38.8691 21.6249 38.8691C22.0635 38.8691 22.4695 38.9484 22.8429 39.1071C23.2255 39.2564 23.5569 39.4757 23.8369 39.7651C24.1169 40.0544 24.3409 40.4044 24.5089 40.8151C24.6769 41.2257 24.7749 41.6877 24.8029 42.2011C24.8122 42.3411 24.8169 42.4951 24.8169 42.6631C24.8169 42.8217 24.8122 42.9711 24.8029 43.1111C24.7749 43.6244 24.6769 44.0864 24.5089 44.4971C24.3409 44.9077 24.1169 45.2577 23.8369 45.5471C23.5569 45.8271 23.2255 46.0464 22.8429 46.2051C22.4695 46.3544 22.0635 46.4291 21.6249 46.4291ZM19.4549 42.0471C19.4455 42.1871 19.4409 42.3737 19.4409 42.6071C19.4409 42.8311 19.4455 43.0131 19.4549 43.1531C19.4829 43.8157 19.6789 44.3291 20.0429 44.6931C20.4162 45.0477 20.8969 45.2251 21.4849 45.2251C22.1009 45.2251 22.5862 45.0291 22.9409 44.6371C23.2955 44.2451 23.4915 43.7131 23.5289 43.0411C23.5382 42.7797 23.5382 42.5184 23.5289 42.2571C23.4915 41.5851 23.2955 41.0531 22.9409 40.6611C22.5862 40.2691 22.1009 40.0731 21.4849 40.0731C20.9062 40.0731 20.4302 40.2504 20.0569 40.6051C19.6835 40.9597 19.4829 41.4404 19.4549 42.0471ZM27.822 43.2231V45.0711H30.188C30.6547 45.0711 31.028 45.0057 31.308 44.8751C31.588 44.7351 31.728 44.4877 31.728 44.1331C31.728 43.7784 31.5927 43.5404 31.322 43.4191C31.0607 43.2884 30.6967 43.2231 30.23 43.2231H27.822ZM27.822 40.2271V42.0051H30.118C30.5847 42.0051 30.944 41.9444 31.196 41.8231C31.448 41.6924 31.574 41.4497 31.574 41.0951C31.574 40.7404 31.434 40.5071 31.154 40.3951C30.8834 40.2831 30.5147 40.2271 30.048 40.2271H27.822ZM26.828 46.2891C26.7534 46.2891 26.688 46.2611 26.632 46.2051C26.576 46.1491 26.548 46.0837 26.548 46.0091V39.2891C26.548 39.2144 26.576 39.1491 26.632 39.0931C26.688 39.0371 26.7534 39.0091 26.828 39.0091H30.3C31.1027 39.0091 31.728 39.1864 32.176 39.5411C32.624 39.8957 32.848 40.3671 32.848 40.9551C32.848 41.1697 32.82 41.3564 32.764 41.5151C32.7174 41.6737 32.652 41.8137 32.568 41.9351C32.4934 42.0564 32.4047 42.1637 32.302 42.2571C32.2087 42.3504 32.1107 42.4344 32.008 42.5091C32.3907 42.7237 32.652 42.9711 32.792 43.2511C32.932 43.5311 33.002 43.8531 33.002 44.2171C33.002 44.8891 32.7687 45.4024 32.302 45.7571C31.8447 46.1117 31.2287 46.2891 30.454 46.2891H26.828ZM40.3785 46.2891C40.2758 46.2891 40.1872 46.2517 40.1125 46.1771C40.0378 46.1024 40.0005 46.0137 40.0005 45.9111V41.2211L35.9265 46.1351C35.8518 46.2377 35.7492 46.2891 35.6185 46.2891H35.1425C35.0398 46.2891 34.9512 46.2517 34.8765 46.1771C34.8112 46.1024 34.7785 46.0137 34.7785 45.9111V39.3871C34.7785 39.2844 34.8158 39.1957 34.8905 39.1211C34.9652 39.0464 35.0538 39.0091 35.1565 39.0091H35.6745C35.7772 39.0091 35.8658 39.0464 35.9405 39.1211C36.0152 39.1957 36.0525 39.2844 36.0525 39.3871V44.1191L40.1265 39.1631C40.1732 39.1164 40.2152 39.0791 40.2525 39.0511C40.2992 39.0231 40.3598 39.0091 40.4345 39.0091H40.8965C40.9992 39.0091 41.0878 39.0464 41.1625 39.1211C41.2372 39.1957 41.2745 39.2844 41.2745 39.3871V45.9111C41.2745 46.0137 41.2372 46.1024 41.1625 46.1771C41.0878 46.2517 40.9992 46.2891 40.8965 46.2891H40.3785ZM44.3161 43.1391C44.3535 43.5124 44.4328 43.8297 44.5541 44.0911C44.6848 44.3524 44.8388 44.5671 45.0161 44.7351C45.2028 44.9031 45.4081 45.0291 45.6321 45.1131C45.8561 45.1877 46.0848 45.2251 46.3181 45.2251C46.7661 45.2251 47.1488 45.1411 47.4661 44.9731C47.7835 44.8051 48.0308 44.5251 48.2081 44.1331C48.2735 43.9837 48.3388 43.8857 48.4041 43.8391C48.4788 43.7831 48.5675 43.7551 48.6701 43.7551H49.0901C49.1928 43.7551 49.2815 43.7924 49.3561 43.8671C49.4401 43.9417 49.4775 44.0304 49.4681 44.1331C49.4588 44.3571 49.3841 44.6044 49.2441 44.8751C49.1135 45.1364 48.9128 45.3837 48.6421 45.6171C48.3808 45.8411 48.0541 46.0324 47.6621 46.1911C47.2795 46.3497 46.8315 46.4291 46.3181 46.4291C45.8048 46.4291 45.3475 46.3451 44.9461 46.1771C44.5541 46.0091 44.2181 45.7804 43.9381 45.4911C43.6675 45.2017 43.4528 44.8611 43.2941 44.4691C43.1448 44.0771 43.0608 43.6571 43.0421 43.2091C43.0328 43.0597 43.0235 42.8777 43.0141 42.6631C43.0141 42.4391 43.0235 42.2477 43.0421 42.0891C43.0795 41.6411 43.1728 41.2211 43.3221 40.8291C43.4808 40.4371 43.6955 40.0964 43.9661 39.8071C44.2368 39.5177 44.5681 39.2891 44.9601 39.1211C45.3521 38.9531 45.8048 38.8691 46.3181 38.8691C46.8315 38.8691 47.2795 38.9484 47.6621 39.1071C48.0541 39.2657 48.3808 39.4617 48.6421 39.6951C48.9128 39.9191 49.1135 40.1664 49.2441 40.4371C49.3841 40.6984 49.4588 40.9411 49.4681 41.1651C49.4775 41.2677 49.4401 41.3564 49.3561 41.4311C49.2815 41.5057 49.1928 41.5431 49.0901 41.5431H48.6701C48.5675 41.5431 48.4788 41.5197 48.4041 41.4731C48.3388 41.4171 48.2735 41.3144 48.2081 41.1651C48.0308 40.7731 47.7835 40.4931 47.4661 40.3251C47.1488 40.1571 46.7661 40.0731 46.3181 40.0731C46.0848 40.0731 45.8515 40.1151 45.6181 40.1991C45.3941 40.2737 45.1888 40.3951 45.0021 40.5631C44.8248 40.7311 44.6708 40.9457 44.5401 41.2071C44.4188 41.4684 44.3441 41.7857 44.3161 42.1591C44.2881 42.5044 44.2881 42.8311 44.3161 43.1391ZM57.5437 38.8691C58.0477 38.8691 58.4957 38.9484 58.8877 39.1071C59.2797 39.2564 59.6157 39.4664 59.8957 39.7371C60.1757 40.0077 60.3951 40.3391 60.5537 40.7311C60.7217 41.1137 60.8244 41.5337 60.8617 41.9911C60.8711 42.0751 60.8757 42.1777 60.8757 42.2991C60.8757 42.4111 60.8757 42.5324 60.8757 42.6631C60.8757 42.7844 60.8757 42.9057 60.8757 43.0271C60.8757 43.1391 60.8711 43.2324 60.8617 43.3071C60.8151 43.7737 60.7124 44.1984 60.5537 44.5811C60.3951 44.9637 60.1757 45.2904 59.8957 45.5611C59.6157 45.8317 59.2797 46.0464 58.8877 46.2051C58.4957 46.3544 58.0477 46.4291 57.5437 46.4291C57.0397 46.4291 56.5917 46.3544 56.1997 46.2051C55.8077 46.0464 55.4717 45.8317 55.1917 45.5611C54.9117 45.2904 54.6877 44.9637 54.5197 44.5811C54.3611 44.1984 54.2631 43.7737 54.2257 43.3071C54.2164 43.2324 54.2071 43.1391 54.1977 43.0271C54.1977 42.9057 54.1977 42.7844 54.1977 42.6631C54.1977 42.5324 54.1977 42.4111 54.1977 42.2991C54.2071 42.1777 54.2164 42.0751 54.2257 41.9911C54.2631 41.5337 54.3611 41.1137 54.5197 40.7311C54.6877 40.3391 54.9117 40.0077 55.1917 39.7371C55.4717 39.4664 55.8077 39.2564 56.1997 39.1071C56.5917 38.9484 57.0397 38.8691 57.5437 38.8691ZM59.5877 43.2371C59.6064 43.0784 59.6157 42.8871 59.6157 42.6631C59.6157 42.4297 59.6064 42.2291 59.5877 42.0611C59.5597 41.7811 59.4991 41.5197 59.4057 41.2771C59.3124 41.0344 59.1817 40.8244 59.0137 40.6471C58.8457 40.4697 58.6404 40.3297 58.3977 40.2271C58.1551 40.1244 57.8704 40.0731 57.5437 40.0731C57.2171 40.0731 56.9324 40.1244 56.6897 40.2271C56.4471 40.3297 56.2417 40.4697 56.0737 40.6471C55.9057 40.8244 55.7751 41.0344 55.6817 41.2771C55.5884 41.5197 55.5277 41.7811 55.4997 42.0611C55.4811 42.2291 55.4717 42.4297 55.4717 42.6631C55.4717 42.8871 55.4811 43.0784 55.4997 43.2371C55.5277 43.5171 55.5884 43.7784 55.6817 44.0211C55.7751 44.2637 55.9057 44.4737 56.0737 44.6511C56.2417 44.8284 56.4471 44.9684 56.6897 45.0711C56.9324 45.1737 57.2171 45.2251 57.5437 45.2251C57.8704 45.2251 58.1551 45.1737 58.3977 45.0711C58.6404 44.9684 58.8457 44.8284 59.0137 44.6511C59.1817 44.4737 59.3124 44.2637 59.4057 44.0211C59.4991 43.7784 59.5597 43.5171 59.5877 43.2371ZM66.9818 36.4471C66.9818 36.7737 66.9071 37.0724 66.7578 37.3431C66.6178 37.6137 66.4358 37.8797 66.2118 38.1411C65.9971 38.3931 65.7545 38.6544 65.4838 38.9251C65.2225 39.1864 64.9658 39.4757 64.7138 39.7931C64.9471 39.7371 65.2038 39.7091 65.4838 39.7091C65.9505 39.7091 66.3798 39.7837 66.7718 39.9331C67.1638 40.0824 67.4998 40.3017 67.7798 40.5911C68.0691 40.8804 68.2931 41.2351 68.4518 41.6551C68.6105 42.0657 68.6898 42.5371 68.6898 43.0691C68.6898 43.5637 68.6105 44.0211 68.4518 44.4411C68.2931 44.8517 68.0691 45.2064 67.7798 45.5051C67.4998 45.7944 67.1638 46.0231 66.7718 46.1911C66.3798 46.3497 65.9505 46.4291 65.4838 46.4291C65.0171 46.4291 64.5878 46.3497 64.1958 46.1911C63.8038 46.0231 63.4631 45.7944 63.1738 45.5051C62.8938 45.2064 62.6745 44.8517 62.5158 44.4411C62.3571 44.0211 62.2778 43.5637 62.2778 43.0691C62.2778 42.3504 62.3618 41.7251 62.5298 41.1931C62.6978 40.6517 62.9078 40.1804 63.1598 39.7791C63.4211 39.3777 63.6965 39.0277 63.9858 38.7291C64.2845 38.4304 64.5598 38.1551 64.8118 37.9031C65.0731 37.6511 65.2878 37.4131 65.4558 37.1891C65.6238 36.9557 65.7078 36.7084 65.7078 36.4471C65.7078 36.3444 65.7451 36.2557 65.8198 36.1811C65.8945 36.1064 65.9831 36.0691 66.0858 36.0691H66.6038C66.7065 36.0691 66.7951 36.1064 66.8698 36.1811C66.9445 36.2557 66.9818 36.3444 66.9818 36.4471ZM65.4838 40.9131C64.8305 40.9131 64.3451 41.1137 64.0278 41.5151C63.7105 41.9071 63.5518 42.4251 63.5518 43.0691C63.5518 43.7131 63.7105 44.2357 64.0278 44.6371C64.3451 45.0291 64.8305 45.2251 65.4838 45.2251C66.1371 45.2251 66.6225 45.0291 66.9398 44.6371C67.2571 44.2357 67.4158 43.7131 67.4158 43.0691C67.4158 42.4251 67.2571 41.9071 66.9398 41.5151C66.6225 41.1137 66.1371 40.9131 65.4838 40.9131ZM73.9778 43.4891L76.2038 39.2891C76.2318 39.2331 76.2831 39.1724 76.3578 39.1071C76.4418 39.0417 76.5631 39.0091 76.7218 39.0091H77.1838C77.2864 39.0091 77.3751 39.0464 77.4498 39.1211C77.5244 39.1957 77.5618 39.2844 77.5618 39.3871V45.9111C77.5618 46.0137 77.5244 46.1024 77.4498 46.1771C77.3751 46.2517 77.2864 46.2891 77.1838 46.2891H76.6658C76.5631 46.2891 76.4744 46.2517 76.3998 46.1771C76.3251 46.1024 76.2878 46.0137 76.2878 45.9111V41.6971L74.6358 44.7491C74.5891 44.8331 74.5284 44.9124 74.4538 44.9871C74.3884 45.0617 74.2858 45.0991 74.1458 45.0991H73.8098C73.6698 45.0991 73.5624 45.0617 73.4878 44.9871C73.4224 44.9124 73.3664 44.8331 73.3198 44.7491L71.6678 41.6971V45.9111C71.6678 46.0137 71.6304 46.1024 71.5558 46.1771C71.4811 46.2517 71.3924 46.2891 71.2898 46.2891H70.7718C70.6691 46.2891 70.5804 46.2517 70.5058 46.1771C70.4311 46.1024 70.3938 46.0137 70.3938 45.9111V39.3871C70.3938 39.2844 70.4311 39.1957 70.5058 39.1211C70.5804 39.0464 70.6691 39.0091 70.7718 39.0091H71.2338C71.3924 39.0091 71.5091 39.0417 71.5838 39.1071C71.6678 39.1724 71.7238 39.2331 71.7518 39.2891L73.9778 43.4891ZM79.3273 41.9491C79.3646 41.5197 79.4673 41.1184 79.6353 40.7451C79.8033 40.3717 80.0226 40.0451 80.2933 39.7651C80.5639 39.4851 80.8859 39.2657 81.2593 39.1071C81.6419 38.9484 82.0666 38.8691 82.5333 38.8691C83.0373 38.8691 83.4853 38.9531 83.8773 39.1211C84.2786 39.2797 84.6193 39.5131 84.8993 39.8211C85.1793 40.1291 85.3939 40.5024 85.5433 40.9411C85.6926 41.3797 85.7673 41.8697 85.7673 42.4111V42.7891C85.7673 42.8917 85.7299 42.9804 85.6553 43.0551C85.5806 43.1297 85.4919 43.1671 85.3893 43.1671H80.5733V43.2511C80.5919 43.8857 80.7833 44.3757 81.1473 44.7211C81.5206 45.0571 81.9826 45.2251 82.5333 45.2251C83.0466 45.2251 83.4293 45.1551 83.6813 45.0151C83.9426 44.8657 84.1526 44.7024 84.3113 44.5251C84.3859 44.4504 84.4513 44.3991 84.5073 44.3711C84.5633 44.3431 84.6473 44.3291 84.7593 44.3291H85.1793C85.2819 44.3291 85.3753 44.3664 85.4593 44.4411C85.5433 44.5157 85.5759 44.6044 85.5573 44.7071C85.5293 44.8751 85.4499 45.0617 85.3193 45.2671C85.1886 45.4631 84.9973 45.6497 84.7453 45.8271C84.5026 45.9951 84.1946 46.1397 83.8213 46.2611C83.4573 46.3731 83.0279 46.4291 82.5333 46.4291C82.0666 46.4291 81.6466 46.3497 81.2733 46.1911C80.8999 46.0231 80.5733 45.7991 80.2933 45.5191C80.0226 45.2297 79.8033 44.8937 79.6353 44.5111C79.4673 44.1191 79.3646 43.6944 79.3273 43.2371C79.2806 42.8077 79.2806 42.3784 79.3273 41.9491ZM80.5733 41.9911H84.5073V41.9491C84.5073 41.3797 84.3253 40.9271 83.9613 40.5911C83.6066 40.2457 83.1306 40.0731 82.5333 40.0731C82.2626 40.0731 82.0106 40.1197 81.7773 40.2131C81.5439 40.2971 81.3386 40.4231 81.1613 40.5911C80.9839 40.7497 80.8439 40.9457 80.7413 41.1791C80.6386 41.4124 80.5826 41.6691 80.5733 41.9491V41.9911ZM93.5743 39.0091C93.6769 39.0091 93.7656 39.0464 93.8403 39.1211C93.9149 39.1957 93.9523 39.2844 93.9523 39.3871V45.9111C93.9523 46.0137 93.9149 46.1024 93.8403 46.1771C93.7656 46.2517 93.6769 46.2891 93.5743 46.2891H93.0563C92.9536 46.2891 92.8649 46.2517 92.7903 46.1771C92.7156 46.1024 92.6783 46.0137 92.6783 45.9111V43.1811H88.7303V45.9111C88.7303 46.0137 88.6929 46.1024 88.6183 46.1771C88.5436 46.2517 88.4549 46.2891 88.3523 46.2891H87.8343C87.7316 46.2891 87.6429 46.2564 87.5683 46.1911C87.4936 46.1164 87.4563 46.0231 87.4563 45.9111V39.3871C87.4563 39.2844 87.4936 39.1957 87.5683 39.1211C87.6429 39.0464 87.7316 39.0091 87.8343 39.0091H88.3523C88.4549 39.0091 88.5436 39.0464 88.6183 39.1211C88.6929 39.1957 88.7303 39.2844 88.7303 39.3871V41.9771H92.6783V39.3871C92.6783 39.2844 92.7156 39.1957 92.7903 39.1211C92.8649 39.0464 92.9536 39.0091 93.0563 39.0091H93.5743ZM95.5379 44.4551C95.5379 44.0817 95.6125 43.7551 95.7619 43.4751C95.9112 43.1951 96.1165 42.9571 96.3779 42.7611C96.6392 42.5651 96.9425 42.4064 97.2879 42.2851C97.6425 42.1637 98.0159 42.0704 98.4079 42.0051L100.382 41.6831V41.5011C100.382 41.0251 100.223 40.6704 99.9059 40.4371C99.5979 40.1944 99.2105 40.0731 98.7439 40.0731C98.3332 40.0731 98.0205 40.1477 97.8059 40.2971C97.6005 40.4464 97.4232 40.6237 97.2739 40.8291C97.2179 40.9037 97.1572 40.9551 97.0919 40.9831C97.0265 41.0111 96.9379 41.0251 96.8259 41.0251H96.4059C96.3032 41.0251 96.2099 40.9877 96.1259 40.9131C96.0512 40.8384 96.0185 40.7497 96.0279 40.6471C96.0465 40.4417 96.1259 40.2317 96.2659 40.0171C96.4152 39.8024 96.6112 39.6111 96.8539 39.4431C97.1059 39.2751 97.3905 39.1397 97.7079 39.0371C98.0345 38.9251 98.3799 38.8691 98.7439 38.8691C99.1639 38.8691 99.5512 38.9297 99.9059 39.0511C100.27 39.1724 100.578 39.3497 100.83 39.5831C101.091 39.8164 101.292 40.1057 101.432 40.4511C101.581 40.7964 101.656 41.1931 101.656 41.6411V45.9111C101.656 46.0137 101.619 46.1024 101.544 46.1771C101.469 46.2517 101.381 46.2891 101.278 46.2891H100.76C100.657 46.2891 100.569 46.2517 100.494 46.1771C100.419 46.1024 100.382 46.0137 100.382 45.9111V45.3371C100.298 45.5144 100.167 45.6731 99.9899 45.8131C99.8125 45.9437 99.6072 46.0557 99.3739 46.1491C99.1499 46.2424 98.9119 46.3124 98.6599 46.3591C98.4172 46.4057 98.1885 46.4291 97.9739 46.4291C97.6099 46.4291 97.2739 46.3777 96.9659 46.2751C96.6672 46.1724 96.4105 46.0371 96.1959 45.8691C95.9905 45.6917 95.8272 45.4817 95.7059 45.2391C95.5939 44.9964 95.5379 44.7351 95.5379 44.4551ZM98.1139 45.2251C98.4499 45.2251 98.7579 45.1737 99.0379 45.0711C99.3179 44.9684 99.5559 44.8284 99.7519 44.6511C99.9572 44.4644 100.111 44.2451 100.214 43.9931C100.326 43.7411 100.382 43.4611 100.382 43.1531V42.8031L98.7299 43.0691C98.1419 43.1624 97.6752 43.3117 97.3299 43.5171C96.9845 43.7224 96.8119 43.9884 96.8119 44.3151C96.8119 44.4177 96.8352 44.5204 96.8819 44.6231C96.9285 44.7257 97.0032 44.8237 97.1059 44.9171C97.2085 45.0104 97.3392 45.0851 97.4979 45.1411C97.6659 45.1971 97.8712 45.2251 98.1139 45.2251ZM109.846 45.2251C110.07 45.2251 110.29 45.1877 110.504 45.1131C110.728 45.0384 110.929 44.9217 111.106 44.7631C111.293 44.6044 111.447 44.3991 111.568 44.1471C111.699 43.8951 111.788 43.5917 111.834 43.2371H109.23C109.128 43.2371 109.039 43.1997 108.964 43.1251C108.89 43.0504 108.852 42.9617 108.852 42.8591V42.4111C108.852 42.3084 108.89 42.2197 108.964 42.1451C109.039 42.0704 109.128 42.0331 109.23 42.0331H111.834C111.788 41.6877 111.699 41.3937 111.568 41.1511C111.447 40.8991 111.293 40.6937 111.106 40.5351C110.929 40.3764 110.728 40.2597 110.504 40.1851C110.29 40.1104 110.07 40.0731 109.846 40.0731C109.398 40.0731 109.016 40.1571 108.698 40.3251C108.381 40.4931 108.134 40.7731 107.956 41.1651C107.891 41.3144 107.821 41.4171 107.746 41.4731C107.681 41.5197 107.597 41.5431 107.494 41.5431H107.074C106.972 41.5431 106.878 41.5057 106.794 41.4311C106.72 41.3564 106.687 41.2677 106.696 41.1651C106.706 40.9411 106.776 40.6984 106.906 40.4371C107.046 40.1664 107.247 39.9191 107.508 39.6951C107.779 39.4617 108.106 39.2657 108.488 39.1071C108.88 38.9484 109.333 38.8691 109.846 38.8691C110.36 38.8691 110.812 38.9531 111.204 39.1211C111.596 39.2891 111.928 39.5177 112.198 39.8071C112.469 40.0964 112.679 40.4371 112.828 40.8291C112.987 41.2211 113.085 41.6411 113.122 42.0891C113.141 42.2477 113.146 42.4391 113.136 42.6631C113.136 42.8777 113.132 43.0597 113.122 43.2091C113.104 43.6571 113.015 44.0771 112.856 44.4691C112.707 44.8611 112.492 45.2017 112.212 45.4911C111.942 45.7804 111.606 46.0091 111.204 46.1771C110.812 46.3451 110.36 46.4291 109.846 46.4291C109.333 46.4291 108.88 46.3497 108.488 46.1911C108.106 46.0324 107.779 45.8411 107.508 45.6171C107.247 45.3837 107.046 45.1364 106.906 44.8751C106.776 44.6044 106.706 44.3571 106.696 44.1331C106.687 44.0304 106.72 43.9417 106.794 43.8671C106.878 43.7924 106.972 43.7551 107.074 43.7551H107.494C107.597 43.7551 107.681 43.7831 107.746 43.8391C107.821 43.8857 107.891 43.9837 107.956 44.1331C108.134 44.5251 108.381 44.8051 108.698 44.9731C109.016 45.1411 109.398 45.2251 109.846 45.2251ZM115.557 39.3871C115.557 39.2844 115.595 39.1957 115.669 39.1211C115.744 39.0464 115.833 39.0091 115.935 39.0091H120.653C120.756 39.0091 120.845 39.0464 120.919 39.1211C120.994 39.1957 121.031 39.2844 121.031 39.3871V45.9111C121.031 46.0137 120.994 46.1024 120.919 46.1771C120.845 46.2517 120.756 46.2891 120.653 46.2891H120.135C120.033 46.2891 119.944 46.2517 119.869 46.1771C119.795 46.1024 119.757 46.0137 119.757 45.9111V40.2131H116.831V43.8671C116.831 44.2497 116.789 44.5997 116.705 44.9171C116.631 45.2251 116.5 45.4911 116.313 45.7151C116.136 45.9391 115.898 46.1164 115.599 46.2471C115.301 46.3684 114.932 46.4291 114.493 46.4291H114.325C114.223 46.4291 114.134 46.3917 114.059 46.3171C113.985 46.2424 113.947 46.1537 113.947 46.0511V45.6031C113.947 45.5004 113.985 45.4117 114.059 45.3371C114.134 45.2624 114.223 45.2251 114.325 45.2251H114.493C114.923 45.2251 115.207 45.1037 115.347 44.8611C115.487 44.6091 115.557 44.2731 115.557 43.8531V39.3871ZM122.79 41.9491C122.828 41.5197 122.93 41.1184 123.098 40.7451C123.266 40.3717 123.486 40.0451 123.756 39.7651C124.027 39.4851 124.349 39.2657 124.722 39.1071C125.105 38.9484 125.53 38.8691 125.996 38.8691C126.5 38.8691 126.948 38.9531 127.34 39.1211C127.742 39.2797 128.082 39.5131 128.362 39.8211C128.642 40.1291 128.857 40.5024 129.006 40.9411C129.156 41.3797 129.23 41.8697 129.23 42.4111V42.7891C129.23 42.8917 129.193 42.9804 129.118 43.0551C129.044 43.1297 128.955 43.1671 128.852 43.1671H124.036V43.2511C124.055 43.8857 124.246 44.3757 124.61 44.7211C124.984 45.0571 125.446 45.2251 125.996 45.2251C126.51 45.2251 126.892 45.1551 127.144 45.0151C127.406 44.8657 127.616 44.7024 127.774 44.5251C127.849 44.4504 127.914 44.3991 127.97 44.3711C128.026 44.3431 128.11 44.3291 128.222 44.3291H128.642C128.745 44.3291 128.838 44.3664 128.922 44.4411C129.006 44.5157 129.039 44.6044 129.02 44.7071C128.992 44.8751 128.913 45.0617 128.782 45.2671C128.652 45.4631 128.46 45.6497 128.208 45.8271C127.966 45.9951 127.658 46.1397 127.284 46.2611C126.92 46.3731 126.491 46.4291 125.996 46.4291C125.53 46.4291 125.11 46.3497 124.736 46.1911C124.363 46.0231 124.036 45.7991 123.756 45.5191C123.486 45.2297 123.266 44.8937 123.098 44.5111C122.93 44.1191 122.828 43.6944 122.79 43.2371C122.744 42.8077 122.744 42.3784 122.79 41.9491ZM124.036 41.9911H127.97V41.9491C127.97 41.3797 127.788 40.9271 127.424 40.5911C127.07 40.2457 126.594 40.0731 125.996 40.0731C125.726 40.0731 125.474 40.1197 125.24 40.2131C125.007 40.2971 124.802 40.4231 124.624 40.5911C124.447 40.7497 124.307 40.9457 124.204 41.1791C124.102 41.4124 124.046 41.6691 124.036 41.9491V41.9911ZM132.193 41.8091L135.105 39.2471C135.161 39.2004 135.231 39.1491 135.315 39.0931C135.408 39.0371 135.52 39.0091 135.651 39.0091H136.323C136.416 39.0091 136.496 39.0417 136.561 39.1071C136.626 39.1724 136.659 39.2517 136.659 39.3451C136.659 39.3917 136.65 39.4384 136.631 39.4851C136.622 39.5224 136.58 39.5691 136.505 39.6251L133.117 42.5931L136.841 45.6871C136.934 45.7617 136.981 45.8504 136.981 45.9531C136.981 46.0464 136.948 46.1257 136.883 46.1911C136.818 46.2564 136.738 46.2891 136.645 46.2891H135.917C135.777 46.2891 135.656 46.2611 135.553 46.2051C135.46 46.1491 135.39 46.0977 135.343 46.0511L132.193 43.4331V45.9111C132.193 46.0137 132.156 46.1024 132.081 46.1771C132.006 46.2517 131.918 46.2891 131.815 46.2891H131.297C131.194 46.2891 131.106 46.2517 131.031 46.1771C130.956 46.1024 130.919 46.0137 130.919 45.9111V39.3871C130.919 39.2844 130.956 39.1957 131.031 39.1211C131.106 39.0464 131.194 39.0091 131.297 39.0091H131.815C131.918 39.0091 132.006 39.0464 132.081 39.1211C132.156 39.1957 132.193 39.2844 132.193 39.3871V41.8091ZM143.89 39.0091C143.992 39.0091 144.081 39.0464 144.156 39.1211C144.23 39.1957 144.268 39.2844 144.268 39.3871V39.8351C144.268 39.9377 144.23 40.0264 144.156 40.1011C144.081 40.1757 143.992 40.2131 143.89 40.2131H141.468V45.9111C141.468 46.0137 141.43 46.1024 141.356 46.1771C141.281 46.2517 141.192 46.2891 141.09 46.2891H140.572C140.469 46.2891 140.38 46.2517 140.306 46.1771C140.231 46.1024 140.194 46.0137 140.194 45.9111V40.2131H137.772C137.669 40.2131 137.58 40.1757 137.506 40.1011C137.431 40.0264 137.394 39.9377 137.394 39.8351V39.3871C137.394 39.2844 137.431 39.1957 137.506 39.1211C137.58 39.0464 137.669 39.0091 137.772 39.0091H143.89ZM148.978 46.4291C148.4 46.4291 147.938 46.3311 147.592 46.1351C147.247 45.9297 146.986 45.7104 146.808 45.4771V48.5711C146.808 48.6737 146.771 48.7624 146.696 48.8371C146.622 48.9117 146.533 48.9491 146.43 48.9491H145.912C145.81 48.9491 145.721 48.9117 145.646 48.8371C145.572 48.7624 145.534 48.6737 145.534 48.5711V39.3871C145.534 39.2844 145.572 39.1957 145.646 39.1211C145.721 39.0464 145.81 39.0091 145.912 39.0091H146.43C146.533 39.0091 146.622 39.0464 146.696 39.1211C146.771 39.1957 146.808 39.2844 146.808 39.3871V39.8211C146.995 39.5691 147.261 39.3497 147.606 39.1631C147.952 38.9671 148.409 38.8691 148.978 38.8691C149.417 38.8691 149.823 38.9484 150.196 39.1071C150.579 39.2564 150.91 39.4757 151.19 39.7651C151.47 40.0544 151.694 40.4044 151.862 40.8151C152.03 41.2257 152.128 41.6877 152.156 42.2011C152.166 42.3411 152.17 42.4951 152.17 42.6631C152.17 42.8217 152.166 42.9711 152.156 43.1111C152.128 43.6244 152.03 44.0864 151.862 44.4971C151.694 44.9077 151.47 45.2577 151.19 45.5471C150.91 45.8271 150.579 46.0464 150.196 46.2051C149.823 46.3544 149.417 46.4291 148.978 46.4291ZM146.808 42.0471C146.799 42.1871 146.794 42.3737 146.794 42.6071C146.794 42.8311 146.799 43.0131 146.808 43.1531C146.836 43.8157 147.032 44.3291 147.396 44.6931C147.77 45.0477 148.25 45.2251 148.838 45.2251C149.454 45.2251 149.94 45.0291 150.294 44.6371C150.649 44.2451 150.845 43.7131 150.882 43.0411C150.892 42.7797 150.892 42.5184 150.882 42.2571C150.845 41.5851 150.649 41.0531 150.294 40.6611C149.94 40.2691 149.454 40.0731 148.838 40.0731C148.26 40.0731 147.784 40.2504 147.41 40.6051C147.037 40.9597 146.836 41.4404 146.808 42.0471ZM156.884 38.8691C157.388 38.8691 157.836 38.9484 158.228 39.1071C158.62 39.2564 158.956 39.4664 159.236 39.7371C159.516 40.0077 159.735 40.3391 159.894 40.7311C160.062 41.1137 160.164 41.5337 160.202 41.9911C160.211 42.0751 160.216 42.1777 160.216 42.2991C160.216 42.4111 160.216 42.5324 160.216 42.6631C160.216 42.7844 160.216 42.9057 160.216 43.0271C160.216 43.1391 160.211 43.2324 160.202 43.3071C160.155 43.7737 160.052 44.1984 159.894 44.5811C159.735 44.9637 159.516 45.2904 159.236 45.5611C158.956 45.8317 158.62 46.0464 158.228 46.2051C157.836 46.3544 157.388 46.4291 156.884 46.4291C156.38 46.4291 155.932 46.3544 155.54 46.2051C155.148 46.0464 154.812 45.8317 154.532 45.5611C154.252 45.2904 154.028 44.9637 153.86 44.5811C153.701 44.1984 153.603 43.7737 153.566 43.3071C153.556 43.2324 153.547 43.1391 153.538 43.0271C153.538 42.9057 153.538 42.7844 153.538 42.6631C153.538 42.5324 153.538 42.4111 153.538 42.2991C153.547 42.1777 153.556 42.0751 153.566 41.9911C153.603 41.5337 153.701 41.1137 153.86 40.7311C154.028 40.3391 154.252 40.0077 154.532 39.7371C154.812 39.4664 155.148 39.2564 155.54 39.1071C155.932 38.9484 156.38 38.8691 156.884 38.8691ZM158.928 43.2371C158.946 43.0784 158.956 42.8871 158.956 42.6631C158.956 42.4297 158.946 42.2291 158.928 42.0611C158.9 41.7811 158.839 41.5197 158.746 41.2771C158.652 41.0344 158.522 40.8244 158.354 40.6471C158.186 40.4697 157.98 40.3297 157.738 40.2271C157.495 40.1244 157.21 40.0731 156.884 40.0731C156.557 40.0731 156.272 40.1244 156.03 40.2271C155.787 40.3297 155.582 40.4697 155.414 40.6471C155.246 40.8244 155.115 41.0344 155.022 41.2771C154.928 41.5197 154.868 41.7811 154.84 42.0611C154.821 42.2291 154.812 42.4297 154.812 42.6631C154.812 42.8871 154.821 43.0784 154.84 43.2371C154.868 43.5171 154.928 43.7784 155.022 44.0211C155.115 44.2637 155.246 44.4737 155.414 44.6511C155.582 44.8284 155.787 44.9684 156.03 45.0711C156.272 45.1737 156.557 45.2251 156.884 45.2251C157.21 45.2251 157.495 45.1737 157.738 45.0711C157.98 44.9684 158.186 44.8284 158.354 44.6511C158.522 44.4737 158.652 44.2637 158.746 44.0211C158.839 43.7784 158.9 43.5171 158.928 43.2371ZM168.1 39.0091C168.202 39.0091 168.291 39.0464 168.366 39.1211C168.44 39.1957 168.478 39.2844 168.478 39.3871V45.9111C168.478 46.0137 168.44 46.1024 168.366 46.1771C168.291 46.2517 168.202 46.2891 168.1 46.2891H167.582C167.479 46.2891 167.39 46.2517 167.316 46.1771C167.241 46.1024 167.204 46.0137 167.204 45.9111V43.1811H163.256V45.9111C163.256 46.0137 163.218 46.1024 163.144 46.1771C163.069 46.2517 162.98 46.2891 162.878 46.2891H162.36C162.257 46.2891 162.168 46.2564 162.094 46.1911C162.019 46.1164 161.982 46.0231 161.982 45.9111V39.3871C161.982 39.2844 162.019 39.1957 162.094 39.1211C162.168 39.0464 162.257 39.0091 162.36 39.0091H162.878C162.98 39.0091 163.069 39.0464 163.144 39.1211C163.218 39.1957 163.256 39.2844 163.256 39.3871V41.9771H167.204V39.3871C167.204 39.2844 167.241 39.1957 167.316 39.1211C167.39 39.0464 167.479 39.0091 167.582 39.0091H168.1ZM176.699 39.0091C176.802 39.0091 176.891 39.0464 176.965 39.1211C177.04 39.1957 177.077 39.2844 177.077 39.3871V45.9111C177.077 46.0137 177.04 46.1024 176.965 46.1771C176.891 46.2517 176.802 46.2891 176.699 46.2891H176.181C176.079 46.2891 175.99 46.2517 175.915 46.1771C175.841 46.1024 175.803 46.0137 175.803 45.9111V43.1811H171.855V45.9111C171.855 46.0137 171.818 46.1024 171.743 46.1771C171.669 46.2517 171.58 46.2891 171.477 46.2891H170.959C170.857 46.2891 170.768 46.2564 170.693 46.1911C170.619 46.1164 170.581 46.0231 170.581 45.9111V39.3871C170.581 39.2844 170.619 39.1957 170.693 39.1211C170.768 39.0464 170.857 39.0091 170.959 39.0091H171.477C171.58 39.0091 171.669 39.0464 171.743 39.1211C171.818 39.1957 171.855 39.2844 171.855 39.3871V41.9771H175.803V39.3871C175.803 39.2844 175.841 39.1957 175.915 39.1211C175.99 39.0464 176.079 39.0091 176.181 39.0091H176.699ZM179.559 46.2891C179.456 46.2891 179.368 46.2517 179.293 46.1771C179.218 46.1024 179.181 46.0137 179.181 45.9111V39.3871C179.181 39.2844 179.218 39.1957 179.293 39.1211C179.368 39.0464 179.456 39.0091 179.559 39.0091H180.077C180.18 39.0091 180.268 39.0464 180.343 39.1211C180.418 39.1957 180.455 39.2844 180.455 39.3871V40.8011H181.967C182.415 40.8011 182.821 40.8664 183.185 40.9971C183.558 41.1277 183.876 41.3144 184.137 41.5571C184.408 41.7904 184.618 42.0797 184.767 42.4251C184.916 42.7611 184.991 43.1344 184.991 43.5451C184.991 43.9557 184.916 44.3337 184.767 44.6791C184.618 45.0151 184.408 45.3044 184.137 45.5471C183.876 45.7804 183.558 45.9624 183.185 46.0931C182.821 46.2237 182.415 46.2891 181.967 46.2891H179.559ZM186.965 45.9111C186.965 46.0137 186.928 46.1024 186.853 46.1771C186.778 46.2517 186.69 46.2891 186.587 46.2891H186.069C185.966 46.2891 185.878 46.2517 185.803 46.1771C185.728 46.1024 185.691 46.0137 185.691 45.9111V39.3871C185.691 39.2844 185.728 39.1957 185.803 39.1211C185.878 39.0464 185.966 39.0091 186.069 39.0091H186.587C186.69 39.0091 186.778 39.0464 186.853 39.1211C186.928 39.1957 186.965 39.2844 186.965 39.3871V45.9111ZM183.731 43.5451C183.731 43.2651 183.68 43.0271 183.577 42.8311C183.484 42.6351 183.348 42.4764 183.171 42.3551C183.003 42.2337 182.798 42.1451 182.555 42.0891C182.312 42.0331 182.051 42.0051 181.771 42.0051H180.455V45.0851H181.771C182.051 45.0851 182.312 45.0571 182.555 45.0011C182.798 44.9451 183.003 44.8564 183.171 44.7351C183.348 44.6137 183.484 44.4551 183.577 44.2591C183.68 44.0631 183.731 43.8251 183.731 43.5451ZM191.824 43.5451L189.85 46.0231C189.812 46.0697 189.756 46.1257 189.682 46.1911C189.616 46.2564 189.523 46.2891 189.402 46.2891H188.758C188.664 46.2891 188.585 46.2564 188.52 46.1911C188.454 46.1257 188.422 46.0511 188.422 45.9671C188.422 45.8924 188.44 45.8271 188.478 45.7711L191.04 42.5651L188.618 39.5271C188.58 39.4711 188.562 39.4057 188.562 39.3311C188.562 39.2471 188.594 39.1724 188.66 39.1071C188.725 39.0417 188.804 39.0091 188.898 39.0091H189.57C189.691 39.0091 189.784 39.0417 189.85 39.1071C189.924 39.1724 189.98 39.2284 190.018 39.2751L191.88 41.6131L193.728 39.2751C193.765 39.2284 193.816 39.1724 193.882 39.1071C193.956 39.0417 194.054 39.0091 194.176 39.0091H194.82C194.913 39.0091 194.992 39.0417 195.058 39.1071C195.123 39.1724 195.156 39.2471 195.156 39.3311C195.156 39.4057 195.137 39.4711 195.1 39.5271L192.664 42.5931L195.198 45.7711C195.235 45.8271 195.254 45.8924 195.254 45.9671C195.254 46.0511 195.221 46.1257 195.156 46.1911C195.09 46.2564 195.011 46.2891 194.918 46.2891H194.246C194.124 46.2891 194.026 46.2564 193.952 46.1911C193.886 46.1257 193.835 46.0697 193.798 46.0231L191.824 43.5451ZM201.428 43.2231V45.0711H203.794C204.26 45.0711 204.634 45.0057 204.914 44.8751C205.194 44.7351 205.334 44.4877 205.334 44.1331C205.334 43.7784 205.198 43.5404 204.928 43.4191C204.666 43.2884 204.302 43.2231 203.836 43.2231H201.428ZM201.428 40.2271V42.0051H203.724C204.19 42.0051 204.55 41.9444 204.802 41.8231C205.054 41.6924 205.18 41.4497 205.18 41.0951C205.18 40.7404 205.04 40.5071 204.76 40.3951C204.489 40.2831 204.12 40.2271 203.654 40.2271H201.428ZM200.434 46.2891C200.359 46.2891 200.294 46.2611 200.238 46.2051C200.182 46.1491 200.154 46.0837 200.154 46.0091V39.2891C200.154 39.2144 200.182 39.1491 200.238 39.0931C200.294 39.0371 200.359 39.0091 200.434 39.0091H203.906C204.708 39.0091 205.334 39.1864 205.782 39.5411C206.23 39.8957 206.454 40.3671 206.454 40.9551C206.454 41.1697 206.426 41.3564 206.37 41.5151C206.323 41.6737 206.258 41.8137 206.174 41.9351C206.099 42.0564 206.01 42.1637 205.908 42.2571C205.814 42.3504 205.716 42.4344 205.614 42.5091C205.996 42.7237 206.258 42.9711 206.398 43.2511C206.538 43.5311 206.608 43.8531 206.608 44.2171C206.608 44.8891 206.374 45.4024 205.908 45.7571C205.45 46.1117 204.834 46.2891 204.06 46.2891H200.434ZM207.866 44.4551C207.866 44.0817 207.941 43.7551 208.09 43.4751C208.239 43.1951 208.445 42.9571 208.706 42.7611C208.967 42.5651 209.271 42.4064 209.616 42.2851C209.971 42.1637 210.344 42.0704 210.736 42.0051L212.71 41.6831V41.5011C212.71 41.0251 212.551 40.6704 212.234 40.4371C211.926 40.1944 211.539 40.0731 211.072 40.0731C210.661 40.0731 210.349 40.1477 210.134 40.2971C209.929 40.4464 209.751 40.6237 209.602 40.8291C209.546 40.9037 209.485 40.9551 209.42 40.9831C209.355 41.0111 209.266 41.0251 209.154 41.0251H208.734C208.631 41.0251 208.538 40.9877 208.454 40.9131C208.379 40.8384 208.347 40.7497 208.356 40.6471C208.375 40.4417 208.454 40.2317 208.594 40.0171C208.743 39.8024 208.939 39.6111 209.182 39.4431C209.434 39.2751 209.719 39.1397 210.036 39.0371C210.363 38.9251 210.708 38.8691 211.072 38.8691C211.492 38.8691 211.879 38.9297 212.234 39.0511C212.598 39.1724 212.906 39.3497 213.158 39.5831C213.419 39.8164 213.62 40.1057 213.76 40.4511C213.909 40.7964 213.984 41.1931 213.984 41.6411V45.9111C213.984 46.0137 213.947 46.1024 213.872 46.1771C213.797 46.2517 213.709 46.2891 213.606 46.2891H213.088C212.985 46.2891 212.897 46.2517 212.822 46.1771C212.747 46.1024 212.71 46.0137 212.71 45.9111V45.3371C212.626 45.5144 212.495 45.6731 212.318 45.8131C212.141 45.9437 211.935 46.0557 211.702 46.1491C211.478 46.2424 211.24 46.3124 210.988 46.3591C210.745 46.4057 210.517 46.4291 210.302 46.4291C209.938 46.4291 209.602 46.3777 209.294 46.2751C208.995 46.1724 208.739 46.0371 208.524 45.8691C208.319 45.6917 208.155 45.4817 208.034 45.2391C207.922 44.9964 207.866 44.7351 207.866 44.4551ZM210.442 45.2251C210.778 45.2251 211.086 45.1737 211.366 45.0711C211.646 44.9684 211.884 44.8284 212.08 44.6511C212.285 44.4644 212.439 44.2451 212.542 43.9931C212.654 43.7411 212.71 43.4611 212.71 43.1531V42.8031L211.058 43.0691C210.47 43.1624 210.003 43.3117 209.658 43.5171C209.313 43.7224 209.14 43.9884 209.14 44.3151C209.14 44.4177 209.163 44.5204 209.21 44.6231C209.257 44.7257 209.331 44.8237 209.434 44.9171C209.537 45.0104 209.667 45.0851 209.826 45.1411C209.994 45.1971 210.199 45.2251 210.442 45.2251ZM216.839 39.3871C216.839 39.2844 216.876 39.1957 216.951 39.1211C217.025 39.0464 217.114 39.0091 217.217 39.0091H221.935C222.037 39.0091 222.126 39.0464 222.201 39.1211C222.275 39.1957 222.313 39.2844 222.313 39.3871V45.9111C222.313 46.0137 222.275 46.1024 222.201 46.1771C222.126 46.2517 222.037 46.2891 221.935 46.2891H221.417C221.314 46.2891 221.225 46.2517 221.151 46.1771C221.076 46.1024 221.039 46.0137 221.039 45.9111V40.2131H218.113V43.8671C218.113 44.2497 218.071 44.5997 217.987 44.9171C217.912 45.2251 217.781 45.4911 217.595 45.7151C217.417 45.9391 217.179 46.1164 216.881 46.2471C216.582 46.3684 216.213 46.4291 215.775 46.4291H215.607C215.504 46.4291 215.415 46.3917 215.341 46.3171C215.266 46.2424 215.229 46.1537 215.229 46.0511V45.6031C215.229 45.5004 215.266 45.4117 215.341 45.3371C215.415 45.2624 215.504 45.2251 215.607 45.2251H215.775C216.204 45.2251 216.489 45.1037 216.629 44.8611C216.769 44.6091 216.839 44.2731 216.839 43.8531V39.3871ZM225.667 45.9111C225.667 46.0137 225.63 46.1024 225.555 46.1771C225.481 46.2517 225.392 46.2891 225.289 46.2891H224.785C224.683 46.2891 224.594 46.2517 224.519 46.1771C224.445 46.1024 224.407 46.0137 224.407 45.9111V39.3871C224.407 39.2844 224.445 39.1957 224.519 39.1211C224.594 39.0464 224.683 39.0091 224.785 39.0091H225.289C225.392 39.0091 225.481 39.0464 225.555 39.1211C225.63 39.1957 225.667 39.2844 225.667 39.3871V42.0471H227.921C227.949 41.5711 228.043 41.1371 228.201 40.7451C228.369 40.3531 228.593 40.0217 228.873 39.7511C229.153 39.4711 229.489 39.2564 229.881 39.1071C230.283 38.9484 230.735 38.8691 231.239 38.8691C231.743 38.8691 232.191 38.9484 232.583 39.1071C232.975 39.2564 233.311 39.4664 233.591 39.7371C233.871 40.0077 234.091 40.3391 234.249 40.7311C234.417 41.1137 234.52 41.5337 234.557 41.9911C234.567 42.0751 234.571 42.1777 234.571 42.2991C234.571 42.4111 234.571 42.5324 234.571 42.6631C234.571 42.7844 234.571 42.9057 234.571 43.0271C234.571 43.1391 234.567 43.2324 234.557 43.3071C234.511 43.7737 234.408 44.1984 234.249 44.5811C234.091 44.9637 233.871 45.2904 233.591 45.5611C233.311 45.8317 232.975 46.0464 232.583 46.2051C232.191 46.3544 231.743 46.4291 231.239 46.4291C230.735 46.4291 230.283 46.3544 229.881 46.2051C229.489 46.0464 229.153 45.8317 228.873 45.5611C228.593 45.2811 228.369 44.9451 228.201 44.5531C228.043 44.1611 227.949 43.7271 227.921 43.2511H225.667V45.9111ZM233.283 43.2371C233.302 43.0784 233.311 42.8871 233.311 42.6631C233.311 42.4297 233.302 42.2291 233.283 42.0611C233.255 41.7811 233.195 41.5197 233.101 41.2771C233.008 41.0344 232.877 40.8244 232.709 40.6471C232.541 40.4697 232.336 40.3297 232.093 40.2271C231.851 40.1244 231.566 40.0731 231.239 40.0731C230.913 40.0731 230.628 40.1244 230.385 40.2271C230.143 40.3297 229.937 40.4697 229.769 40.6471C229.601 40.8244 229.471 41.0344 229.377 41.2771C229.284 41.5197 229.223 41.7811 229.195 42.0611C229.177 42.2291 229.167 42.4297 229.167 42.6631C229.167 42.8871 229.177 43.0784 229.195 43.2371C229.223 43.5171 229.284 43.7784 229.377 44.0211C229.471 44.2637 229.601 44.4737 229.769 44.6511C229.937 44.8284 230.143 44.9684 230.385 45.0711C230.628 45.1737 230.913 45.2251 231.239 45.2251C231.566 45.2251 231.851 45.1737 232.093 45.0711C232.336 44.9684 232.541 44.8284 232.709 44.6511C232.877 44.4737 233.008 44.2637 233.101 44.0211C233.195 43.7784 233.255 43.5171 233.283 43.2371ZM241.808 39.0091C241.91 39.0091 241.999 39.0464 242.074 39.1211C242.148 39.1957 242.186 39.2844 242.186 39.3871V39.8351C242.186 39.9377 242.148 40.0264 242.074 40.1011C241.999 40.1757 241.91 40.2131 241.808 40.2131H239.386V45.9111C239.386 46.0137 239.348 46.1024 239.274 46.1771C239.199 46.2517 239.11 46.2891 239.008 46.2891H238.49C238.387 46.2891 238.298 46.2517 238.224 46.1771C238.149 46.1024 238.112 46.0137 238.112 45.9111V40.2131H235.69C235.587 40.2131 235.498 40.1757 235.424 40.1011C235.349 40.0264 235.312 39.9377 235.312 39.8351V39.3871C235.312 39.2844 235.349 39.1957 235.424 39.1211C235.498 39.0464 235.587 39.0091 235.69 39.0091H241.808Z" fill="#838BA8"/>
<path d="M46.44 19L46.4 5H43.74L38.58 13.7L33.34 5H30.66V19H33.7V10.78L37.8 17.52H39.26L43.38 10.6L43.4 19H46.44ZM56.5416 19.24C60.9416 19.24 64.2016 16.18 64.2016 12C64.2016 7.82 60.9416 4.76 56.5416 4.76C52.1216 4.76 48.8816 7.84 48.8816 12C48.8816 16.16 52.1216 19.24 56.5416 19.24ZM56.5416 16.48C54.0416 16.48 52.1616 14.66 52.1616 12C52.1616 9.34 54.0416 7.52 56.5416 7.52C59.0416 7.52 60.9216 9.34 60.9216 12C60.9216 14.66 59.0416 16.48 56.5416 16.48ZM76.2766 5V13.5L69.3166 5H66.6366V19H69.8366V10.5L76.8166 19H79.4766V5H76.2766ZM86.0089 16.4V13.16H92.5089V10.64H86.0089V7.6H93.3689V5H82.7889V19H93.6289V16.4H86.0089ZM108.23 5H105.05L101.31 11.22L97.5702 5H94.1302L99.5502 14V19H102.79V14.04L108.23 5ZM112.669 16.4V13.16H119.169V10.64H112.669V7.6H120.029V5H109.449V19H120.289V16.4H112.669ZM135.29 19L130.07 11.76L134.95 5H131.45L128.29 9.54L125.07 5H121.39L126.31 11.88L121.13 19H124.85L128.17 14.14L131.55 19H135.29ZM143.708 19.12C145.768 19.12 147.608 18.42 148.848 17.06L147.908 16.12C146.768 17.3 145.368 17.8 143.768 17.8C140.388 17.8 137.848 15.32 137.848 12C137.848 8.68 140.388 6.2 143.768 6.2C145.368 6.2 146.768 6.7 147.908 7.86L148.848 6.92C147.608 5.56 145.768 4.88 143.728 4.88C139.508 4.88 136.388 7.9 136.388 12C136.388 16.1 139.508 19.12 143.708 19.12ZM162.243 5V11.24H153.483V5H152.003V19H153.483V12.54H162.243V19H163.703V5H162.243ZM178.732 19H180.292L173.892 5H172.432L166.032 19H167.572L169.252 15.26H177.052L178.732 19ZM169.792 14.06L173.152 6.54L176.512 14.06H169.792ZM192.848 5V16.36L183.828 5H182.608V19H184.088V7.64L193.088 19H194.308V5H192.848ZM208.738 16.72C207.658 17.5 206.418 17.8 205.078 17.8C201.638 17.8 199.098 15.32 199.098 12C199.098 8.66 201.638 6.2 205.098 6.2C206.738 6.2 208.138 6.68 209.318 7.84L210.238 6.9C208.998 5.56 207.158 4.88 205.038 4.88C200.758 4.88 197.638 7.9 197.638 12C197.638 16.1 200.758 19.12 205.018 19.12C206.958 19.12 208.838 18.52 210.158 17.34V12H208.738V16.72ZM215.826 17.72V12.52H223.066V11.26H215.826V6.28H223.946V5H214.346V19H224.246V17.72H215.826Z" fill="#160647"/>
<path d="M15 4L9.5 14L0 19H15V4Z" fill="url(#paint0_linear)"/>
<defs>
<linearGradient id="paint0_linear" x1="11.1548" y1="8.92507" x2="5.25648" y2="16.1023" gradientUnits="userSpaceOnUse">
<stop stop-color="#562EC2"/>
<stop offset="1" stop-color="#A07EFE"/>
</linearGradient>
</defs>
</svg>
