<svg width="194" height="28" viewBox="0 0 194 28" fill="none" xmlns="http://www.w3.org/2000/svg">
<path d="M6.82 6.48V13.14H18.484V17.82H6.82V27H0.988V1.8H20.032V6.48H6.82ZM28.5966 10.188C29.2686 9.252 30.1686 8.544 31.2966 8.064C32.4486 7.584 33.7686 7.344 35.2566 7.344V12.528C34.6326 12.48 34.2126 12.456 33.9966 12.456C32.3886 12.456 31.1286 12.912 30.2166 13.824C29.3046 14.712 28.8486 16.056 28.8486 17.856V27H23.2326V7.632H28.5966V10.188ZM57.3921 17.388C57.3921 17.46 57.3561 17.964 57.2841 18.9H42.6321C42.8961 20.1 43.5201 21.048 44.5041 21.744C45.4881 22.44 46.7121 22.788 48.1761 22.788C49.1841 22.788 50.0721 22.644 50.8401 22.356C51.6321 22.044 52.3641 21.564 53.0361 20.916L56.0241 24.156C54.2001 26.244 51.5361 27.288 48.0321 27.288C45.8481 27.288 43.9161 26.868 42.2361 26.028C40.5561 25.164 39.2601 23.976 38.3481 22.464C37.4361 20.952 36.9801 19.236 36.9801 17.316C36.9801 15.42 37.4241 13.716 38.3121 12.204C39.2241 10.668 40.4601 9.48 42.0201 8.64C43.6041 7.776 45.3681 7.344 47.3121 7.344C49.2081 7.344 50.9241 7.752 52.4601 8.568C53.9961 9.384 55.1961 10.56 56.0601 12.096C56.9481 13.608 57.3921 15.372 57.3921 17.388ZM47.3481 11.592C46.0761 11.592 45.0081 11.952 44.1441 12.672C43.2801 13.392 42.7521 14.376 42.5601 15.624H52.1001C51.9081 14.4 51.3801 13.428 50.5161 12.708C49.6521 11.964 48.5961 11.592 47.3481 11.592ZM80.1031 17.388C80.1031 17.46 80.0671 17.964 79.9951 18.9H65.3431C65.6071 20.1 66.2311 21.048 67.2151 21.744C68.1991 22.44 69.4231 22.788 70.8871 22.788C71.8951 22.788 72.7831 22.644 73.5511 22.356C74.3431 22.044 75.0751 21.564 75.7471 20.916L78.7351 24.156C76.9111 26.244 74.2471 27.288 70.7431 27.288C68.5591 27.288 66.6271 26.868 64.9471 26.028C63.2671 25.164 61.9711 23.976 61.0591 22.464C60.1471 20.952 59.6911 19.236 59.6911 17.316C59.6911 15.42 60.1351 13.716 61.0231 12.204C61.9351 10.668 63.1711 9.48 64.7311 8.64C66.3151 7.776 68.0791 7.344 70.0231 7.344C71.9191 7.344 73.6351 7.752 75.1711 8.568C76.7071 9.384 77.9071 10.56 78.7711 12.096C79.6591 13.608 80.1031 15.372 80.1031 17.388ZM70.0591 11.592C68.7871 11.592 67.7191 11.952 66.8551 12.672C65.9911 13.392 65.4631 14.376 65.2711 15.624H74.8111C74.6191 14.4 74.0911 13.428 73.2271 12.708C72.3631 11.964 71.3071 11.592 70.0591 11.592Z" fill="black"/>
<path d="M122.326 1.8L114.082 27H107.818L102.274 9.936L96.55 27H90.322L82.042 1.8H88.09L93.778 19.512L99.718 1.8H105.118L110.878 19.656L116.746 1.8H122.326ZM132.96 27.288C130.92 27.288 129.084 26.868 127.452 26.028C125.844 25.164 124.584 23.976 123.672 22.464C122.76 20.952 122.304 19.236 122.304 17.316C122.304 15.396 122.76 13.68 123.672 12.168C124.584 10.656 125.844 9.48 127.452 8.64C129.084 7.776 130.92 7.344 132.96 7.344C135 7.344 136.824 7.776 138.432 8.64C140.04 9.48 141.3 10.656 142.212 12.168C143.124 13.68 143.58 15.396 143.58 17.316C143.58 19.236 143.124 20.952 142.212 22.464C141.3 23.976 140.04 25.164 138.432 26.028C136.824 26.868 135 27.288 132.96 27.288ZM132.96 22.68C134.4 22.68 135.576 22.2 136.488 21.24C137.424 20.256 137.892 18.948 137.892 17.316C137.892 15.684 137.424 14.388 136.488 13.428C135.576 12.444 134.4 11.952 132.96 11.952C131.52 11.952 130.332 12.444 129.396 13.428C128.46 14.388 127.992 15.684 127.992 17.316C127.992 18.948 128.46 20.256 129.396 21.24C130.332 22.2 131.52 22.68 132.96 22.68ZM152.698 10.188C153.37 9.252 154.27 8.544 155.398 8.064C156.55 7.584 157.87 7.344 159.358 7.344V12.528C158.734 12.48 158.314 12.456 158.098 12.456C156.49 12.456 155.23 12.912 154.318 13.824C153.406 14.712 152.95 16.056 152.95 17.856V27H147.334V7.632H152.698V10.188ZM162.697 0.287998H168.313V27H162.697V0.287998ZM193.254 0.287998V27H187.89V24.768C186.498 26.448 184.482 27.288 181.842 27.288C180.018 27.288 178.362 26.88 176.874 26.064C175.41 25.248 174.258 24.084 173.418 22.572C172.578 21.06 172.158 19.308 172.158 17.316C172.158 15.324 172.578 13.572 173.418 12.06C174.258 10.548 175.41 9.384 176.874 8.568C178.362 7.752 180.018 7.344 181.842 7.344C184.314 7.344 186.246 8.124 187.638 9.684V0.287998H193.254ZM182.814 22.68C184.23 22.68 185.406 22.2 186.342 21.24C187.278 20.256 187.746 18.948 187.746 17.316C187.746 15.684 187.278 14.388 186.342 13.428C185.406 12.444 184.23 11.952 182.814 11.952C181.374 11.952 180.186 12.444 179.25 13.428C178.314 14.388 177.846 15.684 177.846 17.316C177.846 18.948 178.314 20.256 179.25 21.24C180.186 22.2 181.374 22.68 182.814 22.68Z" fill="#3498DB"/>
</svg>
