<svg width="100" height="100" viewBox="0 0 100 100" fill="none" xmlns="http://www.w3.org/2000/svg">
<g clip-path="url(#clip0)">
<rect width="100" height="100" fill="black"/>
<path d="M29.24 94H37.64L26.216 60.4H16.424L5 94H13.4L15.08 88.72H27.56L29.24 94ZM17.384 81.52L21.32 69.184L25.256 81.52H17.384ZM66.905 94L56.873 76.768L66.425 60.4H57.689L52.505 69.28L47.321 60.4H38.585L48.137 76.768L38.105 94H46.841L52.505 84.304L58.169 94H66.905ZM70.2706 60.4V94H77.9506V60.4H70.2706ZM95.015 94.672C102.311 94.672 107.495 90.832 107.495 84.352C107.495 77.248 101.783 75.472 96.695 73.936C91.463 72.352 90.647 71.296 90.647 69.76C90.647 68.416 91.847 67.216 94.247 67.216C97.319 67.216 98.903 68.704 100.055 71.104L106.535 67.312C104.087 62.368 99.767 59.728 94.247 59.728C88.439 59.728 82.967 63.472 82.967 69.952C82.967 76.384 87.863 78.784 92.855 80.176C97.895 81.568 99.815 82.384 99.815 84.448C99.815 85.744 98.903 87.184 95.255 87.184C91.463 87.184 89.399 85.312 88.199 82.528L81.575 86.368C83.447 91.312 87.959 94.672 95.015 94.672Z" fill="white"/>
</g>
<defs>
<clipPath id="clip0">
<rect width="100" height="100" fill="white"/>
</clipPath>
</defs>
</svg>
