<svg width="63" height="48" viewBox="0 0 63 48" fill="none" xmlns="http://www.w3.org/2000/svg">
<path d="M0.1875 5.46875V1.5H16.5312V5.46875L11.4375 6.34375V42.1875L16.5312 43.0625V47H0.1875V43.0625L5.28125 42.1875V6.34375L0.1875 5.46875ZM62.5875 15.4688H58.2437L57.0875 9.03125C56.0875 8.05208 54.8583 7.25 53.4 6.625C51.9417 6 50.2021 5.6875 48.1812 5.6875C43.4521 5.6875 39.8167 7.40625 37.275 10.8438C34.7333 14.2604 33.4625 18.6042 33.4625 23.875V24.5938C33.4625 29.8646 34.7021 34.2292 37.1812 37.6875C39.6812 41.125 43.1396 42.8438 47.5562 42.8438C49.6187 42.8438 51.4937 42.5208 53.1812 41.875C54.8687 41.2292 56.1708 40.4375 57.0875 39.5L58.2437 33.0625H62.5875V41.1562C61.275 42.8438 59.3062 44.3542 56.6812 45.6875C54.0562 47 51.0146 47.6562 47.5562 47.6562C41.6396 47.6562 36.7854 45.4688 32.9937 41.0938C29.2021 36.7188 27.3062 31.2188 27.3062 24.5938V23.9375C27.3062 17.2708 29.1708 11.7604 32.9 7.40625C36.6292 3.03125 41.5146 0.84375 47.5562 0.84375C51.0146 0.84375 54.0562 1.52083 56.6812 2.875C59.3062 4.20833 61.275 5.70833 62.5875 7.375V15.4688Z" fill="black"/>
</svg>
